<?xml version="1.0" standalone="no"?>
<!DOCTYPE svg PUBLIC "-//W3C//DTD SVG 1.1//EN" "http://www.w3.org/Graphics/SVG/1.1/DTD/svg11.dtd" >
<svg xmlns="http://www.w3.org/2000/svg" xmlns:xlink="http://www.w3.org/1999/xlink" version="1.1">
<metadata></metadata>
<defs>
<font id="the_hills_personal_use_onlyRg" horiz-adv-x="3667" >
<font-face units-per-em="2048" ascent="1638" descent="-410" />
<missing-glyph horiz-adv-x="608" />
<glyph unicode="&#xfb01;" horiz-adv-x="884" d="M-49 573q-2 10 0 21.5t6 19.5q-4 29 29 39q10 2 17 2h17q4 102 8.5 202.5t8.5 205.5q4 78 5 156.5t7 156.5q2 20 12.5 45t32.5 29q27 6 35 -22.5t6 -47.5q-4 -51 -5 -100t-3 -100q-6 -141 -13.5 -279.5t-11.5 -279.5q18 -14 36 -30t34 -32q43 -2 92 1t97.5 9t92.5 12.5 t78 12.5q10 2 26.5 6t33.5 6h10q2 0 4 -1t4 -1q16 -10 19.5 -31.5t1.5 -37.5q-10 -80 -17.5 -161t-1.5 -163q4 -31 10.5 -70t30.5 -61q14 -12 30.5 -12t32 7t30 18t24.5 22q35 37 59.5 84t42.5 94q16 39 39 56.5t37 8.5q14 -8 15.5 -39.5t-13.5 -62.5q-25 -55 -59 -115 q-31 -51 -77 -99t-112 -54q-76 -8 -112.5 40t-51 117.5t-12.5 144.5t6 122q2 23 3.5 47t5.5 49q-2 -2 -9 -2q-66 -6 -145.5 -15.5t-157.5 -13.5q14 -25 26.5 -50.5t23.5 -47.5q72 -170 99.5 -357.5t16.5 -371.5q-4 -100 -26 -189q-10 -41 -30 -83t-56 -66q-39 -29 -84 -21.5 t-78 41.5q-31 31 -47.5 75t-26.5 87q-23 98 -29 199.5t-10 202.5q-2 100 -1 199.5t3 199.5l6 215q-23 12 -41 24.5t-24 38.5zM89 152.5q-1 -103.5 1 -207.5q2 -100 6 -198.5t23 -197.5q6 -41 19.5 -91t47.5 -76q20 -16 36 -10.5t28 22t21.5 37t13.5 34.5q29 94 31.5 195.5 t-5.5 200.5q-12 188 -67 366q-20 66 -49 131.5t-72 120.5q-6 0 -12.5 1t-12.5 1q-2 -31 -3 -60.5t-1 -60.5q-4 -104 -5 -207.5zM297 858q6 66 50 122t97 93q51 39 115 64.5t129 13.5q23 -4 43.5 -15.5t28.5 -33.5q4 -18 -2 -28.5t-17.5 -14.5t-25 -3t-25.5 7q-31 12 -65.5 7 t-68.5 -22.5t-63.5 -40t-50.5 -42.5q-23 -25 -44 -56.5t-19 -66.5q2 -39 32.5 -54.5t63.5 -11.5q59 4 119.5 40t95.5 85q10 18 16.5 40t18.5 38q23 29 42 12.5t24 -43.5q2 -25 -6.5 -49.5t-24 -46t-33.5 -39.5t-37 -33q-51 -39 -115.5 -64.5t-130.5 -21.5q-63 4 -108 51.5 t-39 112.5z" />
<glyph unicode="&#xfb02;" horiz-adv-x="970" d="M-49 573q-2 10 0 21.5t6 19.5q-4 29 29 39q10 2 17 2h17q4 102 8.5 202.5t8.5 205.5q4 78 5 156.5t7 156.5q2 20 12.5 45t32.5 29q27 6 35 -23t6 -47q-4 -51 -5 -100t-3 -100q-6 -141 -13.5 -279.5t-11.5 -279.5q35 -25 65 -58t52 -71q74 -10 147.5 6t127.5 45 q-27 199 -29 397.5t16 396.5q4 55 12.5 109.5t20.5 109.5q10 47 25.5 95.5t44.5 89.5q29 39 72.5 52t84.5 -19q41 -31 57.5 -82.5t26.5 -98.5q14 -72 18.5 -166t-1.5 -196.5t-23.5 -207.5t-49.5 -202.5t-78 -180.5t-107 -138q12 -92 32.5 -182.5t63.5 -167.5q20 -39 52 -67 t79 -5q43 20 71.5 64t51.5 85q6 12 16.5 34t24.5 42.5t29.5 32.5t31.5 6q12 -6 14.5 -20.5t-0.5 -33t-10.5 -36.5t-13.5 -31q-20 -43 -45 -85t-57 -77q-29 -33 -68 -55t-86 -20q-47 0 -84 27.5t-61 66.5q-53 82 -77 180t-40 195q-53 -23 -113.5 -38.5t-126.5 -17.5l11 -20 q72 -170 99.5 -357.5t16.5 -371.5q-4 -100 -26 -189q-10 -41 -30 -83t-56 -66q-39 -29 -84 -21.5t-78 41.5q-31 31 -47.5 75t-26.5 87q-23 98 -29 199.5t-10 202.5q-2 100 -1 199.5t3 199.5q0 47 1 95t3 95q-18 16 -37.5 38t-25.5 50zM89 152.5q-1 -103.5 1 -207.5 q2 -100 6 -198.5t23 -197.5q6 -41 19.5 -91t47.5 -76q20 -16 36 -10.5t28 22t21.5 37t13.5 34.5q29 94 31.5 195.5t-5.5 200.5q-12 188 -67 366q-14 45 -32.5 92.5t-41.5 90.5q-20 4 -38.5 9t-35.5 15q-2 -18 -2 -36.5v-37.5q-4 -104 -5 -207.5zM545.5 1005.5 q1.5 -196.5 23.5 -395.5q63 78 104.5 188.5t62 231.5t24.5 240t-2 213q-4 49 -12.5 100t-30.5 94q-10 23 -25.5 33t-36.5 -12q-16 -18 -24 -41t-17 -45q-16 -51 -26.5 -105.5t-16.5 -107.5q-25 -197 -23.5 -393.5z" />
<glyph horiz-adv-x="0" />
<glyph unicode="&#xd;" horiz-adv-x="608" />
<glyph horiz-adv-x="0" />
<glyph horiz-adv-x="0" />
<glyph unicode=" "  horiz-adv-x="608" />
<glyph unicode="&#x09;" horiz-adv-x="608" />
<glyph unicode="&#xa0;" horiz-adv-x="608" />
<glyph unicode="!" horiz-adv-x="454" d="M103.5 -30q-2.5 36 13.5 65t51 44t65 -5q29 -20 32 -54t-13 -63t-50 -44t-65 3t-33.5 54zM106.5 347.5q2.5 21.5 2.5 35.5q4 55 10 109.5t14 107.5q16 123 42 243t61 236q10 29 20 65t33 58q10 10 24.5 13.5t26.5 -7.5q14 -12 11 -32.5t-7 -36.5q-47 -135 -80 -274.5 t-51 -282.5q-14 -104 -18 -213q0 -12 1 -34t-2.5 -42.5t-13.5 -34.5t-30 -10q-20 2 -29.5 18.5t-13 38t-1 43z" />
<glyph unicode="&#x22;" horiz-adv-x="471" d="M106 749.5q7 55.5 23 110.5q4 18 15.5 41t35.5 23q12 0 20.5 -7.5t11.5 -18.5t3 -24.5t-2 -21.5q-4 -16 -10 -31.5t-10 -32.5q-4 -16 -5.5 -29.5t-3.5 -29.5q0 -23 6.5 -44t8.5 -44q2 -16 -4.5 -39.5t-28.5 -26.5q-23 -2 -36 22t-17 42q-14 55 -7 110.5zM241 764.5 q7 64.5 29 122.5q8 23 17.5 45t31.5 33q18 8 28.5 3t15 -17.5t4 -28t-4.5 -27.5q-4 -16 -12 -33.5t-14 -34.5q-10 -35 -12 -67q-2 -16 -3.5 -34.5t3.5 -37.5q4 -12 7 -22.5t3 -22.5q2 -18 -5 -43t-32 -22q-23 2 -34 24.5t-15 38.5q-14 59 -7 123.5z" />
<glyph unicode="#" horiz-adv-x="849" d="M110.5 160.5q-16.5 15.5 0.5 38.5q16 23 44.5 33t53.5 14q4 0 7 1t7 1l6 57q2 27 4.5 51.5t6.5 51.5l-34 -8.5t-34 -4.5q-25 0 -41 15.5t0 40.5q16 23 45 32t53 15l27 6q4 20 9 40.5t11 41.5q4 18 17.5 41.5t38.5 21.5q27 0 30 -27.5t-2 -43.5l-12 -62l39 6q63 8 131 13 q4 14 7 26t7 25q4 18 17.5 41.5t38.5 21.5q27 0 30 -27.5t-2 -43.5l-8 -39q16 0 32.5 -1t33.5 -1q18 -2 43.5 -10.5t27.5 -30.5q2 -27 -22.5 -35t-42.5 -8q-23 -2 -46.5 -1t-45.5 1l-13 -70l-12 -96q23 2 45.5 1t44.5 -1q18 -2 44 -10.5t28 -32.5q2 -25 -23 -33t-43 -8 q-25 -2 -49 -1t-49 1v-6q0 -31 6 -64t-2 -61q-6 -23 -24.5 -34t-36.5 9t-21.5 50t-5.5 57v47q-4 0 -9 -1t-9 -1q-39 -4 -78 -7.5t-76 -11.5q2 -29 6 -56.5t-2 -51.5q-6 -23 -24.5 -34t-36.5 9t-21.5 50t-5.5 57v4q-18 -6 -35.5 -10.5t-33.5 -2.5q-25 0 -41.5 15.5zM307 264 l60 8q29 4 58.5 6.5t57.5 4.5q0 14 2 22q4 35 7.5 73t9.5 73h-23q-39 -4 -76.5 -8.5t-74.5 -10.5l-9 -49q-8 -57 -12 -119z" />
<glyph unicode="$" horiz-adv-x="622" d="M105 647q4 51 22 97.5t51 86t76 64.5q45 25 96 29l4 8q6 20 18.5 40.5t35.5 26.5q18 4 27 -3t11.5 -19t0 -26.5t-6.5 -24.5l-6 -23l12 -8q39 -31 53.5 -81t18.5 -97q2 -27 2 -52.5v-52.5q-2 -23 -2 -45t-6 -43q-10 -35 -35.5 -39t-38.5 33q-10 23 -8 47.5t4 46.5 q0 25 1 49.5t-3 47.5t-7 52.5t-17 51.5q-29 -117 -41.5 -233.5t-16.5 -233.5q29 -29 53.5 -60.5t45.5 -68.5q20 -43 27 -91t-3 -92t-37.5 -82t-77.5 -58q-4 0 -8 -5v-2q2 -20 2 -42.5t-14 -39.5q-20 -25 -49 0q-14 14 -18.5 34t-6.5 38q-47 4 -80 31q-16 12 -26.5 33.5 t2.5 42.5q12 23 33.5 14.5t37.5 -21.5q14 -12 31 -14v125l6 227q-47 53 -90 107.5t-63 126.5q-14 47 -10 98zM203 541q14 -33 31.5 -60.5t39.5 -54.5q4 68 11.5 134.5t17.5 131.5q4 35 9 72t16 74q-41 -10 -71 -41t-46 -66q-49 -96 -8 -190zM346 -16q39 28 49 71 q10 45 -5 88t-44 82q-4 -121 0 -241z" />
<glyph unicode="%" horiz-adv-x="1009" d="M104 485q10 61 54.5 109.5t101.5 71.5q20 10 45 14t45 -12l2 -2q10 18 35 26t41 13q66 6 119 -28t69 -99q2 -10 3.5 -20.5t1.5 -20.5l59 47q33 25 68.5 54.5t74.5 43.5q16 6 37 7t31 -17q10 -20 -5.5 -38t-31.5 -28q-45 -33 -89 -64.5t-87 -66.5q10 4 19.5 5t17.5 3 q66 8 118 -25.5t68 -99.5t-14.5 -126t-81.5 -99q-57 -43 -132 -61.5t-145 0.5q-57 14 -96 55t-43 98q-33 -29 -63.5 -60.5t-61.5 -64.5q-10 -10 -23.5 -27.5t-28.5 -33.5t-31.5 -27.5t-35.5 -7.5q-25 4 -26.5 19.5t6.5 35t21.5 37t19.5 25.5q33 35 65.5 66.5t67.5 64.5 l31 31q-49 -4 -88 8q-66 18 -107 70.5t-31 123.5zM188 442.5q5 -32.5 37 -55.5q31 -20 71 -23.5t79 7t73.5 32t57.5 48.5q20 27 29.5 60.5t-7.5 63.5q-16 29 -43.5 37.5t-58.5 3.5q-16 -4 -37.5 -4t-34.5 11q-8 -10 -19.5 -16.5t-21.5 -10.5q-35 -10 -65.5 -32.5 t-46.5 -55.5q-18 -33 -13 -65.5zM474 222q5 -34 36 -54q31 -23 71 -25t79.5 8.5t74.5 32t58 47.5q18 27 28 60t-6 63q-16 31 -45 38t-59 3q-14 -4 -36 -3t-34 11q-16 -20 -41 -26q-35 -10 -66.5 -32.5t-48.5 -55.5q-16 -33 -11 -67z" />
<glyph unicode="&#x26;" horiz-adv-x="956" d="M23 156q8 94 54 178t109 153l25 27q-29 66 -40 136.5t1 140.5q6 37 25.5 82t48 79.5t67.5 50t86 -9.5q45 -23 64.5 -63.5t20.5 -88.5t-11 -96.5t-31 -85.5q-23 -47 -56.5 -84.5t-70.5 -72.5l4 -6q51 -82 123 -140q8 -8 26.5 -20t33 -25.5t19.5 -29t-11 -29.5t-35.5 -11 t-40 14t-38 25.5t-27.5 24.5q-61 55 -113 129l-4 4q-31 -31 -53 -61q-43 -59 -74 -134t-21 -151q6 -43 30 -79t67 -50q43 -16 90 -8t88 27q78 35 142.5 103.5t84.5 156.5q10 45 6 94t-20 92q-14 33 -31 59q-16 4 -35.5 10.5t-37 15.5t-30 23.5t-12.5 34.5q-2 39 31 49.5 t62 -2.5q47 -25 75 -57q25 -6 50.5 -8t54.5 -6q59 -6 116.5 -7t116.5 3q41 4 81 13t81 15q16 4 43 1t33 -25q6 -23 -19 -38.5t-41 -19.5q-39 -10 -77.5 -17t-79.5 -11q-154 -16 -305 6q14 -41 20 -84t6 -80q0 -90 -40 -168t-105 -137q-68 -61 -157 -99t-181 -22 q-51 8 -88 35t-60.5 65.5t-34 85t-5.5 93.5zM250.5 708q5.5 -67 28.5 -128q33 33 61.5 69.5t44.5 83.5q14 39 17.5 90t-25.5 86q-16 18 -32.5 13.5t-32 -20t-27 -36t-15.5 -32.5q-25 -59 -19.5 -126z" />
<glyph unicode="'" horiz-adv-x="0" d="M-162 748q-2 29 0 54t6 54q4 35 9.5 67.5t13.5 65.5q4 16 7 34.5t13 33.5q6 12 18.5 21t28.5 5q18 -8 22.5 -30.5t2.5 -38.5q-4 -37 -15.5 -74t-15.5 -74q-4 -27 -7 -54.5t1 -55.5q0 -10 -2 -30.5t-8 -38t-18.5 -26t-30.5 6.5q-18 14 -21.5 36.5t-3.5 43.5z" />
<glyph unicode="(" horiz-adv-x="583" d="M106.5 360.5q16.5 204.5 77.5 397.5q29 88 68 173t86 167q8 14 18.5 33.5t22.5 37t26.5 31.5t32.5 19q20 6 30.5 -2.5t11.5 -21.5t-4 -29.5t-13 -26.5q-123 -180 -195.5 -391t-81.5 -431q-6 -166 28 -332.5t120 -308.5q6 -10 15 -23t16.5 -26.5t9.5 -28t-4 -26.5 q-10 -18 -23.5 -18t-29 9t-27.5 23.5t-19 22.5q-51 76 -83.5 167t-53.5 181q-45 199 -28.5 403.5z" />
<glyph unicode=")" horiz-adv-x="583" d="M104 -410.5q-2 13.5 3.5 30t13.5 26.5q125 180 196.5 391t81.5 430q6 166 -28.5 332t-120.5 309q-12 20 -31.5 49t-5.5 55q8 18 23.5 18.5t30 -9t26.5 -23.5t18 -22q53 -76 85 -167t53 -182q45 -199 28.5 -403.5t-76.5 -396.5q-57 -176 -153 -340q-8 -14 -18.5 -34 t-22.5 -37t-27.5 -31.5t-34.5 -18.5q-20 -6 -29.5 2t-11.5 21.5z" />
<glyph unicode="*" horiz-adv-x="757" d="M104 438q6 25 29 43.5t45 34.5q55 37 117 68q-4 0 -4 2q-12 6 -37 14t-48.5 19.5t-36.5 27t-1 35.5q10 18 31.5 19t47 -6t51.5 -20t46 -24q12 57 37 111q8 16 23.5 31.5t35.5 7.5q23 -8 22 -32t-5 -40l-25 -78q33 14 64.5 25.5t66.5 21.5q20 6 46 8.5t38 -18.5 q16 -23 -5 -41t-40 -24q-35 -12 -67.5 -23.5t-67.5 -26.5q29 -18 54.5 -38.5t51.5 -42.5q14 -12 29.5 -33t5.5 -43q-6 -12 -16 -15.5t-21.5 -1.5t-23 8.5t-19.5 12.5q-31 23 -59.5 48.5t-60.5 47.5q-2 0 -7 4q-4 -31 -7 -61.5t-3 -61.5q0 -27 3 -53.5t-11 -50.5 q-10 -18 -27.5 -18.5t-29.5 16.5q-16 20 -17.5 47t-1.5 51q0 29 3 57.5t7 57.5l-59 -37q-25 -16 -48.5 -36.5t-51.5 -31.5q-23 -10 -42.5 0.5t-11.5 38.5z" />
<glyph unicode="+" horiz-adv-x="774" d="M106 266q8 25 35 36t49 17q35 10 71 14.5t71 8.5q4 39 11 77t22 73q6 16 20 31.5t35 8.5q23 -6 24.5 -30.5t-2.5 -40.5l-26 -113q47 4 95 4t95 -4q18 -4 41 -14t25 -33q0 -23 -25 -31t-43 -6q-47 0 -91 3t-91 -1h-16q-2 -23 -3.5 -47t3.5 -47q2 -25 6 -48.5t0 -47.5 q-4 -18 -16.5 -32.5t-33.5 -4.5q-23 10 -28.5 36.5t-9.5 49.5q-4 33 -3 64.5t3 62.5v6q-16 -2 -29.5 -3t-28.5 -5q-10 -2 -39.5 -11.5t-59.5 -12.5t-49.5 4.5t-11.5 35.5z" />
<glyph unicode="," horiz-adv-x="339" d="M104 -125q6 37 18.5 73t18.5 72q6 27 10.5 54.5t2.5 56.5q-2 10 1 30.5t10 37t19.5 23.5t30.5 -7q16 -14 19.5 -36.5t3.5 -43.5q0 -29 -4.5 -54.5t-8.5 -53.5l-12 -66t-16 -65q-4 -16 -8.5 -35t-14.5 -33q-8 -10 -20.5 -19.5t-28.5 -3.5q-18 8 -20.5 31t-0.5 39z" />
<glyph unicode="-" horiz-adv-x="624" d="M125 279q-4 18 11.5 31.5t31.5 17.5q39 10 83 13t88 2t84 -8t71 -16q16 -4 32.5 -16t14.5 -31q-4 -23 -29 -29.5t-41 -2.5q-68 16 -143.5 17t-137.5 -9q-16 -4 -38.5 3t-26.5 28z" />
<glyph unicode="." horiz-adv-x="368" d="M103.5 51q-2.5 37 13.5 66t51 43t65 -6q29 -20 32 -54t-13 -63t-50 -44.5t-65 3.5q-31 18 -33.5 55z" />
<glyph unicode="/" horiz-adv-x="921" d="M104 -319q-4 25 5.5 47t19.5 45q27 55 55.5 109.5t57.5 107.5q27 47 65.5 115.5t85.5 147.5t97.5 162t97.5 160.5t89 145t71 115.5q35 57 70.5 113.5t76.5 109.5q12 16 32.5 33.5t45.5 11.5q29 -8 20.5 -36t-20.5 -44q-37 -53 -86 -126t-103.5 -158t-111 -175 t-108.5 -176t-97 -162.5t-76 -132.5q-35 -66 -70.5 -132t-70.5 -134l-45 -96q-10 -23 -19.5 -46.5t-31.5 -33.5q-18 -10 -31.5 0t-18.5 29z" />
<glyph unicode="0" d="M92 -129h74l2 199l39 -199h57l39 201l4 -201h72l-4 489h-84l-58 -307l-55 307h-80zM440 -129h76v240l86 -240h62v489h-76v-235l-84 235h-64v-489zM632 -658.5q1 27.5 1 48.5q0 31 15.5 54.5t53.5 18.5q35 -4 42.5 -28.5t7.5 -50.5h-29v20t-4 21q-4 16 -21.5 17t-25.5 -13 q-10 -12 -7 -39t3 -43q0 -14 -3 -39t9 -39q6 -14 23.5 -12t21.5 18q4 10 4 21.5v21.5h29q0 -29 -8.5 -57.5t-49.5 -28.5q-29 0 -42 16.5t-17 41t-3 52zM717 -39v-90h82v90h-82zM778 -645q0 20 1 40.5t7.5 36t20.5 24.5t41 7q25 -2 36 -13t16 -28.5t5 -37v-37.5v-38t-6 -37 t-19 -28.5t-38 -11.5q-29 0 -42.5 12.5t-17.5 30.5t-4 39.5v40.5zM782 1319v446h95q35 0 64.5 -7t45.5 -42q20 -39 17 -89t-37 -79q-25 -20 -60 -20h-63v-209h-62zM786 979v276h60v-297q0 -25 4 -56.5t33 -47.5q25 -8 40 -1t24 22.5t13.5 36t4.5 38.5q2 37 1 72t-1 72v161 h61v-204q0 -29 1 -65t-4 -70.5t-20.5 -62.5t-50.5 -40q-20 -8 -42.5 -8t-44 7t-39 21.5t-25.5 38.5q-10 23 -12.5 49.5t-2.5 57.5zM809 -690.5q0 -16.5 3 -29.5t13 -15q18 -10 27.5 -5t13.5 19t4 30.5v28.5q0 8 1 22.5t1 30t-3 28t-11 16.5q-25 14 -36 -1.5t-11 -31.5 q-2 -10 -1 -18.5t1 -16.5t-1 -24.5t-1 -33zM834 41q0 -31 3 -59.5t15 -57.5q16 -35 50 -50t69 -7q39 6 60.5 34.5t25.5 61.5q8 92 -58 162l-41 45q-12 12 -24 24.5t-19 32.5q-4 8 -4 19.5t3.5 22t10.5 16.5t19 6q12 -2 19.5 -13.5t9.5 -25.5t3 -29.5t1 -25.5l76 4 q0 45 -10.5 91t-53.5 64q-27 12 -53.5 10.5t-48 -14t-35.5 -34t-16 -50.5q-4 -29 1 -59.5t21 -52.5q6 -14 18.5 -24.5t22.5 -22.5q23 -29 50.5 -56.5t27.5 -68.5q0 -14 -3 -26.5t-18 -14.5q-10 -4 -18 1t-12 15q-10 20 -12.5 43t-4.5 45zM844 1573q16 0 31.5 -1t33.5 3 q23 6 29 23.5t6 39.5q2 25 -3 47.5t-32 30.5q-18 4 -33.5 3t-31.5 -1v-145zM864 -256h88v-23h-53v-75h43v-23h-43v-104h-35v225zM934 -766l4 227h33l41 -182l39 182h28l4 -227h-24l-2 168l-37 -168h-23l-34 168l-2 -168h-27zM971 -360q0 18 1 38.5t7 36t20.5 24.5t40.5 7 q23 -2 35 -13.5t17.5 -28.5t5.5 -36.5v-38.5q0 -18 -1 -37.5t-6.5 -37t-18.5 -28.5t-38 -11q-27 0 -40 12t-18 30.5t-5 41v41.5zM1000 -377.5q-1 -15.5 0 -33t5.5 -31t14.5 -17.5q18 -8 27.5 -1t12.5 21.5t3 31v28.5q0 8 1 22.5t1 30t-3 28.5t-11 17q-23 12 -36.5 -3 t-13.5 -33v-37q0 -8 -1 -23.5zM1049 1319v446h170v-47h-111v-145h90v-45h-90v-166h113v-43h-172zM1077 936l58 14q2 -20 5 -41.5t17 -36.5q14 -16 34.5 -18t37.5 12q18 16 16 43t-14 43q-10 12 -21.5 25.5t-27.5 23.5q-20 20 -46 41t-40 45q-14 20 -17.5 47t2.5 51.5 t22.5 43t41.5 26.5q25 6 55.5 4t52.5 -18q23 -16 30 -43t9 -53l-49 -17q-2 25 -11 51.5t-38 32.5q-20 4 -36.5 -7t-20.5 -34q-10 -35 17.5 -60.5t51.5 -45.5q29 -27 55.5 -54.5t34.5 -68.5q12 -51 -16.5 -93t-85.5 -42t-86 37t-31 92zM1093 49q-1 -33 3 -67q4 -29 15 -58.5 t36 -44.5q25 -16 60.5 -16t58.5 22l2 -14h65v254h-129v-72h49v-31.5t-3 -41t-14 -33t-32 -4.5q-12 4 -18 17t-8 28.5t-1 32t1 26.5v117q0 23 -1 52.5t5 53.5q16 23 39 21q25 -8 26 -31q4 -16 3 -34.5t-1 -39.5h82q0 20 -1 44t-5 46.5t-15.5 42t-31.5 31.5q-23 14 -53.5 15.5 t-57.5 -7.5q-35 -10 -50 -38.5t-21 -61.5q-4 -35 -3 -70.5t1 -70.5t-1 -68zM1118 -766l4 227h33l39 -182l41 182h33l2 -227h-23l-4 168l-39 -168h-20l-35 168l-4 -168h-27zM1128 -256q20 0 43 2t41 -8q12 -6 20.5 -22.5t9.5 -34t-6 -32t-24 -20.5l33 -110h-31l-32 104h-23 v-104h-31v225zM1151 473v229q12 0 26.5 1.5t30 -1t28.5 -6.5t21 -16q8 -20 6.5 -47t-18.5 -41q-14 -10 -30.5 -11t-32.5 -1v-107h-31zM1159 -279v-75q20 0 35.5 6t15.5 33t-14 31.5t-37 4.5zM1182 602h16t19 4q12 4 14 16.5t2 24.5q-2 29 -15.5 32t-35.5 3v-80zM1270 1319 v446q41 0 89 1t85 -19q25 -14 37 -45t12 -62.5t-13.5 -59.5t-39.5 -38l59 -223h-59l-60 211h-47v-211h-63zM1286 473v229h29v-206h59v-23h-88zM1305 -539h90v-20h-58v-74h47v-24h-47v-86h58v-23h-90v227zM1321 -256h115v-23h-41v-202h-33v202h-41v23zM1333 1573h30.5t33.5 4 q20 10 27.5 30.5t2.5 43.5q0 20 -5 36.5t-25 24.5q-16 8 -32.5 7t-31.5 -1v-145zM1350 -190h69l140 612h-78zM1350 811v444h172v-47h-111v-145h90v-45h-90v-166h111v-41h-172zM1397 473v229h88v-20h-60v-78h50v-22h-50v-86h60v-23h-88zM1417 -539q23 0 46.5 2t41.5 -8 q12 -8 19.5 -23.5t7.5 -31.5t-7 -30.5t-22 -20.5l33 -115h-31l-26 109h-25v-109h-37v227zM1452 -256h29v-98h59v98h33v-225h-33v104h-59v-104h-29v225zM1454 -559v-74q20 0 33.5 5t13.5 32q0 23 -13 30t-34 7zM1499 473l49 229h31l49 -229h-33l-10 59h-47l-10 -59h-29z M1540 555h41l-16 104zM1540 1442l57 16q2 -23 6.5 -44t18.5 -36q14 -14 35.5 -16t36.5 12q16 16 15 42t-13 46q-8 12 -20.5 23.5t-28.5 25.5q-20 18 -45 39t-39 43q-14 23 -18.5 49.5t1.5 51t21.5 44t42.5 25.5q25 6 55.5 4t50.5 -18q23 -16 31 -43t10 -53l-49 -15 q-2 23 -11 49.5t-38 34.5q-20 2 -37.5 -9t-22.5 -30q-6 -39 21 -65.5t53 -44.5q29 -27 54.5 -54.5t35.5 -64.5q10 -55 -18.5 -97t-85.5 -42q-55 0 -86 37t-33 90zM1563 -658.5q2 27.5 2 48.5q0 31 14 54.5t51 18.5q37 -4 44 -28.5t7 -50.5h-32q0 10 1 20t-3 21 q-4 16 -20.5 17t-27.5 -13q-10 -12 -8 -39t2 -43q0 -14 -2 -39t11 -39q8 -14 24 -12t21 18q4 10 3 21.5t-1 21.5h32q0 -29 -9 -57.5t-50 -28.5q-31 0 -43 16.5t-15 41t-1 52zM1593 283h66v-412h82v412h65v77h-213v-77zM1608 -256h88v-23h-56v-75h48v-23h-48v-86h56v-18h-88 v225zM1642 537l31 10q0 -12 4 -27.5t15 -21.5q16 -4 26.5 4t10.5 22q0 23 -20.5 40.5t-35.5 33.5q-23 16 -30 45t18 51q14 8 31.5 9.5t29.5 -3.5q16 -6 23.5 -22t9.5 -33l-26 -6q-2 10 -5.5 21.5t-13.5 21.5q-10 4 -20.5 0t-14.5 -18q-6 -16 7.5 -32t23.5 -26 q16 -12 30.5 -25.5t18.5 -35.5q8 -29 -7 -51.5t-44 -22.5t-44 18.5t-18 47.5zM1690 1087.5q-2 51.5 8 94.5q10 41 38.5 58t67.5 17q41 2 73 -12t46 -51q16 -45 12 -96t-4 -97q0 -29 1 -53t-5 -51q-8 -45 -38 -67.5t-77 -22.5q-100 0 -118 94q-4 23 -3 45.5t1 46.5 q0 43 -2 94.5zM1712 -539h33v-227h-33v227zM1751 1100.5q2 -37.5 2 -72.5v-80q0 -23 3 -49.5t26 -40.5q12 -6 29.5 -6t27.5 6q16 10 23.5 26.5t9.5 33.5q2 10 1 23t-1 24v157q0 18 -1 39t-18 35q-10 12 -25.5 16.5t-29.5 -0.5q-31 -8 -43 -43q-6 -31 -4 -68.5zM1767 -766 l50 227h30l49 -227h-28l-10 59h-50l-10 -59h-31zM1782 473v229h90v-20h-57v-78h47v-22h-47v-86h59v-23h-92zM1790 -256h86v-23h-59v-75h45v-23h-45v-104h-27v225zM1804 1595.5q-2 51.5 11 96.5q10 39 39.5 56t66.5 19t70.5 -12t46.5 -53q16 -41 15 -94.5t-1 -98.5 q0 -29 -1 -54t-7 -50q-19 -90 -117 -90q-100 0 -117 98q-4 20 -4 41v43q0 47 -2 98.5zM1812 -686h39l-18 104zM1847 -129h82v215h94v-215h82v489h-82v-202h-94v202h-82v-489zM1868 1609.5q4 -38.5 4 -71.5v-82q0 -23 2 -50.5t29 -39.5q27 -10 55 0q18 10 23.5 25.5t7.5 31.5 v207q0 18 -1 39t-18 35q-20 25 -53 14q-33 -2 -43 -39q-10 -31 -6 -69.5zM1894 -402.5q2 13.5 2 25.5v121h29v-100q0 -10 -1 -27.5t1 -35t8 -31t21 -13.5q16 0 23.5 13.5t10.5 31t2 34.5t-1 28v100h26v-102q0 -14 1 -33t-1 -37t-9.5 -32.5t-23.5 -20.5q-33 -10 -56 4t-30 47 q-4 14 -2 27.5zM1921 -539h29v-204h59v-23h-88v227zM1950 702h32l33 -167l37 167h25l-47 -229h-29zM1995 811v444h41l127 -297v297h55v-444h-43l-129 303v-303h-51zM2052 -256h31v-207h57v-18h-88v225zM2085 -539h29l36 -166l31 166h33l-53 -227h-25zM2105 473v229h31v-229 h-31zM2114 1319v446h40l125 -297v297h54v-446h-41l-129 303v-303h-49zM2161 -256h32v-207h58v-18h-90v225zM2165 -129h180v72h-98v143h77v72h-77v131h98v71h-180v-489zM2167 537l31 10q0 -12 4 -27.5t16 -21.5q14 -4 23.5 4t9.5 22q2 23 -17.5 40.5t-35.5 33.5 q-23 16 -31 45t16 51q31 16 64 6q16 -6 22 -22t8 -33l-26 -6q-2 10 -5 21.5t-14 21.5q-8 4 -19 0t-13 -18q-10 -16 5 -32t25 -26q14 -12 28.5 -25.5t18.5 -35.5q8 -29 -6 -51.5t-45 -22.5t-44 18.5t-15 47.5zM2236 -539h93v-20h-60v-74h47v-24h-47v-86h60v-23h-93v227z M2286 811v444h61v-403h113v-41h-174zM2306 473v229h33v-229h-33zM2329 -481l43 225h34l48 -225h-31l-10 55h-48l-12 -55h-24zM2351 -539q23 0 45.5 2t42.5 -8q12 -8 19.5 -23.5t7.5 -31.5t-6 -30.5t-21 -20.5l29 -115h-29l-29 109h-26v-109h-33v227zM2359 682v20h111v-20 h-39v-209h-29v209h-43zM2370 -401h40l-20 102zM2376 66h82v90h-82v-90zM2378 1319l94 446h59l95 -446h-58l-22 111h-90l-21 -111h-57zM2384 -559v-74q23 0 37 5t14 32q0 23 -14.5 30t-36.5 7zM2464 1475h76l-39 202zM2476 -256h21l65 -150v150h25v-225h-19l-65 151v-151h-27 v225zM2476 1255h57l68 -213l63 213h62q-29 -92 -62 -184l-28 -92q-6 -16 -5 -30.5t1 -26.5v-111h-62v92q0 16 2 33.5t-2 32.5q-8 45 -30 86zM2490 -700l31 6q0 -10 4 -24.5t15 -18.5q16 -10 26 -1t10 21q0 23 -20.5 41.5t-34.5 30.5q-20 20 -28.5 50t18.5 48q12 10 30.5 11 t30.5 -5q16 -4 22.5 -20.5t8.5 -30.5l-27 -10q-2 10 -4 22.5t-12 20.5q-12 4 -22.5 0t-14.5 -16q-8 -16 6.5 -31t26.5 -25q14 -16 28.5 -29.5t18.5 -35.5q8 -27 -6 -49.5t-43 -22.5q-31 0 -45.5 20.5t-18.5 47.5zM2503 -129h82v215h94v-215h82v489h-82v-202h-94v202h-82 v-489zM2626 -256q23 0 50 1t48 -15q20 -16 19 -47t-1 -54v-54.5t-24 -45.5q-18 -14 -45 -12t-47 2v225zM2634 -539h28v-227h-28v227zM2656 -279v-184q20 0 34.5 4t19.5 29v119q-2 25 -16.5 28.5t-37.5 3.5zM2673 1319v446h61v-403h115v-43h-176zM2695 -645q0 20 1 40.5 t8.5 36t21.5 24.5t41 7q25 -2 35 -13t14 -28.5t3 -37t-1 -37.5v-38t-5 -37t-17 -28.5t-37 -11.5q-27 0 -40.5 12.5t-18.5 30.5t-5 39.5v40.5zM2728 -690.5q0 -16.5 3 -29.5t13 -15q18 -10 28.5 -5t14.5 19t4 30.5v28.5q0 8 1 22.5t-1 30t-6 28t-12 16.5q-23 14 -32 -1.5 t-9 -31.5v-35q0 -8 -2 -24.5t-2 -33zM2761 811v63h57v-63h-57zM2761 1255h57l-18 -348h-23zM2810 -129h82v489h-82v-489zM2855 -539h20l66 -151v151h25v-227h-21l-66 156v-156h-24v227zM2941 -129h180v72h-98v417h-82v-489zM3146 -129h180v72h-98v417h-82v-489zM3322 41 q0 -31 3 -59.5t15 -57.5q16 -35 50 -50t69 -7q39 6 60.5 34.5t25.5 61.5q9 92 -57 162l-41 45l-24.5 24.5t-18.5 32.5q-4 8 -4 19.5t3 22t10 16.5t19 6q12 -2 19.5 -13.5t9.5 -25.5t3 -29.5t1 -25.5l76 4q0 45 -10 91t-53 64q-27 12 -53.5 10.5t-48 -14t-36 -34t-16.5 -50.5 q-4 -29 1 -59.5t21 -52.5q6 -14 18.5 -24.5t22.5 -22.5q23 -29 50.5 -56.5t27.5 -68.5q0 -14 -3 -26.5t-17 -14.5q-10 -4 -18.5 1t-12.5 15q-10 20 -12 43t-4 45z" />
<glyph unicode="1" d="M92 -129h74l2 199l39 -199h57l39 201l4 -201h72l-4 489h-84l-58 -307l-55 307h-80zM440 -129h76v240l86 -240h62v489h-76v-235l-84 235h-64v-489zM632 -658.5q1 27.5 1 48.5q0 31 15.5 54.5t53.5 18.5q35 -4 42.5 -28.5t7.5 -50.5h-29v20t-4 21q-4 16 -21.5 17t-25.5 -13 q-10 -12 -7 -39t3 -43q0 -14 -3 -39t9 -39q6 -14 23.5 -12t21.5 18q4 10 4 21.5v21.5h29q0 -29 -8.5 -57.5t-49.5 -28.5q-29 0 -42 16.5t-17 41t-3 52zM717 -39v-90h82v90h-82zM778 -645q0 20 1 40.5t7.5 36t20.5 24.5t41 7q25 -2 36 -13t16 -28.5t5 -37v-37.5v-38t-6 -37 t-19 -28.5t-38 -11.5q-29 0 -42.5 12.5t-17.5 30.5t-4 39.5v40.5zM782 1319v446h95q35 0 64.5 -7t45.5 -42q20 -39 17 -89t-37 -79q-25 -20 -60 -20h-63v-209h-62zM786 979v276h60v-297q0 -25 4 -56.5t33 -47.5q25 -8 40 -1t24 22.5t13.5 36t4.5 38.5q2 37 1 72t-1 72v161 h61v-204q0 -29 1 -65t-4 -70.5t-20.5 -62.5t-50.5 -40q-20 -8 -42.5 -8t-44 7t-39 21.5t-25.5 38.5q-10 23 -12.5 49.5t-2.5 57.5zM809 -690.5q0 -16.5 3 -29.5t13 -15q18 -10 27.5 -5t13.5 19t4 30.5v28.5q0 8 1 22.5t1 30t-3 28t-11 16.5q-25 14 -36 -1.5t-11 -31.5 q-2 -10 -1 -18.5t1 -16.5t-1 -24.5t-1 -33zM834 41q0 -31 3 -59.5t15 -57.5q16 -35 50 -50t69 -7q39 6 60.5 34.5t25.5 61.5q8 92 -58 162l-41 45q-12 12 -24 24.5t-19 32.5q-4 8 -4 19.5t3.5 22t10.5 16.5t19 6q12 -2 19.5 -13.5t9.5 -25.5t3 -29.5t1 -25.5l76 4 q0 45 -10.5 91t-53.5 64q-27 12 -53.5 10.5t-48 -14t-35.5 -34t-16 -50.5q-4 -29 1 -59.5t21 -52.5q6 -14 18.5 -24.5t22.5 -22.5q23 -29 50.5 -56.5t27.5 -68.5q0 -14 -3 -26.5t-18 -14.5q-10 -4 -18 1t-12 15q-10 20 -12.5 43t-4.5 45zM844 1573q16 0 31.5 -1t33.5 3 q23 6 29 23.5t6 39.5q2 25 -3 47.5t-32 30.5q-18 4 -33.5 3t-31.5 -1v-145zM864 -256h88v-23h-53v-75h43v-23h-43v-104h-35v225zM934 -766l4 227h33l41 -182l39 182h28l4 -227h-24l-2 168l-37 -168h-23l-34 168l-2 -168h-27zM971 -360q0 18 1 38.5t7 36t20.5 24.5t40.5 7 q23 -2 35 -13.5t17.5 -28.5t5.5 -36.5v-38.5q0 -18 -1 -37.5t-6.5 -37t-18.5 -28.5t-38 -11q-27 0 -40 12t-18 30.5t-5 41v41.5zM1000 -377.5q-1 -15.5 0 -33t5.5 -31t14.5 -17.5q18 -8 27.5 -1t12.5 21.5t3 31v28.5q0 8 1 22.5t1 30t-3 28.5t-11 17q-23 12 -36.5 -3 t-13.5 -33v-37q0 -8 -1 -23.5zM1049 1319v446h170v-47h-111v-145h90v-45h-90v-166h113v-43h-172zM1077 936l58 14q2 -20 5 -41.5t17 -36.5q14 -16 34.5 -18t37.5 12q18 16 16 43t-14 43q-10 12 -21.5 25.5t-27.5 23.5q-20 20 -46 41t-40 45q-14 20 -17.5 47t2.5 51.5 t22.5 43t41.5 26.5q25 6 55.5 4t52.5 -18q23 -16 30 -43t9 -53l-49 -17q-2 25 -11 51.5t-38 32.5q-20 4 -36.5 -7t-20.5 -34q-10 -35 17.5 -60.5t51.5 -45.5q29 -27 55.5 -54.5t34.5 -68.5q12 -51 -16.5 -93t-85.5 -42t-86 37t-31 92zM1093 49q-1 -33 3 -67q4 -29 15 -58.5 t36 -44.5q25 -16 60.5 -16t58.5 22l2 -14h65v254h-129v-72h49v-31.5t-3 -41t-14 -33t-32 -4.5q-12 4 -18 17t-8 28.5t-1 32t1 26.5v117q0 23 -1 52.5t5 53.5q16 23 39 21q25 -8 26 -31q4 -16 3 -34.5t-1 -39.5h82q0 20 -1 44t-5 46.5t-15.5 42t-31.5 31.5q-23 14 -53.5 15.5 t-57.5 -7.5q-35 -10 -50 -38.5t-21 -61.5q-4 -35 -3 -70.5t1 -70.5t-1 -68zM1118 -766l4 227h33l39 -182l41 182h33l2 -227h-23l-4 168l-39 -168h-20l-35 168l-4 -168h-27zM1128 -256q20 0 43 2t41 -8q12 -6 20.5 -22.5t9.5 -34t-6 -32t-24 -20.5l33 -110h-31l-32 104h-23 v-104h-31v225zM1151 473v229q12 0 26.5 1.5t30 -1t28.5 -6.5t21 -16q8 -20 6.5 -47t-18.5 -41q-14 -10 -30.5 -11t-32.5 -1v-107h-31zM1159 -279v-75q20 0 35.5 6t15.5 33t-14 31.5t-37 4.5zM1182 602h16t19 4q12 4 14 16.5t2 24.5q-2 29 -15.5 32t-35.5 3v-80zM1270 1319 v446q41 0 89 1t85 -19q25 -14 37 -45t12 -62.5t-13.5 -59.5t-39.5 -38l59 -223h-59l-60 211h-47v-211h-63zM1286 473v229h29v-206h59v-23h-88zM1305 -539h90v-20h-58v-74h47v-24h-47v-86h58v-23h-90v227zM1321 -256h115v-23h-41v-202h-33v202h-41v23zM1333 1573h30.5t33.5 4 q20 10 27.5 30.5t2.5 43.5q0 20 -5 36.5t-25 24.5q-16 8 -32.5 7t-31.5 -1v-145zM1350 -190h69l140 612h-78zM1350 811v444h172v-47h-111v-145h90v-45h-90v-166h111v-41h-172zM1397 473v229h88v-20h-60v-78h50v-22h-50v-86h60v-23h-88zM1417 -539q23 0 46.5 2t41.5 -8 q12 -8 19.5 -23.5t7.5 -31.5t-7 -30.5t-22 -20.5l33 -115h-31l-26 109h-25v-109h-37v227zM1452 -256h29v-98h59v98h33v-225h-33v104h-59v-104h-29v225zM1454 -559v-74q20 0 33.5 5t13.5 32q0 23 -13 30t-34 7zM1499 473l49 229h31l49 -229h-33l-10 59h-47l-10 -59h-29z M1540 555h41l-16 104zM1540 1442l57 16q2 -23 6.5 -44t18.5 -36q14 -14 35.5 -16t36.5 12q16 16 15 42t-13 46q-8 12 -20.5 23.5t-28.5 25.5q-20 18 -45 39t-39 43q-14 23 -18.5 49.5t1.5 51t21.5 44t42.5 25.5q25 6 55.5 4t50.5 -18q23 -16 31 -43t10 -53l-49 -15 q-2 23 -11 49.5t-38 34.5q-20 2 -37.5 -9t-22.5 -30q-6 -39 21 -65.5t53 -44.5q29 -27 54.5 -54.5t35.5 -64.5q10 -55 -18.5 -97t-85.5 -42q-55 0 -86 37t-33 90zM1563 -658.5q2 27.5 2 48.5q0 31 14 54.5t51 18.5q37 -4 44 -28.5t7 -50.5h-32q0 10 1 20t-3 21 q-4 16 -20.5 17t-27.5 -13q-10 -12 -8 -39t2 -43q0 -14 -2 -39t11 -39q8 -14 24 -12t21 18q4 10 3 21.5t-1 21.5h32q0 -29 -9 -57.5t-50 -28.5q-31 0 -43 16.5t-15 41t-1 52zM1593 283h66v-412h82v412h65v77h-213v-77zM1608 -256h88v-23h-56v-75h48v-23h-48v-86h56v-18h-88 v225zM1642 537l31 10q0 -12 4 -27.5t15 -21.5q16 -4 26.5 4t10.5 22q0 23 -20.5 40.5t-35.5 33.5q-23 16 -30 45t18 51q14 8 31.5 9.5t29.5 -3.5q16 -6 23.5 -22t9.5 -33l-26 -6q-2 10 -5.5 21.5t-13.5 21.5q-10 4 -20.5 0t-14.5 -18q-6 -16 7.5 -32t23.5 -26 q16 -12 30.5 -25.5t18.5 -35.5q8 -29 -7 -51.5t-44 -22.5t-44 18.5t-18 47.5zM1690 1087.5q-2 51.5 8 94.5q10 41 38.5 58t67.5 17q41 2 73 -12t46 -51q16 -45 12 -96t-4 -97q0 -29 1 -53t-5 -51q-8 -45 -38 -67.5t-77 -22.5q-100 0 -118 94q-4 23 -3 45.5t1 46.5 q0 43 -2 94.5zM1712 -539h33v-227h-33v227zM1751 1100.5q2 -37.5 2 -72.5v-80q0 -23 3 -49.5t26 -40.5q12 -6 29.5 -6t27.5 6q16 10 23.5 26.5t9.5 33.5q2 10 1 23t-1 24v157q0 18 -1 39t-18 35q-10 12 -25.5 16.5t-29.5 -0.5q-31 -8 -43 -43q-6 -31 -4 -68.5zM1767 -766 l50 227h30l49 -227h-28l-10 59h-50l-10 -59h-31zM1782 473v229h90v-20h-57v-78h47v-22h-47v-86h59v-23h-92zM1790 -256h86v-23h-59v-75h45v-23h-45v-104h-27v225zM1804 1595.5q-2 51.5 11 96.5q10 39 39.5 56t66.5 19t70.5 -12t46.5 -53q16 -41 15 -94.5t-1 -98.5 q0 -29 -1 -54t-7 -50q-19 -90 -117 -90q-100 0 -117 98q-4 20 -4 41v43q0 47 -2 98.5zM1812 -686h39l-18 104zM1847 -129h82v215h94v-215h82v489h-82v-202h-94v202h-82v-489zM1868 1609.5q4 -38.5 4 -71.5v-82q0 -23 2 -50.5t29 -39.5q27 -10 55 0q18 10 23.5 25.5t7.5 31.5 v207q0 18 -1 39t-18 35q-20 25 -53 14q-33 -2 -43 -39q-10 -31 -6 -69.5zM1894 -402.5q2 13.5 2 25.5v121h29v-100q0 -10 -1 -27.5t1 -35t8 -31t21 -13.5q16 0 23.5 13.5t10.5 31t2 34.5t-1 28v100h26v-102q0 -14 1 -33t-1 -37t-9.5 -32.5t-23.5 -20.5q-33 -10 -56 4t-30 47 q-4 14 -2 27.5zM1921 -539h29v-204h59v-23h-88v227zM1950 702h32l33 -167l37 167h25l-47 -229h-29zM1995 811v444h41l127 -297v297h55v-444h-43l-129 303v-303h-51zM2052 -256h31v-207h57v-18h-88v225zM2085 -539h29l36 -166l31 166h33l-53 -227h-25zM2105 473v229h31v-229 h-31zM2114 1319v446h40l125 -297v297h54v-446h-41l-129 303v-303h-49zM2161 -256h32v-207h58v-18h-90v225zM2165 -129h180v72h-98v143h77v72h-77v131h98v71h-180v-489zM2167 537l31 10q0 -12 4 -27.5t16 -21.5q14 -4 23.5 4t9.5 22q2 23 -17.5 40.5t-35.5 33.5 q-23 16 -31 45t16 51q31 16 64 6q16 -6 22 -22t8 -33l-26 -6q-2 10 -5 21.5t-14 21.5q-8 4 -19 0t-13 -18q-10 -16 5 -32t25 -26q14 -12 28.5 -25.5t18.5 -35.5q8 -29 -6 -51.5t-45 -22.5t-44 18.5t-15 47.5zM2236 -539h93v-20h-60v-74h47v-24h-47v-86h60v-23h-93v227z M2286 811v444h61v-403h113v-41h-174zM2306 473v229h33v-229h-33zM2329 -481l43 225h34l48 -225h-31l-10 55h-48l-12 -55h-24zM2351 -539q23 0 45.5 2t42.5 -8q12 -8 19.5 -23.5t7.5 -31.5t-6 -30.5t-21 -20.5l29 -115h-29l-29 109h-26v-109h-33v227zM2359 682v20h111v-20 h-39v-209h-29v209h-43zM2370 -401h40l-20 102zM2376 66h82v90h-82v-90zM2378 1319l94 446h59l95 -446h-58l-22 111h-90l-21 -111h-57zM2384 -559v-74q23 0 37 5t14 32q0 23 -14.5 30t-36.5 7zM2464 1475h76l-39 202zM2476 -256h21l65 -150v150h25v-225h-19l-65 151v-151h-27 v225zM2476 1255h57l68 -213l63 213h62q-29 -92 -62 -184l-28 -92q-6 -16 -5 -30.5t1 -26.5v-111h-62v92q0 16 2 33.5t-2 32.5q-8 45 -30 86zM2490 -700l31 6q0 -10 4 -24.5t15 -18.5q16 -10 26 -1t10 21q0 23 -20.5 41.5t-34.5 30.5q-20 20 -28.5 50t18.5 48q12 10 30.5 11 t30.5 -5q16 -4 22.5 -20.5t8.5 -30.5l-27 -10q-2 10 -4 22.5t-12 20.5q-12 4 -22.5 0t-14.5 -16q-8 -16 6.5 -31t26.5 -25q14 -16 28.5 -29.5t18.5 -35.5q8 -27 -6 -49.5t-43 -22.5q-31 0 -45.5 20.5t-18.5 47.5zM2503 -129h82v215h94v-215h82v489h-82v-202h-94v202h-82 v-489zM2626 -256q23 0 50 1t48 -15q20 -16 19 -47t-1 -54v-54.5t-24 -45.5q-18 -14 -45 -12t-47 2v225zM2634 -539h28v-227h-28v227zM2656 -279v-184q20 0 34.5 4t19.5 29v119q-2 25 -16.5 28.5t-37.5 3.5zM2673 1319v446h61v-403h115v-43h-176zM2695 -645q0 20 1 40.5 t8.5 36t21.5 24.5t41 7q25 -2 35 -13t14 -28.5t3 -37t-1 -37.5v-38t-5 -37t-17 -28.5t-37 -11.5q-27 0 -40.5 12.5t-18.5 30.5t-5 39.5v40.5zM2728 -690.5q0 -16.5 3 -29.5t13 -15q18 -10 28.5 -5t14.5 19t4 30.5v28.5q0 8 1 22.5t-1 30t-6 28t-12 16.5q-23 14 -32 -1.5 t-9 -31.5v-35q0 -8 -2 -24.5t-2 -33zM2761 811v63h57v-63h-57zM2761 1255h57l-18 -348h-23zM2810 -129h82v489h-82v-489zM2855 -539h20l66 -151v151h25v-227h-21l-66 156v-156h-24v227zM2941 -129h180v72h-98v417h-82v-489zM3146 -129h180v72h-98v417h-82v-489zM3322 41 q0 -31 3 -59.5t15 -57.5q16 -35 50 -50t69 -7q39 6 60.5 34.5t25.5 61.5q9 92 -57 162l-41 45l-24.5 24.5t-18.5 32.5q-4 8 -4 19.5t3 22t10 16.5t19 6q12 -2 19.5 -13.5t9.5 -25.5t3 -29.5t1 -25.5l76 4q0 45 -10 91t-53 64q-27 12 -53.5 10.5t-48 -14t-36 -34t-16.5 -50.5 q-4 -29 1 -59.5t21 -52.5q6 -14 18.5 -24.5t22.5 -22.5q23 -29 50.5 -56.5t27.5 -68.5q0 -14 -3 -26.5t-17 -14.5q-10 -4 -18.5 1t-12.5 15q-10 20 -12 43t-4 45z" />
<glyph unicode="2" d="M92 -129h74l2 199l39 -199h57l39 201l4 -201h72l-4 489h-84l-58 -307l-55 307h-80zM440 -129h76v240l86 -240h62v489h-76v-235l-84 235h-64v-489zM632 -658.5q1 27.5 1 48.5q0 31 15.5 54.5t53.5 18.5q35 -4 42.5 -28.5t7.5 -50.5h-29v20t-4 21q-4 16 -21.5 17t-25.5 -13 q-10 -12 -7 -39t3 -43q0 -14 -3 -39t9 -39q6 -14 23.5 -12t21.5 18q4 10 4 21.5v21.5h29q0 -29 -8.5 -57.5t-49.5 -28.5q-29 0 -42 16.5t-17 41t-3 52zM717 -39v-90h82v90h-82zM778 -645q0 20 1 40.5t7.5 36t20.5 24.5t41 7q25 -2 36 -13t16 -28.5t5 -37v-37.5v-38t-6 -37 t-19 -28.5t-38 -11.5q-29 0 -42.5 12.5t-17.5 30.5t-4 39.5v40.5zM782 1319v446h95q35 0 64.5 -7t45.5 -42q20 -39 17 -89t-37 -79q-25 -20 -60 -20h-63v-209h-62zM786 979v276h60v-297q0 -25 4 -56.5t33 -47.5q25 -8 40 -1t24 22.5t13.5 36t4.5 38.5q2 37 1 72t-1 72v161 h61v-204q0 -29 1 -65t-4 -70.5t-20.5 -62.5t-50.5 -40q-20 -8 -42.5 -8t-44 7t-39 21.5t-25.5 38.5q-10 23 -12.5 49.5t-2.5 57.5zM809 -690.5q0 -16.5 3 -29.5t13 -15q18 -10 27.5 -5t13.5 19t4 30.5v28.5q0 8 1 22.5t1 30t-3 28t-11 16.5q-25 14 -36 -1.5t-11 -31.5 q-2 -10 -1 -18.5t1 -16.5t-1 -24.5t-1 -33zM834 41q0 -31 3 -59.5t15 -57.5q16 -35 50 -50t69 -7q39 6 60.5 34.5t25.5 61.5q8 92 -58 162l-41 45q-12 12 -24 24.5t-19 32.5q-4 8 -4 19.5t3.5 22t10.5 16.5t19 6q12 -2 19.5 -13.5t9.5 -25.5t3 -29.5t1 -25.5l76 4 q0 45 -10.5 91t-53.5 64q-27 12 -53.5 10.5t-48 -14t-35.5 -34t-16 -50.5q-4 -29 1 -59.5t21 -52.5q6 -14 18.5 -24.5t22.5 -22.5q23 -29 50.5 -56.5t27.5 -68.5q0 -14 -3 -26.5t-18 -14.5q-10 -4 -18 1t-12 15q-10 20 -12.5 43t-4.5 45zM844 1573q16 0 31.5 -1t33.5 3 q23 6 29 23.5t6 39.5q2 25 -3 47.5t-32 30.5q-18 4 -33.5 3t-31.5 -1v-145zM864 -256h88v-23h-53v-75h43v-23h-43v-104h-35v225zM934 -766l4 227h33l41 -182l39 182h28l4 -227h-24l-2 168l-37 -168h-23l-34 168l-2 -168h-27zM971 -360q0 18 1 38.5t7 36t20.5 24.5t40.5 7 q23 -2 35 -13.5t17.5 -28.5t5.5 -36.5v-38.5q0 -18 -1 -37.5t-6.5 -37t-18.5 -28.5t-38 -11q-27 0 -40 12t-18 30.5t-5 41v41.5zM1000 -377.5q-1 -15.5 0 -33t5.5 -31t14.5 -17.5q18 -8 27.5 -1t12.5 21.5t3 31v28.5q0 8 1 22.5t1 30t-3 28.5t-11 17q-23 12 -36.5 -3 t-13.5 -33v-37q0 -8 -1 -23.5zM1049 1319v446h170v-47h-111v-145h90v-45h-90v-166h113v-43h-172zM1077 936l58 14q2 -20 5 -41.5t17 -36.5q14 -16 34.5 -18t37.5 12q18 16 16 43t-14 43q-10 12 -21.5 25.5t-27.5 23.5q-20 20 -46 41t-40 45q-14 20 -17.5 47t2.5 51.5 t22.5 43t41.5 26.5q25 6 55.5 4t52.5 -18q23 -16 30 -43t9 -53l-49 -17q-2 25 -11 51.5t-38 32.5q-20 4 -36.5 -7t-20.5 -34q-10 -35 17.5 -60.5t51.5 -45.5q29 -27 55.5 -54.5t34.5 -68.5q12 -51 -16.5 -93t-85.5 -42t-86 37t-31 92zM1093 49q-1 -33 3 -67q4 -29 15 -58.5 t36 -44.5q25 -16 60.5 -16t58.5 22l2 -14h65v254h-129v-72h49v-31.5t-3 -41t-14 -33t-32 -4.5q-12 4 -18 17t-8 28.5t-1 32t1 26.5v117q0 23 -1 52.5t5 53.5q16 23 39 21q25 -8 26 -31q4 -16 3 -34.5t-1 -39.5h82q0 20 -1 44t-5 46.5t-15.5 42t-31.5 31.5q-23 14 -53.5 15.5 t-57.5 -7.5q-35 -10 -50 -38.5t-21 -61.5q-4 -35 -3 -70.5t1 -70.5t-1 -68zM1118 -766l4 227h33l39 -182l41 182h33l2 -227h-23l-4 168l-39 -168h-20l-35 168l-4 -168h-27zM1128 -256q20 0 43 2t41 -8q12 -6 20.5 -22.5t9.5 -34t-6 -32t-24 -20.5l33 -110h-31l-32 104h-23 v-104h-31v225zM1151 473v229q12 0 26.5 1.5t30 -1t28.5 -6.5t21 -16q8 -20 6.5 -47t-18.5 -41q-14 -10 -30.5 -11t-32.5 -1v-107h-31zM1159 -279v-75q20 0 35.5 6t15.5 33t-14 31.5t-37 4.5zM1182 602h16t19 4q12 4 14 16.5t2 24.5q-2 29 -15.5 32t-35.5 3v-80zM1270 1319 v446q41 0 89 1t85 -19q25 -14 37 -45t12 -62.5t-13.5 -59.5t-39.5 -38l59 -223h-59l-60 211h-47v-211h-63zM1286 473v229h29v-206h59v-23h-88zM1305 -539h90v-20h-58v-74h47v-24h-47v-86h58v-23h-90v227zM1321 -256h115v-23h-41v-202h-33v202h-41v23zM1333 1573h30.5t33.5 4 q20 10 27.5 30.5t2.5 43.5q0 20 -5 36.5t-25 24.5q-16 8 -32.5 7t-31.5 -1v-145zM1350 -190h69l140 612h-78zM1350 811v444h172v-47h-111v-145h90v-45h-90v-166h111v-41h-172zM1397 473v229h88v-20h-60v-78h50v-22h-50v-86h60v-23h-88zM1417 -539q23 0 46.5 2t41.5 -8 q12 -8 19.5 -23.5t7.5 -31.5t-7 -30.5t-22 -20.5l33 -115h-31l-26 109h-25v-109h-37v227zM1452 -256h29v-98h59v98h33v-225h-33v104h-59v-104h-29v225zM1454 -559v-74q20 0 33.5 5t13.5 32q0 23 -13 30t-34 7zM1499 473l49 229h31l49 -229h-33l-10 59h-47l-10 -59h-29z M1540 555h41l-16 104zM1540 1442l57 16q2 -23 6.5 -44t18.5 -36q14 -14 35.5 -16t36.5 12q16 16 15 42t-13 46q-8 12 -20.5 23.5t-28.5 25.5q-20 18 -45 39t-39 43q-14 23 -18.5 49.5t1.5 51t21.5 44t42.5 25.5q25 6 55.5 4t50.5 -18q23 -16 31 -43t10 -53l-49 -15 q-2 23 -11 49.5t-38 34.5q-20 2 -37.5 -9t-22.5 -30q-6 -39 21 -65.5t53 -44.5q29 -27 54.5 -54.5t35.5 -64.5q10 -55 -18.5 -97t-85.5 -42q-55 0 -86 37t-33 90zM1563 -658.5q2 27.5 2 48.5q0 31 14 54.5t51 18.5q37 -4 44 -28.5t7 -50.5h-32q0 10 1 20t-3 21 q-4 16 -20.5 17t-27.5 -13q-10 -12 -8 -39t2 -43q0 -14 -2 -39t11 -39q8 -14 24 -12t21 18q4 10 3 21.5t-1 21.5h32q0 -29 -9 -57.5t-50 -28.5q-31 0 -43 16.5t-15 41t-1 52zM1593 283h66v-412h82v412h65v77h-213v-77zM1608 -256h88v-23h-56v-75h48v-23h-48v-86h56v-18h-88 v225zM1642 537l31 10q0 -12 4 -27.5t15 -21.5q16 -4 26.5 4t10.5 22q0 23 -20.5 40.5t-35.5 33.5q-23 16 -30 45t18 51q14 8 31.5 9.5t29.5 -3.5q16 -6 23.5 -22t9.5 -33l-26 -6q-2 10 -5.5 21.5t-13.5 21.5q-10 4 -20.5 0t-14.5 -18q-6 -16 7.5 -32t23.5 -26 q16 -12 30.5 -25.5t18.5 -35.5q8 -29 -7 -51.5t-44 -22.5t-44 18.5t-18 47.5zM1690 1087.5q-2 51.5 8 94.5q10 41 38.5 58t67.5 17q41 2 73 -12t46 -51q16 -45 12 -96t-4 -97q0 -29 1 -53t-5 -51q-8 -45 -38 -67.5t-77 -22.5q-100 0 -118 94q-4 23 -3 45.5t1 46.5 q0 43 -2 94.5zM1712 -539h33v-227h-33v227zM1751 1100.5q2 -37.5 2 -72.5v-80q0 -23 3 -49.5t26 -40.5q12 -6 29.5 -6t27.5 6q16 10 23.5 26.5t9.5 33.5q2 10 1 23t-1 24v157q0 18 -1 39t-18 35q-10 12 -25.5 16.5t-29.5 -0.5q-31 -8 -43 -43q-6 -31 -4 -68.5zM1767 -766 l50 227h30l49 -227h-28l-10 59h-50l-10 -59h-31zM1782 473v229h90v-20h-57v-78h47v-22h-47v-86h59v-23h-92zM1790 -256h86v-23h-59v-75h45v-23h-45v-104h-27v225zM1804 1595.5q-2 51.5 11 96.5q10 39 39.5 56t66.5 19t70.5 -12t46.5 -53q16 -41 15 -94.5t-1 -98.5 q0 -29 -1 -54t-7 -50q-19 -90 -117 -90q-100 0 -117 98q-4 20 -4 41v43q0 47 -2 98.5zM1812 -686h39l-18 104zM1847 -129h82v215h94v-215h82v489h-82v-202h-94v202h-82v-489zM1868 1609.5q4 -38.5 4 -71.5v-82q0 -23 2 -50.5t29 -39.5q27 -10 55 0q18 10 23.5 25.5t7.5 31.5 v207q0 18 -1 39t-18 35q-20 25 -53 14q-33 -2 -43 -39q-10 -31 -6 -69.5zM1894 -402.5q2 13.5 2 25.5v121h29v-100q0 -10 -1 -27.5t1 -35t8 -31t21 -13.5q16 0 23.5 13.5t10.5 31t2 34.5t-1 28v100h26v-102q0 -14 1 -33t-1 -37t-9.5 -32.5t-23.5 -20.5q-33 -10 -56 4t-30 47 q-4 14 -2 27.5zM1921 -539h29v-204h59v-23h-88v227zM1950 702h32l33 -167l37 167h25l-47 -229h-29zM1995 811v444h41l127 -297v297h55v-444h-43l-129 303v-303h-51zM2052 -256h31v-207h57v-18h-88v225zM2085 -539h29l36 -166l31 166h33l-53 -227h-25zM2105 473v229h31v-229 h-31zM2114 1319v446h40l125 -297v297h54v-446h-41l-129 303v-303h-49zM2161 -256h32v-207h58v-18h-90v225zM2165 -129h180v72h-98v143h77v72h-77v131h98v71h-180v-489zM2167 537l31 10q0 -12 4 -27.5t16 -21.5q14 -4 23.5 4t9.5 22q2 23 -17.5 40.5t-35.5 33.5 q-23 16 -31 45t16 51q31 16 64 6q16 -6 22 -22t8 -33l-26 -6q-2 10 -5 21.5t-14 21.5q-8 4 -19 0t-13 -18q-10 -16 5 -32t25 -26q14 -12 28.5 -25.5t18.5 -35.5q8 -29 -6 -51.5t-45 -22.5t-44 18.5t-15 47.5zM2236 -539h93v-20h-60v-74h47v-24h-47v-86h60v-23h-93v227z M2286 811v444h61v-403h113v-41h-174zM2306 473v229h33v-229h-33zM2329 -481l43 225h34l48 -225h-31l-10 55h-48l-12 -55h-24zM2351 -539q23 0 45.5 2t42.5 -8q12 -8 19.5 -23.5t7.5 -31.5t-6 -30.5t-21 -20.5l29 -115h-29l-29 109h-26v-109h-33v227zM2359 682v20h111v-20 h-39v-209h-29v209h-43zM2370 -401h40l-20 102zM2376 66h82v90h-82v-90zM2378 1319l94 446h59l95 -446h-58l-22 111h-90l-21 -111h-57zM2384 -559v-74q23 0 37 5t14 32q0 23 -14.5 30t-36.5 7zM2464 1475h76l-39 202zM2476 -256h21l65 -150v150h25v-225h-19l-65 151v-151h-27 v225zM2476 1255h57l68 -213l63 213h62q-29 -92 -62 -184l-28 -92q-6 -16 -5 -30.5t1 -26.5v-111h-62v92q0 16 2 33.5t-2 32.5q-8 45 -30 86zM2490 -700l31 6q0 -10 4 -24.5t15 -18.5q16 -10 26 -1t10 21q0 23 -20.5 41.5t-34.5 30.5q-20 20 -28.5 50t18.5 48q12 10 30.5 11 t30.5 -5q16 -4 22.5 -20.5t8.5 -30.5l-27 -10q-2 10 -4 22.5t-12 20.5q-12 4 -22.5 0t-14.5 -16q-8 -16 6.5 -31t26.5 -25q14 -16 28.5 -29.5t18.5 -35.5q8 -27 -6 -49.5t-43 -22.5q-31 0 -45.5 20.5t-18.5 47.5zM2503 -129h82v215h94v-215h82v489h-82v-202h-94v202h-82 v-489zM2626 -256q23 0 50 1t48 -15q20 -16 19 -47t-1 -54v-54.5t-24 -45.5q-18 -14 -45 -12t-47 2v225zM2634 -539h28v-227h-28v227zM2656 -279v-184q20 0 34.5 4t19.5 29v119q-2 25 -16.5 28.5t-37.5 3.5zM2673 1319v446h61v-403h115v-43h-176zM2695 -645q0 20 1 40.5 t8.5 36t21.5 24.5t41 7q25 -2 35 -13t14 -28.5t3 -37t-1 -37.5v-38t-5 -37t-17 -28.5t-37 -11.5q-27 0 -40.5 12.5t-18.5 30.5t-5 39.5v40.5zM2728 -690.5q0 -16.5 3 -29.5t13 -15q18 -10 28.5 -5t14.5 19t4 30.5v28.5q0 8 1 22.5t-1 30t-6 28t-12 16.5q-23 14 -32 -1.5 t-9 -31.5v-35q0 -8 -2 -24.5t-2 -33zM2761 811v63h57v-63h-57zM2761 1255h57l-18 -348h-23zM2810 -129h82v489h-82v-489zM2855 -539h20l66 -151v151h25v-227h-21l-66 156v-156h-24v227zM2941 -129h180v72h-98v417h-82v-489zM3146 -129h180v72h-98v417h-82v-489zM3322 41 q0 -31 3 -59.5t15 -57.5q16 -35 50 -50t69 -7q39 6 60.5 34.5t25.5 61.5q9 92 -57 162l-41 45l-24.5 24.5t-18.5 32.5q-4 8 -4 19.5t3 22t10 16.5t19 6q12 -2 19.5 -13.5t9.5 -25.5t3 -29.5t1 -25.5l76 4q0 45 -10 91t-53 64q-27 12 -53.5 10.5t-48 -14t-36 -34t-16.5 -50.5 q-4 -29 1 -59.5t21 -52.5q6 -14 18.5 -24.5t22.5 -22.5q23 -29 50.5 -56.5t27.5 -68.5q0 -14 -3 -26.5t-17 -14.5q-10 -4 -18.5 1t-12.5 15q-10 20 -12 43t-4 45z" />
<glyph unicode="3" d="M92 -129h74l2 199l39 -199h57l39 201l4 -201h72l-4 489h-84l-58 -307l-55 307h-80zM440 -129h76v240l86 -240h62v489h-76v-235l-84 235h-64v-489zM632 -658.5q1 27.5 1 48.5q0 31 15.5 54.5t53.5 18.5q35 -4 42.5 -28.5t7.5 -50.5h-29v20t-4 21q-4 16 -21.5 17t-25.5 -13 q-10 -12 -7 -39t3 -43q0 -14 -3 -39t9 -39q6 -14 23.5 -12t21.5 18q4 10 4 21.5v21.5h29q0 -29 -8.5 -57.5t-49.5 -28.5q-29 0 -42 16.5t-17 41t-3 52zM717 -39v-90h82v90h-82zM778 -645q0 20 1 40.5t7.5 36t20.5 24.5t41 7q25 -2 36 -13t16 -28.5t5 -37v-37.5v-38t-6 -37 t-19 -28.5t-38 -11.5q-29 0 -42.5 12.5t-17.5 30.5t-4 39.5v40.5zM782 1319v446h95q35 0 64.5 -7t45.5 -42q20 -39 17 -89t-37 -79q-25 -20 -60 -20h-63v-209h-62zM786 979v276h60v-297q0 -25 4 -56.5t33 -47.5q25 -8 40 -1t24 22.5t13.5 36t4.5 38.5q2 37 1 72t-1 72v161 h61v-204q0 -29 1 -65t-4 -70.5t-20.5 -62.5t-50.5 -40q-20 -8 -42.5 -8t-44 7t-39 21.5t-25.5 38.5q-10 23 -12.5 49.5t-2.5 57.5zM809 -690.5q0 -16.5 3 -29.5t13 -15q18 -10 27.5 -5t13.5 19t4 30.5v28.5q0 8 1 22.5t1 30t-3 28t-11 16.5q-25 14 -36 -1.5t-11 -31.5 q-2 -10 -1 -18.5t1 -16.5t-1 -24.5t-1 -33zM834 41q0 -31 3 -59.5t15 -57.5q16 -35 50 -50t69 -7q39 6 60.5 34.5t25.5 61.5q8 92 -58 162l-41 45q-12 12 -24 24.5t-19 32.5q-4 8 -4 19.5t3.5 22t10.5 16.5t19 6q12 -2 19.5 -13.5t9.5 -25.5t3 -29.5t1 -25.5l76 4 q0 45 -10.5 91t-53.5 64q-27 12 -53.5 10.5t-48 -14t-35.5 -34t-16 -50.5q-4 -29 1 -59.5t21 -52.5q6 -14 18.5 -24.5t22.5 -22.5q23 -29 50.5 -56.5t27.5 -68.5q0 -14 -3 -26.5t-18 -14.5q-10 -4 -18 1t-12 15q-10 20 -12.5 43t-4.5 45zM844 1573q16 0 31.5 -1t33.5 3 q23 6 29 23.5t6 39.5q2 25 -3 47.5t-32 30.5q-18 4 -33.5 3t-31.5 -1v-145zM864 -256h88v-23h-53v-75h43v-23h-43v-104h-35v225zM934 -766l4 227h33l41 -182l39 182h28l4 -227h-24l-2 168l-37 -168h-23l-34 168l-2 -168h-27zM971 -360q0 18 1 38.5t7 36t20.5 24.5t40.5 7 q23 -2 35 -13.5t17.5 -28.5t5.5 -36.5v-38.5q0 -18 -1 -37.5t-6.5 -37t-18.5 -28.5t-38 -11q-27 0 -40 12t-18 30.5t-5 41v41.5zM1000 -377.5q-1 -15.5 0 -33t5.5 -31t14.5 -17.5q18 -8 27.5 -1t12.5 21.5t3 31v28.5q0 8 1 22.5t1 30t-3 28.5t-11 17q-23 12 -36.5 -3 t-13.5 -33v-37q0 -8 -1 -23.5zM1049 1319v446h170v-47h-111v-145h90v-45h-90v-166h113v-43h-172zM1077 936l58 14q2 -20 5 -41.5t17 -36.5q14 -16 34.5 -18t37.5 12q18 16 16 43t-14 43q-10 12 -21.5 25.5t-27.5 23.5q-20 20 -46 41t-40 45q-14 20 -17.5 47t2.5 51.5 t22.5 43t41.5 26.5q25 6 55.5 4t52.5 -18q23 -16 30 -43t9 -53l-49 -17q-2 25 -11 51.5t-38 32.5q-20 4 -36.5 -7t-20.5 -34q-10 -35 17.5 -60.5t51.5 -45.5q29 -27 55.5 -54.5t34.5 -68.5q12 -51 -16.5 -93t-85.5 -42t-86 37t-31 92zM1093 49q-1 -33 3 -67q4 -29 15 -58.5 t36 -44.5q25 -16 60.5 -16t58.5 22l2 -14h65v254h-129v-72h49v-31.5t-3 -41t-14 -33t-32 -4.5q-12 4 -18 17t-8 28.5t-1 32t1 26.5v117q0 23 -1 52.5t5 53.5q16 23 39 21q25 -8 26 -31q4 -16 3 -34.5t-1 -39.5h82q0 20 -1 44t-5 46.5t-15.5 42t-31.5 31.5q-23 14 -53.5 15.5 t-57.5 -7.5q-35 -10 -50 -38.5t-21 -61.5q-4 -35 -3 -70.5t1 -70.5t-1 -68zM1118 -766l4 227h33l39 -182l41 182h33l2 -227h-23l-4 168l-39 -168h-20l-35 168l-4 -168h-27zM1128 -256q20 0 43 2t41 -8q12 -6 20.5 -22.5t9.5 -34t-6 -32t-24 -20.5l33 -110h-31l-32 104h-23 v-104h-31v225zM1151 473v229q12 0 26.5 1.5t30 -1t28.5 -6.5t21 -16q8 -20 6.5 -47t-18.5 -41q-14 -10 -30.5 -11t-32.5 -1v-107h-31zM1159 -279v-75q20 0 35.5 6t15.5 33t-14 31.5t-37 4.5zM1182 602h16t19 4q12 4 14 16.5t2 24.5q-2 29 -15.5 32t-35.5 3v-80zM1270 1319 v446q41 0 89 1t85 -19q25 -14 37 -45t12 -62.5t-13.5 -59.5t-39.5 -38l59 -223h-59l-60 211h-47v-211h-63zM1286 473v229h29v-206h59v-23h-88zM1305 -539h90v-20h-58v-74h47v-24h-47v-86h58v-23h-90v227zM1321 -256h115v-23h-41v-202h-33v202h-41v23zM1333 1573h30.5t33.5 4 q20 10 27.5 30.5t2.5 43.5q0 20 -5 36.5t-25 24.5q-16 8 -32.5 7t-31.5 -1v-145zM1350 -190h69l140 612h-78zM1350 811v444h172v-47h-111v-145h90v-45h-90v-166h111v-41h-172zM1397 473v229h88v-20h-60v-78h50v-22h-50v-86h60v-23h-88zM1417 -539q23 0 46.5 2t41.5 -8 q12 -8 19.5 -23.5t7.5 -31.5t-7 -30.5t-22 -20.5l33 -115h-31l-26 109h-25v-109h-37v227zM1452 -256h29v-98h59v98h33v-225h-33v104h-59v-104h-29v225zM1454 -559v-74q20 0 33.5 5t13.5 32q0 23 -13 30t-34 7zM1499 473l49 229h31l49 -229h-33l-10 59h-47l-10 -59h-29z M1540 555h41l-16 104zM1540 1442l57 16q2 -23 6.5 -44t18.5 -36q14 -14 35.5 -16t36.5 12q16 16 15 42t-13 46q-8 12 -20.5 23.5t-28.5 25.5q-20 18 -45 39t-39 43q-14 23 -18.5 49.5t1.5 51t21.5 44t42.5 25.5q25 6 55.5 4t50.5 -18q23 -16 31 -43t10 -53l-49 -15 q-2 23 -11 49.5t-38 34.5q-20 2 -37.5 -9t-22.5 -30q-6 -39 21 -65.5t53 -44.5q29 -27 54.5 -54.5t35.5 -64.5q10 -55 -18.5 -97t-85.5 -42q-55 0 -86 37t-33 90zM1563 -658.5q2 27.5 2 48.5q0 31 14 54.5t51 18.5q37 -4 44 -28.5t7 -50.5h-32q0 10 1 20t-3 21 q-4 16 -20.5 17t-27.5 -13q-10 -12 -8 -39t2 -43q0 -14 -2 -39t11 -39q8 -14 24 -12t21 18q4 10 3 21.5t-1 21.5h32q0 -29 -9 -57.5t-50 -28.5q-31 0 -43 16.5t-15 41t-1 52zM1593 283h66v-412h82v412h65v77h-213v-77zM1608 -256h88v-23h-56v-75h48v-23h-48v-86h56v-18h-88 v225zM1642 537l31 10q0 -12 4 -27.5t15 -21.5q16 -4 26.5 4t10.5 22q0 23 -20.5 40.5t-35.5 33.5q-23 16 -30 45t18 51q14 8 31.5 9.5t29.5 -3.5q16 -6 23.5 -22t9.5 -33l-26 -6q-2 10 -5.5 21.5t-13.5 21.5q-10 4 -20.5 0t-14.5 -18q-6 -16 7.5 -32t23.5 -26 q16 -12 30.5 -25.5t18.5 -35.5q8 -29 -7 -51.5t-44 -22.5t-44 18.5t-18 47.5zM1690 1087.5q-2 51.5 8 94.5q10 41 38.5 58t67.5 17q41 2 73 -12t46 -51q16 -45 12 -96t-4 -97q0 -29 1 -53t-5 -51q-8 -45 -38 -67.5t-77 -22.5q-100 0 -118 94q-4 23 -3 45.5t1 46.5 q0 43 -2 94.5zM1712 -539h33v-227h-33v227zM1751 1100.5q2 -37.5 2 -72.5v-80q0 -23 3 -49.5t26 -40.5q12 -6 29.5 -6t27.5 6q16 10 23.5 26.5t9.5 33.5q2 10 1 23t-1 24v157q0 18 -1 39t-18 35q-10 12 -25.5 16.5t-29.5 -0.5q-31 -8 -43 -43q-6 -31 -4 -68.5zM1767 -766 l50 227h30l49 -227h-28l-10 59h-50l-10 -59h-31zM1782 473v229h90v-20h-57v-78h47v-22h-47v-86h59v-23h-92zM1790 -256h86v-23h-59v-75h45v-23h-45v-104h-27v225zM1804 1595.5q-2 51.5 11 96.5q10 39 39.5 56t66.5 19t70.5 -12t46.5 -53q16 -41 15 -94.5t-1 -98.5 q0 -29 -1 -54t-7 -50q-19 -90 -117 -90q-100 0 -117 98q-4 20 -4 41v43q0 47 -2 98.5zM1812 -686h39l-18 104zM1847 -129h82v215h94v-215h82v489h-82v-202h-94v202h-82v-489zM1868 1609.5q4 -38.5 4 -71.5v-82q0 -23 2 -50.5t29 -39.5q27 -10 55 0q18 10 23.5 25.5t7.5 31.5 v207q0 18 -1 39t-18 35q-20 25 -53 14q-33 -2 -43 -39q-10 -31 -6 -69.5zM1894 -402.5q2 13.5 2 25.5v121h29v-100q0 -10 -1 -27.5t1 -35t8 -31t21 -13.5q16 0 23.5 13.5t10.5 31t2 34.5t-1 28v100h26v-102q0 -14 1 -33t-1 -37t-9.5 -32.5t-23.5 -20.5q-33 -10 -56 4t-30 47 q-4 14 -2 27.5zM1921 -539h29v-204h59v-23h-88v227zM1950 702h32l33 -167l37 167h25l-47 -229h-29zM1995 811v444h41l127 -297v297h55v-444h-43l-129 303v-303h-51zM2052 -256h31v-207h57v-18h-88v225zM2085 -539h29l36 -166l31 166h33l-53 -227h-25zM2105 473v229h31v-229 h-31zM2114 1319v446h40l125 -297v297h54v-446h-41l-129 303v-303h-49zM2161 -256h32v-207h58v-18h-90v225zM2165 -129h180v72h-98v143h77v72h-77v131h98v71h-180v-489zM2167 537l31 10q0 -12 4 -27.5t16 -21.5q14 -4 23.5 4t9.5 22q2 23 -17.5 40.5t-35.5 33.5 q-23 16 -31 45t16 51q31 16 64 6q16 -6 22 -22t8 -33l-26 -6q-2 10 -5 21.5t-14 21.5q-8 4 -19 0t-13 -18q-10 -16 5 -32t25 -26q14 -12 28.5 -25.5t18.5 -35.5q8 -29 -6 -51.5t-45 -22.5t-44 18.5t-15 47.5zM2236 -539h93v-20h-60v-74h47v-24h-47v-86h60v-23h-93v227z M2286 811v444h61v-403h113v-41h-174zM2306 473v229h33v-229h-33zM2329 -481l43 225h34l48 -225h-31l-10 55h-48l-12 -55h-24zM2351 -539q23 0 45.5 2t42.5 -8q12 -8 19.5 -23.5t7.5 -31.5t-6 -30.5t-21 -20.5l29 -115h-29l-29 109h-26v-109h-33v227zM2359 682v20h111v-20 h-39v-209h-29v209h-43zM2370 -401h40l-20 102zM2376 66h82v90h-82v-90zM2378 1319l94 446h59l95 -446h-58l-22 111h-90l-21 -111h-57zM2384 -559v-74q23 0 37 5t14 32q0 23 -14.5 30t-36.5 7zM2464 1475h76l-39 202zM2476 -256h21l65 -150v150h25v-225h-19l-65 151v-151h-27 v225zM2476 1255h57l68 -213l63 213h62q-29 -92 -62 -184l-28 -92q-6 -16 -5 -30.5t1 -26.5v-111h-62v92q0 16 2 33.5t-2 32.5q-8 45 -30 86zM2490 -700l31 6q0 -10 4 -24.5t15 -18.5q16 -10 26 -1t10 21q0 23 -20.5 41.5t-34.5 30.5q-20 20 -28.5 50t18.5 48q12 10 30.5 11 t30.5 -5q16 -4 22.5 -20.5t8.5 -30.5l-27 -10q-2 10 -4 22.5t-12 20.5q-12 4 -22.5 0t-14.5 -16q-8 -16 6.5 -31t26.5 -25q14 -16 28.5 -29.5t18.5 -35.5q8 -27 -6 -49.5t-43 -22.5q-31 0 -45.5 20.5t-18.5 47.5zM2503 -129h82v215h94v-215h82v489h-82v-202h-94v202h-82 v-489zM2626 -256q23 0 50 1t48 -15q20 -16 19 -47t-1 -54v-54.5t-24 -45.5q-18 -14 -45 -12t-47 2v225zM2634 -539h28v-227h-28v227zM2656 -279v-184q20 0 34.5 4t19.5 29v119q-2 25 -16.5 28.5t-37.5 3.5zM2673 1319v446h61v-403h115v-43h-176zM2695 -645q0 20 1 40.5 t8.5 36t21.5 24.5t41 7q25 -2 35 -13t14 -28.5t3 -37t-1 -37.5v-38t-5 -37t-17 -28.5t-37 -11.5q-27 0 -40.5 12.5t-18.5 30.5t-5 39.5v40.5zM2728 -690.5q0 -16.5 3 -29.5t13 -15q18 -10 28.5 -5t14.5 19t4 30.5v28.5q0 8 1 22.5t-1 30t-6 28t-12 16.5q-23 14 -32 -1.5 t-9 -31.5v-35q0 -8 -2 -24.5t-2 -33zM2761 811v63h57v-63h-57zM2761 1255h57l-18 -348h-23zM2810 -129h82v489h-82v-489zM2855 -539h20l66 -151v151h25v-227h-21l-66 156v-156h-24v227zM2941 -129h180v72h-98v417h-82v-489zM3146 -129h180v72h-98v417h-82v-489zM3322 41 q0 -31 3 -59.5t15 -57.5q16 -35 50 -50t69 -7q39 6 60.5 34.5t25.5 61.5q9 92 -57 162l-41 45l-24.5 24.5t-18.5 32.5q-4 8 -4 19.5t3 22t10 16.5t19 6q12 -2 19.5 -13.5t9.5 -25.5t3 -29.5t1 -25.5l76 4q0 45 -10 91t-53 64q-27 12 -53.5 10.5t-48 -14t-36 -34t-16.5 -50.5 q-4 -29 1 -59.5t21 -52.5q6 -14 18.5 -24.5t22.5 -22.5q23 -29 50.5 -56.5t27.5 -68.5q0 -14 -3 -26.5t-17 -14.5q-10 -4 -18.5 1t-12.5 15q-10 20 -12 43t-4 45z" />
<glyph unicode="4" d="M92 -129h74l2 199l39 -199h57l39 201l4 -201h72l-4 489h-84l-58 -307l-55 307h-80zM440 -129h76v240l86 -240h62v489h-76v-235l-84 235h-64v-489zM632 -658.5q1 27.5 1 48.5q0 31 15.5 54.5t53.5 18.5q35 -4 42.5 -28.5t7.5 -50.5h-29v20t-4 21q-4 16 -21.5 17t-25.5 -13 q-10 -12 -7 -39t3 -43q0 -14 -3 -39t9 -39q6 -14 23.5 -12t21.5 18q4 10 4 21.5v21.5h29q0 -29 -8.5 -57.5t-49.5 -28.5q-29 0 -42 16.5t-17 41t-3 52zM717 -39v-90h82v90h-82zM778 -645q0 20 1 40.5t7.5 36t20.5 24.5t41 7q25 -2 36 -13t16 -28.5t5 -37v-37.5v-38t-6 -37 t-19 -28.5t-38 -11.5q-29 0 -42.5 12.5t-17.5 30.5t-4 39.5v40.5zM782 1319v446h95q35 0 64.5 -7t45.5 -42q20 -39 17 -89t-37 -79q-25 -20 -60 -20h-63v-209h-62zM786 979v276h60v-297q0 -25 4 -56.5t33 -47.5q25 -8 40 -1t24 22.5t13.5 36t4.5 38.5q2 37 1 72t-1 72v161 h61v-204q0 -29 1 -65t-4 -70.5t-20.5 -62.5t-50.5 -40q-20 -8 -42.5 -8t-44 7t-39 21.5t-25.5 38.5q-10 23 -12.5 49.5t-2.5 57.5zM809 -690.5q0 -16.5 3 -29.5t13 -15q18 -10 27.5 -5t13.5 19t4 30.5v28.5q0 8 1 22.5t1 30t-3 28t-11 16.5q-25 14 -36 -1.5t-11 -31.5 q-2 -10 -1 -18.5t1 -16.5t-1 -24.5t-1 -33zM834 41q0 -31 3 -59.5t15 -57.5q16 -35 50 -50t69 -7q39 6 60.5 34.5t25.5 61.5q8 92 -58 162l-41 45q-12 12 -24 24.5t-19 32.5q-4 8 -4 19.5t3.5 22t10.5 16.5t19 6q12 -2 19.5 -13.5t9.5 -25.5t3 -29.5t1 -25.5l76 4 q0 45 -10.5 91t-53.5 64q-27 12 -53.5 10.5t-48 -14t-35.5 -34t-16 -50.5q-4 -29 1 -59.5t21 -52.5q6 -14 18.5 -24.5t22.5 -22.5q23 -29 50.5 -56.5t27.5 -68.5q0 -14 -3 -26.5t-18 -14.5q-10 -4 -18 1t-12 15q-10 20 -12.5 43t-4.5 45zM844 1573q16 0 31.5 -1t33.5 3 q23 6 29 23.5t6 39.5q2 25 -3 47.5t-32 30.5q-18 4 -33.5 3t-31.5 -1v-145zM864 -256h88v-23h-53v-75h43v-23h-43v-104h-35v225zM934 -766l4 227h33l41 -182l39 182h28l4 -227h-24l-2 168l-37 -168h-23l-34 168l-2 -168h-27zM971 -360q0 18 1 38.5t7 36t20.5 24.5t40.5 7 q23 -2 35 -13.5t17.5 -28.5t5.5 -36.5v-38.5q0 -18 -1 -37.5t-6.5 -37t-18.5 -28.5t-38 -11q-27 0 -40 12t-18 30.5t-5 41v41.5zM1000 -377.5q-1 -15.5 0 -33t5.5 -31t14.5 -17.5q18 -8 27.5 -1t12.5 21.5t3 31v28.5q0 8 1 22.5t1 30t-3 28.5t-11 17q-23 12 -36.5 -3 t-13.5 -33v-37q0 -8 -1 -23.5zM1049 1319v446h170v-47h-111v-145h90v-45h-90v-166h113v-43h-172zM1077 936l58 14q2 -20 5 -41.5t17 -36.5q14 -16 34.5 -18t37.5 12q18 16 16 43t-14 43q-10 12 -21.5 25.5t-27.5 23.5q-20 20 -46 41t-40 45q-14 20 -17.5 47t2.5 51.5 t22.5 43t41.5 26.5q25 6 55.5 4t52.5 -18q23 -16 30 -43t9 -53l-49 -17q-2 25 -11 51.5t-38 32.5q-20 4 -36.5 -7t-20.5 -34q-10 -35 17.5 -60.5t51.5 -45.5q29 -27 55.5 -54.5t34.5 -68.5q12 -51 -16.5 -93t-85.5 -42t-86 37t-31 92zM1093 49q-1 -33 3 -67q4 -29 15 -58.5 t36 -44.5q25 -16 60.5 -16t58.5 22l2 -14h65v254h-129v-72h49v-31.5t-3 -41t-14 -33t-32 -4.5q-12 4 -18 17t-8 28.5t-1 32t1 26.5v117q0 23 -1 52.5t5 53.5q16 23 39 21q25 -8 26 -31q4 -16 3 -34.5t-1 -39.5h82q0 20 -1 44t-5 46.5t-15.5 42t-31.5 31.5q-23 14 -53.5 15.5 t-57.5 -7.5q-35 -10 -50 -38.5t-21 -61.5q-4 -35 -3 -70.5t1 -70.5t-1 -68zM1118 -766l4 227h33l39 -182l41 182h33l2 -227h-23l-4 168l-39 -168h-20l-35 168l-4 -168h-27zM1128 -256q20 0 43 2t41 -8q12 -6 20.5 -22.5t9.5 -34t-6 -32t-24 -20.5l33 -110h-31l-32 104h-23 v-104h-31v225zM1151 473v229q12 0 26.5 1.5t30 -1t28.5 -6.5t21 -16q8 -20 6.5 -47t-18.5 -41q-14 -10 -30.5 -11t-32.5 -1v-107h-31zM1159 -279v-75q20 0 35.5 6t15.5 33t-14 31.5t-37 4.5zM1182 602h16t19 4q12 4 14 16.5t2 24.5q-2 29 -15.5 32t-35.5 3v-80zM1270 1319 v446q41 0 89 1t85 -19q25 -14 37 -45t12 -62.5t-13.5 -59.5t-39.5 -38l59 -223h-59l-60 211h-47v-211h-63zM1286 473v229h29v-206h59v-23h-88zM1305 -539h90v-20h-58v-74h47v-24h-47v-86h58v-23h-90v227zM1321 -256h115v-23h-41v-202h-33v202h-41v23zM1333 1573h30.5t33.5 4 q20 10 27.5 30.5t2.5 43.5q0 20 -5 36.5t-25 24.5q-16 8 -32.5 7t-31.5 -1v-145zM1350 -190h69l140 612h-78zM1350 811v444h172v-47h-111v-145h90v-45h-90v-166h111v-41h-172zM1397 473v229h88v-20h-60v-78h50v-22h-50v-86h60v-23h-88zM1417 -539q23 0 46.5 2t41.5 -8 q12 -8 19.5 -23.5t7.5 -31.5t-7 -30.5t-22 -20.5l33 -115h-31l-26 109h-25v-109h-37v227zM1452 -256h29v-98h59v98h33v-225h-33v104h-59v-104h-29v225zM1454 -559v-74q20 0 33.5 5t13.5 32q0 23 -13 30t-34 7zM1499 473l49 229h31l49 -229h-33l-10 59h-47l-10 -59h-29z M1540 555h41l-16 104zM1540 1442l57 16q2 -23 6.5 -44t18.5 -36q14 -14 35.5 -16t36.5 12q16 16 15 42t-13 46q-8 12 -20.5 23.5t-28.5 25.5q-20 18 -45 39t-39 43q-14 23 -18.5 49.5t1.5 51t21.5 44t42.5 25.5q25 6 55.5 4t50.5 -18q23 -16 31 -43t10 -53l-49 -15 q-2 23 -11 49.5t-38 34.5q-20 2 -37.5 -9t-22.5 -30q-6 -39 21 -65.5t53 -44.5q29 -27 54.5 -54.5t35.5 -64.5q10 -55 -18.5 -97t-85.5 -42q-55 0 -86 37t-33 90zM1563 -658.5q2 27.5 2 48.5q0 31 14 54.5t51 18.5q37 -4 44 -28.5t7 -50.5h-32q0 10 1 20t-3 21 q-4 16 -20.5 17t-27.5 -13q-10 -12 -8 -39t2 -43q0 -14 -2 -39t11 -39q8 -14 24 -12t21 18q4 10 3 21.5t-1 21.5h32q0 -29 -9 -57.5t-50 -28.5q-31 0 -43 16.5t-15 41t-1 52zM1593 283h66v-412h82v412h65v77h-213v-77zM1608 -256h88v-23h-56v-75h48v-23h-48v-86h56v-18h-88 v225zM1642 537l31 10q0 -12 4 -27.5t15 -21.5q16 -4 26.5 4t10.5 22q0 23 -20.5 40.5t-35.5 33.5q-23 16 -30 45t18 51q14 8 31.5 9.5t29.5 -3.5q16 -6 23.5 -22t9.5 -33l-26 -6q-2 10 -5.5 21.5t-13.5 21.5q-10 4 -20.5 0t-14.5 -18q-6 -16 7.5 -32t23.5 -26 q16 -12 30.5 -25.5t18.5 -35.5q8 -29 -7 -51.5t-44 -22.5t-44 18.5t-18 47.5zM1690 1087.5q-2 51.5 8 94.5q10 41 38.5 58t67.5 17q41 2 73 -12t46 -51q16 -45 12 -96t-4 -97q0 -29 1 -53t-5 -51q-8 -45 -38 -67.5t-77 -22.5q-100 0 -118 94q-4 23 -3 45.5t1 46.5 q0 43 -2 94.5zM1712 -539h33v-227h-33v227zM1751 1100.5q2 -37.5 2 -72.5v-80q0 -23 3 -49.5t26 -40.5q12 -6 29.5 -6t27.5 6q16 10 23.5 26.5t9.5 33.5q2 10 1 23t-1 24v157q0 18 -1 39t-18 35q-10 12 -25.5 16.5t-29.5 -0.5q-31 -8 -43 -43q-6 -31 -4 -68.5zM1767 -766 l50 227h30l49 -227h-28l-10 59h-50l-10 -59h-31zM1782 473v229h90v-20h-57v-78h47v-22h-47v-86h59v-23h-92zM1790 -256h86v-23h-59v-75h45v-23h-45v-104h-27v225zM1804 1595.5q-2 51.5 11 96.5q10 39 39.5 56t66.5 19t70.5 -12t46.5 -53q16 -41 15 -94.5t-1 -98.5 q0 -29 -1 -54t-7 -50q-19 -90 -117 -90q-100 0 -117 98q-4 20 -4 41v43q0 47 -2 98.5zM1812 -686h39l-18 104zM1847 -129h82v215h94v-215h82v489h-82v-202h-94v202h-82v-489zM1868 1609.5q4 -38.5 4 -71.5v-82q0 -23 2 -50.5t29 -39.5q27 -10 55 0q18 10 23.5 25.5t7.5 31.5 v207q0 18 -1 39t-18 35q-20 25 -53 14q-33 -2 -43 -39q-10 -31 -6 -69.5zM1894 -402.5q2 13.5 2 25.5v121h29v-100q0 -10 -1 -27.5t1 -35t8 -31t21 -13.5q16 0 23.5 13.5t10.5 31t2 34.5t-1 28v100h26v-102q0 -14 1 -33t-1 -37t-9.5 -32.5t-23.5 -20.5q-33 -10 -56 4t-30 47 q-4 14 -2 27.5zM1921 -539h29v-204h59v-23h-88v227zM1950 702h32l33 -167l37 167h25l-47 -229h-29zM1995 811v444h41l127 -297v297h55v-444h-43l-129 303v-303h-51zM2052 -256h31v-207h57v-18h-88v225zM2085 -539h29l36 -166l31 166h33l-53 -227h-25zM2105 473v229h31v-229 h-31zM2114 1319v446h40l125 -297v297h54v-446h-41l-129 303v-303h-49zM2161 -256h32v-207h58v-18h-90v225zM2165 -129h180v72h-98v143h77v72h-77v131h98v71h-180v-489zM2167 537l31 10q0 -12 4 -27.5t16 -21.5q14 -4 23.5 4t9.5 22q2 23 -17.5 40.5t-35.5 33.5 q-23 16 -31 45t16 51q31 16 64 6q16 -6 22 -22t8 -33l-26 -6q-2 10 -5 21.5t-14 21.5q-8 4 -19 0t-13 -18q-10 -16 5 -32t25 -26q14 -12 28.5 -25.5t18.5 -35.5q8 -29 -6 -51.5t-45 -22.5t-44 18.5t-15 47.5zM2236 -539h93v-20h-60v-74h47v-24h-47v-86h60v-23h-93v227z M2286 811v444h61v-403h113v-41h-174zM2306 473v229h33v-229h-33zM2329 -481l43 225h34l48 -225h-31l-10 55h-48l-12 -55h-24zM2351 -539q23 0 45.5 2t42.5 -8q12 -8 19.5 -23.5t7.5 -31.5t-6 -30.5t-21 -20.5l29 -115h-29l-29 109h-26v-109h-33v227zM2359 682v20h111v-20 h-39v-209h-29v209h-43zM2370 -401h40l-20 102zM2376 66h82v90h-82v-90zM2378 1319l94 446h59l95 -446h-58l-22 111h-90l-21 -111h-57zM2384 -559v-74q23 0 37 5t14 32q0 23 -14.5 30t-36.5 7zM2464 1475h76l-39 202zM2476 -256h21l65 -150v150h25v-225h-19l-65 151v-151h-27 v225zM2476 1255h57l68 -213l63 213h62q-29 -92 -62 -184l-28 -92q-6 -16 -5 -30.5t1 -26.5v-111h-62v92q0 16 2 33.5t-2 32.5q-8 45 -30 86zM2490 -700l31 6q0 -10 4 -24.5t15 -18.5q16 -10 26 -1t10 21q0 23 -20.5 41.5t-34.5 30.5q-20 20 -28.5 50t18.5 48q12 10 30.5 11 t30.5 -5q16 -4 22.5 -20.5t8.5 -30.5l-27 -10q-2 10 -4 22.5t-12 20.5q-12 4 -22.5 0t-14.5 -16q-8 -16 6.5 -31t26.5 -25q14 -16 28.5 -29.5t18.5 -35.5q8 -27 -6 -49.5t-43 -22.5q-31 0 -45.5 20.5t-18.5 47.5zM2503 -129h82v215h94v-215h82v489h-82v-202h-94v202h-82 v-489zM2626 -256q23 0 50 1t48 -15q20 -16 19 -47t-1 -54v-54.5t-24 -45.5q-18 -14 -45 -12t-47 2v225zM2634 -539h28v-227h-28v227zM2656 -279v-184q20 0 34.5 4t19.5 29v119q-2 25 -16.5 28.5t-37.5 3.5zM2673 1319v446h61v-403h115v-43h-176zM2695 -645q0 20 1 40.5 t8.5 36t21.5 24.5t41 7q25 -2 35 -13t14 -28.5t3 -37t-1 -37.5v-38t-5 -37t-17 -28.5t-37 -11.5q-27 0 -40.5 12.5t-18.5 30.5t-5 39.5v40.5zM2728 -690.5q0 -16.5 3 -29.5t13 -15q18 -10 28.5 -5t14.5 19t4 30.5v28.5q0 8 1 22.5t-1 30t-6 28t-12 16.5q-23 14 -32 -1.5 t-9 -31.5v-35q0 -8 -2 -24.5t-2 -33zM2761 811v63h57v-63h-57zM2761 1255h57l-18 -348h-23zM2810 -129h82v489h-82v-489zM2855 -539h20l66 -151v151h25v-227h-21l-66 156v-156h-24v227zM2941 -129h180v72h-98v417h-82v-489zM3146 -129h180v72h-98v417h-82v-489zM3322 41 q0 -31 3 -59.5t15 -57.5q16 -35 50 -50t69 -7q39 6 60.5 34.5t25.5 61.5q9 92 -57 162l-41 45l-24.5 24.5t-18.5 32.5q-4 8 -4 19.5t3 22t10 16.5t19 6q12 -2 19.5 -13.5t9.5 -25.5t3 -29.5t1 -25.5l76 4q0 45 -10 91t-53 64q-27 12 -53.5 10.5t-48 -14t-36 -34t-16.5 -50.5 q-4 -29 1 -59.5t21 -52.5q6 -14 18.5 -24.5t22.5 -22.5q23 -29 50.5 -56.5t27.5 -68.5q0 -14 -3 -26.5t-17 -14.5q-10 -4 -18.5 1t-12.5 15q-10 20 -12 43t-4 45z" />
<glyph unicode="5" d="M92 -129h74l2 199l39 -199h57l39 201l4 -201h72l-4 489h-84l-58 -307l-55 307h-80zM440 -129h76v240l86 -240h62v489h-76v-235l-84 235h-64v-489zM632 -658.5q1 27.5 1 48.5q0 31 15.5 54.5t53.5 18.5q35 -4 42.5 -28.5t7.5 -50.5h-29v20t-4 21q-4 16 -21.5 17t-25.5 -13 q-10 -12 -7 -39t3 -43q0 -14 -3 -39t9 -39q6 -14 23.5 -12t21.5 18q4 10 4 21.5v21.5h29q0 -29 -8.5 -57.5t-49.5 -28.5q-29 0 -42 16.5t-17 41t-3 52zM717 -39v-90h82v90h-82zM778 -645q0 20 1 40.5t7.5 36t20.5 24.5t41 7q25 -2 36 -13t16 -28.5t5 -37v-37.5v-38t-6 -37 t-19 -28.5t-38 -11.5q-29 0 -42.5 12.5t-17.5 30.5t-4 39.5v40.5zM782 1319v446h95q35 0 64.5 -7t45.5 -42q20 -39 17 -89t-37 -79q-25 -20 -60 -20h-63v-209h-62zM786 979v276h60v-297q0 -25 4 -56.5t33 -47.5q25 -8 40 -1t24 22.5t13.5 36t4.5 38.5q2 37 1 72t-1 72v161 h61v-204q0 -29 1 -65t-4 -70.5t-20.5 -62.5t-50.5 -40q-20 -8 -42.5 -8t-44 7t-39 21.5t-25.5 38.5q-10 23 -12.5 49.5t-2.5 57.5zM809 -690.5q0 -16.5 3 -29.5t13 -15q18 -10 27.5 -5t13.5 19t4 30.5v28.5q0 8 1 22.5t1 30t-3 28t-11 16.5q-25 14 -36 -1.5t-11 -31.5 q-2 -10 -1 -18.5t1 -16.5t-1 -24.5t-1 -33zM834 41q0 -31 3 -59.5t15 -57.5q16 -35 50 -50t69 -7q39 6 60.5 34.5t25.5 61.5q8 92 -58 162l-41 45q-12 12 -24 24.5t-19 32.5q-4 8 -4 19.5t3.5 22t10.5 16.5t19 6q12 -2 19.5 -13.5t9.5 -25.5t3 -29.5t1 -25.5l76 4 q0 45 -10.5 91t-53.5 64q-27 12 -53.5 10.5t-48 -14t-35.5 -34t-16 -50.5q-4 -29 1 -59.5t21 -52.5q6 -14 18.5 -24.5t22.5 -22.5q23 -29 50.5 -56.5t27.5 -68.5q0 -14 -3 -26.5t-18 -14.5q-10 -4 -18 1t-12 15q-10 20 -12.5 43t-4.5 45zM844 1573q16 0 31.5 -1t33.5 3 q23 6 29 23.5t6 39.5q2 25 -3 47.5t-32 30.5q-18 4 -33.5 3t-31.5 -1v-145zM864 -256h88v-23h-53v-75h43v-23h-43v-104h-35v225zM934 -766l4 227h33l41 -182l39 182h28l4 -227h-24l-2 168l-37 -168h-23l-34 168l-2 -168h-27zM971 -360q0 18 1 38.5t7 36t20.5 24.5t40.5 7 q23 -2 35 -13.5t17.5 -28.5t5.5 -36.5v-38.5q0 -18 -1 -37.5t-6.5 -37t-18.5 -28.5t-38 -11q-27 0 -40 12t-18 30.5t-5 41v41.5zM1000 -377.5q-1 -15.5 0 -33t5.5 -31t14.5 -17.5q18 -8 27.5 -1t12.5 21.5t3 31v28.5q0 8 1 22.5t1 30t-3 28.5t-11 17q-23 12 -36.5 -3 t-13.5 -33v-37q0 -8 -1 -23.5zM1049 1319v446h170v-47h-111v-145h90v-45h-90v-166h113v-43h-172zM1077 936l58 14q2 -20 5 -41.5t17 -36.5q14 -16 34.5 -18t37.5 12q18 16 16 43t-14 43q-10 12 -21.5 25.5t-27.5 23.5q-20 20 -46 41t-40 45q-14 20 -17.5 47t2.5 51.5 t22.5 43t41.5 26.5q25 6 55.5 4t52.5 -18q23 -16 30 -43t9 -53l-49 -17q-2 25 -11 51.5t-38 32.5q-20 4 -36.5 -7t-20.5 -34q-10 -35 17.5 -60.5t51.5 -45.5q29 -27 55.5 -54.5t34.5 -68.5q12 -51 -16.5 -93t-85.5 -42t-86 37t-31 92zM1093 49q-1 -33 3 -67q4 -29 15 -58.5 t36 -44.5q25 -16 60.5 -16t58.5 22l2 -14h65v254h-129v-72h49v-31.5t-3 -41t-14 -33t-32 -4.5q-12 4 -18 17t-8 28.5t-1 32t1 26.5v117q0 23 -1 52.5t5 53.5q16 23 39 21q25 -8 26 -31q4 -16 3 -34.5t-1 -39.5h82q0 20 -1 44t-5 46.5t-15.5 42t-31.5 31.5q-23 14 -53.5 15.5 t-57.5 -7.5q-35 -10 -50 -38.5t-21 -61.5q-4 -35 -3 -70.5t1 -70.5t-1 -68zM1118 -766l4 227h33l39 -182l41 182h33l2 -227h-23l-4 168l-39 -168h-20l-35 168l-4 -168h-27zM1128 -256q20 0 43 2t41 -8q12 -6 20.5 -22.5t9.5 -34t-6 -32t-24 -20.5l33 -110h-31l-32 104h-23 v-104h-31v225zM1151 473v229q12 0 26.5 1.5t30 -1t28.5 -6.5t21 -16q8 -20 6.5 -47t-18.5 -41q-14 -10 -30.5 -11t-32.5 -1v-107h-31zM1159 -279v-75q20 0 35.5 6t15.5 33t-14 31.5t-37 4.5zM1182 602h16t19 4q12 4 14 16.5t2 24.5q-2 29 -15.5 32t-35.5 3v-80zM1270 1319 v446q41 0 89 1t85 -19q25 -14 37 -45t12 -62.5t-13.5 -59.5t-39.5 -38l59 -223h-59l-60 211h-47v-211h-63zM1286 473v229h29v-206h59v-23h-88zM1305 -539h90v-20h-58v-74h47v-24h-47v-86h58v-23h-90v227zM1321 -256h115v-23h-41v-202h-33v202h-41v23zM1333 1573h30.5t33.5 4 q20 10 27.5 30.5t2.5 43.5q0 20 -5 36.5t-25 24.5q-16 8 -32.5 7t-31.5 -1v-145zM1350 -190h69l140 612h-78zM1350 811v444h172v-47h-111v-145h90v-45h-90v-166h111v-41h-172zM1397 473v229h88v-20h-60v-78h50v-22h-50v-86h60v-23h-88zM1417 -539q23 0 46.5 2t41.5 -8 q12 -8 19.5 -23.5t7.5 -31.5t-7 -30.5t-22 -20.5l33 -115h-31l-26 109h-25v-109h-37v227zM1452 -256h29v-98h59v98h33v-225h-33v104h-59v-104h-29v225zM1454 -559v-74q20 0 33.5 5t13.5 32q0 23 -13 30t-34 7zM1499 473l49 229h31l49 -229h-33l-10 59h-47l-10 -59h-29z M1540 555h41l-16 104zM1540 1442l57 16q2 -23 6.5 -44t18.5 -36q14 -14 35.5 -16t36.5 12q16 16 15 42t-13 46q-8 12 -20.5 23.5t-28.5 25.5q-20 18 -45 39t-39 43q-14 23 -18.5 49.5t1.5 51t21.5 44t42.5 25.5q25 6 55.5 4t50.5 -18q23 -16 31 -43t10 -53l-49 -15 q-2 23 -11 49.5t-38 34.5q-20 2 -37.5 -9t-22.5 -30q-6 -39 21 -65.5t53 -44.5q29 -27 54.5 -54.5t35.5 -64.5q10 -55 -18.5 -97t-85.5 -42q-55 0 -86 37t-33 90zM1563 -658.5q2 27.5 2 48.5q0 31 14 54.5t51 18.5q37 -4 44 -28.5t7 -50.5h-32q0 10 1 20t-3 21 q-4 16 -20.5 17t-27.5 -13q-10 -12 -8 -39t2 -43q0 -14 -2 -39t11 -39q8 -14 24 -12t21 18q4 10 3 21.5t-1 21.5h32q0 -29 -9 -57.5t-50 -28.5q-31 0 -43 16.5t-15 41t-1 52zM1593 283h66v-412h82v412h65v77h-213v-77zM1608 -256h88v-23h-56v-75h48v-23h-48v-86h56v-18h-88 v225zM1642 537l31 10q0 -12 4 -27.5t15 -21.5q16 -4 26.5 4t10.5 22q0 23 -20.5 40.5t-35.5 33.5q-23 16 -30 45t18 51q14 8 31.5 9.5t29.5 -3.5q16 -6 23.5 -22t9.5 -33l-26 -6q-2 10 -5.5 21.5t-13.5 21.5q-10 4 -20.5 0t-14.5 -18q-6 -16 7.5 -32t23.5 -26 q16 -12 30.5 -25.5t18.5 -35.5q8 -29 -7 -51.5t-44 -22.5t-44 18.5t-18 47.5zM1690 1087.5q-2 51.5 8 94.5q10 41 38.5 58t67.5 17q41 2 73 -12t46 -51q16 -45 12 -96t-4 -97q0 -29 1 -53t-5 -51q-8 -45 -38 -67.5t-77 -22.5q-100 0 -118 94q-4 23 -3 45.5t1 46.5 q0 43 -2 94.5zM1712 -539h33v-227h-33v227zM1751 1100.5q2 -37.5 2 -72.5v-80q0 -23 3 -49.5t26 -40.5q12 -6 29.5 -6t27.5 6q16 10 23.5 26.5t9.5 33.5q2 10 1 23t-1 24v157q0 18 -1 39t-18 35q-10 12 -25.5 16.5t-29.5 -0.5q-31 -8 -43 -43q-6 -31 -4 -68.5zM1767 -766 l50 227h30l49 -227h-28l-10 59h-50l-10 -59h-31zM1782 473v229h90v-20h-57v-78h47v-22h-47v-86h59v-23h-92zM1790 -256h86v-23h-59v-75h45v-23h-45v-104h-27v225zM1804 1595.5q-2 51.5 11 96.5q10 39 39.5 56t66.5 19t70.5 -12t46.5 -53q16 -41 15 -94.5t-1 -98.5 q0 -29 -1 -54t-7 -50q-19 -90 -117 -90q-100 0 -117 98q-4 20 -4 41v43q0 47 -2 98.5zM1812 -686h39l-18 104zM1847 -129h82v215h94v-215h82v489h-82v-202h-94v202h-82v-489zM1868 1609.5q4 -38.5 4 -71.5v-82q0 -23 2 -50.5t29 -39.5q27 -10 55 0q18 10 23.5 25.5t7.5 31.5 v207q0 18 -1 39t-18 35q-20 25 -53 14q-33 -2 -43 -39q-10 -31 -6 -69.5zM1894 -402.5q2 13.5 2 25.5v121h29v-100q0 -10 -1 -27.5t1 -35t8 -31t21 -13.5q16 0 23.5 13.5t10.5 31t2 34.5t-1 28v100h26v-102q0 -14 1 -33t-1 -37t-9.5 -32.5t-23.5 -20.5q-33 -10 -56 4t-30 47 q-4 14 -2 27.5zM1921 -539h29v-204h59v-23h-88v227zM1950 702h32l33 -167l37 167h25l-47 -229h-29zM1995 811v444h41l127 -297v297h55v-444h-43l-129 303v-303h-51zM2052 -256h31v-207h57v-18h-88v225zM2085 -539h29l36 -166l31 166h33l-53 -227h-25zM2105 473v229h31v-229 h-31zM2114 1319v446h40l125 -297v297h54v-446h-41l-129 303v-303h-49zM2161 -256h32v-207h58v-18h-90v225zM2165 -129h180v72h-98v143h77v72h-77v131h98v71h-180v-489zM2167 537l31 10q0 -12 4 -27.5t16 -21.5q14 -4 23.5 4t9.5 22q2 23 -17.5 40.5t-35.5 33.5 q-23 16 -31 45t16 51q31 16 64 6q16 -6 22 -22t8 -33l-26 -6q-2 10 -5 21.5t-14 21.5q-8 4 -19 0t-13 -18q-10 -16 5 -32t25 -26q14 -12 28.5 -25.5t18.5 -35.5q8 -29 -6 -51.5t-45 -22.5t-44 18.5t-15 47.5zM2236 -539h93v-20h-60v-74h47v-24h-47v-86h60v-23h-93v227z M2286 811v444h61v-403h113v-41h-174zM2306 473v229h33v-229h-33zM2329 -481l43 225h34l48 -225h-31l-10 55h-48l-12 -55h-24zM2351 -539q23 0 45.5 2t42.5 -8q12 -8 19.5 -23.5t7.5 -31.5t-6 -30.5t-21 -20.5l29 -115h-29l-29 109h-26v-109h-33v227zM2359 682v20h111v-20 h-39v-209h-29v209h-43zM2370 -401h40l-20 102zM2376 66h82v90h-82v-90zM2378 1319l94 446h59l95 -446h-58l-22 111h-90l-21 -111h-57zM2384 -559v-74q23 0 37 5t14 32q0 23 -14.5 30t-36.5 7zM2464 1475h76l-39 202zM2476 -256h21l65 -150v150h25v-225h-19l-65 151v-151h-27 v225zM2476 1255h57l68 -213l63 213h62q-29 -92 -62 -184l-28 -92q-6 -16 -5 -30.5t1 -26.5v-111h-62v92q0 16 2 33.5t-2 32.5q-8 45 -30 86zM2490 -700l31 6q0 -10 4 -24.5t15 -18.5q16 -10 26 -1t10 21q0 23 -20.5 41.5t-34.5 30.5q-20 20 -28.5 50t18.5 48q12 10 30.5 11 t30.5 -5q16 -4 22.5 -20.5t8.5 -30.5l-27 -10q-2 10 -4 22.5t-12 20.5q-12 4 -22.5 0t-14.5 -16q-8 -16 6.5 -31t26.5 -25q14 -16 28.5 -29.5t18.5 -35.5q8 -27 -6 -49.5t-43 -22.5q-31 0 -45.5 20.5t-18.5 47.5zM2503 -129h82v215h94v-215h82v489h-82v-202h-94v202h-82 v-489zM2626 -256q23 0 50 1t48 -15q20 -16 19 -47t-1 -54v-54.5t-24 -45.5q-18 -14 -45 -12t-47 2v225zM2634 -539h28v-227h-28v227zM2656 -279v-184q20 0 34.5 4t19.5 29v119q-2 25 -16.5 28.5t-37.5 3.5zM2673 1319v446h61v-403h115v-43h-176zM2695 -645q0 20 1 40.5 t8.5 36t21.5 24.5t41 7q25 -2 35 -13t14 -28.5t3 -37t-1 -37.5v-38t-5 -37t-17 -28.5t-37 -11.5q-27 0 -40.5 12.5t-18.5 30.5t-5 39.5v40.5zM2728 -690.5q0 -16.5 3 -29.5t13 -15q18 -10 28.5 -5t14.5 19t4 30.5v28.5q0 8 1 22.5t-1 30t-6 28t-12 16.5q-23 14 -32 -1.5 t-9 -31.5v-35q0 -8 -2 -24.5t-2 -33zM2761 811v63h57v-63h-57zM2761 1255h57l-18 -348h-23zM2810 -129h82v489h-82v-489zM2855 -539h20l66 -151v151h25v-227h-21l-66 156v-156h-24v227zM2941 -129h180v72h-98v417h-82v-489zM3146 -129h180v72h-98v417h-82v-489zM3322 41 q0 -31 3 -59.5t15 -57.5q16 -35 50 -50t69 -7q39 6 60.5 34.5t25.5 61.5q9 92 -57 162l-41 45l-24.5 24.5t-18.5 32.5q-4 8 -4 19.5t3 22t10 16.5t19 6q12 -2 19.5 -13.5t9.5 -25.5t3 -29.5t1 -25.5l76 4q0 45 -10 91t-53 64q-27 12 -53.5 10.5t-48 -14t-36 -34t-16.5 -50.5 q-4 -29 1 -59.5t21 -52.5q6 -14 18.5 -24.5t22.5 -22.5q23 -29 50.5 -56.5t27.5 -68.5q0 -14 -3 -26.5t-17 -14.5q-10 -4 -18.5 1t-12.5 15q-10 20 -12 43t-4 45z" />
<glyph unicode="6" d="M92 -129h74l2 199l39 -199h57l39 201l4 -201h72l-4 489h-84l-58 -307l-55 307h-80zM440 -129h76v240l86 -240h62v489h-76v-235l-84 235h-64v-489zM632 -658.5q1 27.5 1 48.5q0 31 15.5 54.5t53.5 18.5q35 -4 42.5 -28.5t7.5 -50.5h-29v20t-4 21q-4 16 -21.5 17t-25.5 -13 q-10 -12 -7 -39t3 -43q0 -14 -3 -39t9 -39q6 -14 23.5 -12t21.5 18q4 10 4 21.5v21.5h29q0 -29 -8.5 -57.5t-49.5 -28.5q-29 0 -42 16.5t-17 41t-3 52zM717 -39v-90h82v90h-82zM778 -645q0 20 1 40.5t7.5 36t20.5 24.5t41 7q25 -2 36 -13t16 -28.5t5 -37v-37.5v-38t-6 -37 t-19 -28.5t-38 -11.5q-29 0 -42.5 12.5t-17.5 30.5t-4 39.5v40.5zM782 1319v446h95q35 0 64.5 -7t45.5 -42q20 -39 17 -89t-37 -79q-25 -20 -60 -20h-63v-209h-62zM786 979v276h60v-297q0 -25 4 -56.5t33 -47.5q25 -8 40 -1t24 22.5t13.5 36t4.5 38.5q2 37 1 72t-1 72v161 h61v-204q0 -29 1 -65t-4 -70.5t-20.5 -62.5t-50.5 -40q-20 -8 -42.5 -8t-44 7t-39 21.5t-25.5 38.5q-10 23 -12.5 49.5t-2.5 57.5zM809 -690.5q0 -16.5 3 -29.5t13 -15q18 -10 27.5 -5t13.5 19t4 30.5v28.5q0 8 1 22.5t1 30t-3 28t-11 16.5q-25 14 -36 -1.5t-11 -31.5 q-2 -10 -1 -18.5t1 -16.5t-1 -24.5t-1 -33zM834 41q0 -31 3 -59.5t15 -57.5q16 -35 50 -50t69 -7q39 6 60.5 34.5t25.5 61.5q8 92 -58 162l-41 45q-12 12 -24 24.5t-19 32.5q-4 8 -4 19.5t3.5 22t10.5 16.5t19 6q12 -2 19.5 -13.5t9.5 -25.5t3 -29.5t1 -25.5l76 4 q0 45 -10.5 91t-53.5 64q-27 12 -53.5 10.5t-48 -14t-35.5 -34t-16 -50.5q-4 -29 1 -59.5t21 -52.5q6 -14 18.5 -24.5t22.5 -22.5q23 -29 50.5 -56.5t27.5 -68.5q0 -14 -3 -26.5t-18 -14.5q-10 -4 -18 1t-12 15q-10 20 -12.5 43t-4.5 45zM844 1573q16 0 31.5 -1t33.5 3 q23 6 29 23.5t6 39.5q2 25 -3 47.5t-32 30.5q-18 4 -33.5 3t-31.5 -1v-145zM864 -256h88v-23h-53v-75h43v-23h-43v-104h-35v225zM934 -766l4 227h33l41 -182l39 182h28l4 -227h-24l-2 168l-37 -168h-23l-34 168l-2 -168h-27zM971 -360q0 18 1 38.5t7 36t20.5 24.5t40.5 7 q23 -2 35 -13.5t17.5 -28.5t5.5 -36.5v-38.5q0 -18 -1 -37.5t-6.5 -37t-18.5 -28.5t-38 -11q-27 0 -40 12t-18 30.5t-5 41v41.5zM1000 -377.5q-1 -15.5 0 -33t5.5 -31t14.5 -17.5q18 -8 27.5 -1t12.5 21.5t3 31v28.5q0 8 1 22.5t1 30t-3 28.5t-11 17q-23 12 -36.5 -3 t-13.5 -33v-37q0 -8 -1 -23.5zM1049 1319v446h170v-47h-111v-145h90v-45h-90v-166h113v-43h-172zM1077 936l58 14q2 -20 5 -41.5t17 -36.5q14 -16 34.5 -18t37.5 12q18 16 16 43t-14 43q-10 12 -21.5 25.5t-27.5 23.5q-20 20 -46 41t-40 45q-14 20 -17.5 47t2.5 51.5 t22.5 43t41.5 26.5q25 6 55.5 4t52.5 -18q23 -16 30 -43t9 -53l-49 -17q-2 25 -11 51.5t-38 32.5q-20 4 -36.5 -7t-20.5 -34q-10 -35 17.5 -60.5t51.5 -45.5q29 -27 55.5 -54.5t34.5 -68.5q12 -51 -16.5 -93t-85.5 -42t-86 37t-31 92zM1093 49q-1 -33 3 -67q4 -29 15 -58.5 t36 -44.5q25 -16 60.5 -16t58.5 22l2 -14h65v254h-129v-72h49v-31.5t-3 -41t-14 -33t-32 -4.5q-12 4 -18 17t-8 28.5t-1 32t1 26.5v117q0 23 -1 52.5t5 53.5q16 23 39 21q25 -8 26 -31q4 -16 3 -34.5t-1 -39.5h82q0 20 -1 44t-5 46.5t-15.5 42t-31.5 31.5q-23 14 -53.5 15.5 t-57.5 -7.5q-35 -10 -50 -38.5t-21 -61.5q-4 -35 -3 -70.5t1 -70.5t-1 -68zM1118 -766l4 227h33l39 -182l41 182h33l2 -227h-23l-4 168l-39 -168h-20l-35 168l-4 -168h-27zM1128 -256q20 0 43 2t41 -8q12 -6 20.5 -22.5t9.5 -34t-6 -32t-24 -20.5l33 -110h-31l-32 104h-23 v-104h-31v225zM1151 473v229q12 0 26.5 1.5t30 -1t28.5 -6.5t21 -16q8 -20 6.5 -47t-18.5 -41q-14 -10 -30.5 -11t-32.5 -1v-107h-31zM1159 -279v-75q20 0 35.5 6t15.5 33t-14 31.5t-37 4.5zM1182 602h16t19 4q12 4 14 16.5t2 24.5q-2 29 -15.5 32t-35.5 3v-80zM1270 1319 v446q41 0 89 1t85 -19q25 -14 37 -45t12 -62.5t-13.5 -59.5t-39.5 -38l59 -223h-59l-60 211h-47v-211h-63zM1286 473v229h29v-206h59v-23h-88zM1305 -539h90v-20h-58v-74h47v-24h-47v-86h58v-23h-90v227zM1321 -256h115v-23h-41v-202h-33v202h-41v23zM1333 1573h30.5t33.5 4 q20 10 27.5 30.5t2.5 43.5q0 20 -5 36.5t-25 24.5q-16 8 -32.5 7t-31.5 -1v-145zM1350 -190h69l140 612h-78zM1350 811v444h172v-47h-111v-145h90v-45h-90v-166h111v-41h-172zM1397 473v229h88v-20h-60v-78h50v-22h-50v-86h60v-23h-88zM1417 -539q23 0 46.5 2t41.5 -8 q12 -8 19.5 -23.5t7.5 -31.5t-7 -30.5t-22 -20.5l33 -115h-31l-26 109h-25v-109h-37v227zM1452 -256h29v-98h59v98h33v-225h-33v104h-59v-104h-29v225zM1454 -559v-74q20 0 33.5 5t13.5 32q0 23 -13 30t-34 7zM1499 473l49 229h31l49 -229h-33l-10 59h-47l-10 -59h-29z M1540 555h41l-16 104zM1540 1442l57 16q2 -23 6.5 -44t18.5 -36q14 -14 35.5 -16t36.5 12q16 16 15 42t-13 46q-8 12 -20.5 23.5t-28.5 25.5q-20 18 -45 39t-39 43q-14 23 -18.5 49.5t1.5 51t21.5 44t42.5 25.5q25 6 55.5 4t50.5 -18q23 -16 31 -43t10 -53l-49 -15 q-2 23 -11 49.5t-38 34.5q-20 2 -37.5 -9t-22.5 -30q-6 -39 21 -65.5t53 -44.5q29 -27 54.5 -54.5t35.5 -64.5q10 -55 -18.5 -97t-85.5 -42q-55 0 -86 37t-33 90zM1563 -658.5q2 27.5 2 48.5q0 31 14 54.5t51 18.5q37 -4 44 -28.5t7 -50.5h-32q0 10 1 20t-3 21 q-4 16 -20.5 17t-27.5 -13q-10 -12 -8 -39t2 -43q0 -14 -2 -39t11 -39q8 -14 24 -12t21 18q4 10 3 21.5t-1 21.5h32q0 -29 -9 -57.5t-50 -28.5q-31 0 -43 16.5t-15 41t-1 52zM1593 283h66v-412h82v412h65v77h-213v-77zM1608 -256h88v-23h-56v-75h48v-23h-48v-86h56v-18h-88 v225zM1642 537l31 10q0 -12 4 -27.5t15 -21.5q16 -4 26.5 4t10.5 22q0 23 -20.5 40.5t-35.5 33.5q-23 16 -30 45t18 51q14 8 31.5 9.5t29.5 -3.5q16 -6 23.5 -22t9.5 -33l-26 -6q-2 10 -5.5 21.5t-13.5 21.5q-10 4 -20.5 0t-14.5 -18q-6 -16 7.5 -32t23.5 -26 q16 -12 30.5 -25.5t18.5 -35.5q8 -29 -7 -51.5t-44 -22.5t-44 18.5t-18 47.5zM1690 1087.5q-2 51.5 8 94.5q10 41 38.5 58t67.5 17q41 2 73 -12t46 -51q16 -45 12 -96t-4 -97q0 -29 1 -53t-5 -51q-8 -45 -38 -67.5t-77 -22.5q-100 0 -118 94q-4 23 -3 45.5t1 46.5 q0 43 -2 94.5zM1712 -539h33v-227h-33v227zM1751 1100.5q2 -37.5 2 -72.5v-80q0 -23 3 -49.5t26 -40.5q12 -6 29.5 -6t27.5 6q16 10 23.5 26.5t9.5 33.5q2 10 1 23t-1 24v157q0 18 -1 39t-18 35q-10 12 -25.5 16.5t-29.5 -0.5q-31 -8 -43 -43q-6 -31 -4 -68.5zM1767 -766 l50 227h30l49 -227h-28l-10 59h-50l-10 -59h-31zM1782 473v229h90v-20h-57v-78h47v-22h-47v-86h59v-23h-92zM1790 -256h86v-23h-59v-75h45v-23h-45v-104h-27v225zM1804 1595.5q-2 51.5 11 96.5q10 39 39.5 56t66.5 19t70.5 -12t46.5 -53q16 -41 15 -94.5t-1 -98.5 q0 -29 -1 -54t-7 -50q-19 -90 -117 -90q-100 0 -117 98q-4 20 -4 41v43q0 47 -2 98.5zM1812 -686h39l-18 104zM1847 -129h82v215h94v-215h82v489h-82v-202h-94v202h-82v-489zM1868 1609.5q4 -38.5 4 -71.5v-82q0 -23 2 -50.5t29 -39.5q27 -10 55 0q18 10 23.5 25.5t7.5 31.5 v207q0 18 -1 39t-18 35q-20 25 -53 14q-33 -2 -43 -39q-10 -31 -6 -69.5zM1894 -402.5q2 13.5 2 25.5v121h29v-100q0 -10 -1 -27.5t1 -35t8 -31t21 -13.5q16 0 23.5 13.5t10.5 31t2 34.5t-1 28v100h26v-102q0 -14 1 -33t-1 -37t-9.5 -32.5t-23.5 -20.5q-33 -10 -56 4t-30 47 q-4 14 -2 27.5zM1921 -539h29v-204h59v-23h-88v227zM1950 702h32l33 -167l37 167h25l-47 -229h-29zM1995 811v444h41l127 -297v297h55v-444h-43l-129 303v-303h-51zM2052 -256h31v-207h57v-18h-88v225zM2085 -539h29l36 -166l31 166h33l-53 -227h-25zM2105 473v229h31v-229 h-31zM2114 1319v446h40l125 -297v297h54v-446h-41l-129 303v-303h-49zM2161 -256h32v-207h58v-18h-90v225zM2165 -129h180v72h-98v143h77v72h-77v131h98v71h-180v-489zM2167 537l31 10q0 -12 4 -27.5t16 -21.5q14 -4 23.5 4t9.5 22q2 23 -17.5 40.5t-35.5 33.5 q-23 16 -31 45t16 51q31 16 64 6q16 -6 22 -22t8 -33l-26 -6q-2 10 -5 21.5t-14 21.5q-8 4 -19 0t-13 -18q-10 -16 5 -32t25 -26q14 -12 28.5 -25.5t18.5 -35.5q8 -29 -6 -51.5t-45 -22.5t-44 18.5t-15 47.5zM2236 -539h93v-20h-60v-74h47v-24h-47v-86h60v-23h-93v227z M2286 811v444h61v-403h113v-41h-174zM2306 473v229h33v-229h-33zM2329 -481l43 225h34l48 -225h-31l-10 55h-48l-12 -55h-24zM2351 -539q23 0 45.5 2t42.5 -8q12 -8 19.5 -23.5t7.5 -31.5t-6 -30.5t-21 -20.5l29 -115h-29l-29 109h-26v-109h-33v227zM2359 682v20h111v-20 h-39v-209h-29v209h-43zM2370 -401h40l-20 102zM2376 66h82v90h-82v-90zM2378 1319l94 446h59l95 -446h-58l-22 111h-90l-21 -111h-57zM2384 -559v-74q23 0 37 5t14 32q0 23 -14.5 30t-36.5 7zM2464 1475h76l-39 202zM2476 -256h21l65 -150v150h25v-225h-19l-65 151v-151h-27 v225zM2476 1255h57l68 -213l63 213h62q-29 -92 -62 -184l-28 -92q-6 -16 -5 -30.5t1 -26.5v-111h-62v92q0 16 2 33.5t-2 32.5q-8 45 -30 86zM2490 -700l31 6q0 -10 4 -24.5t15 -18.5q16 -10 26 -1t10 21q0 23 -20.5 41.5t-34.5 30.5q-20 20 -28.5 50t18.5 48q12 10 30.5 11 t30.5 -5q16 -4 22.5 -20.5t8.5 -30.5l-27 -10q-2 10 -4 22.5t-12 20.5q-12 4 -22.5 0t-14.5 -16q-8 -16 6.5 -31t26.5 -25q14 -16 28.5 -29.5t18.5 -35.5q8 -27 -6 -49.5t-43 -22.5q-31 0 -45.5 20.5t-18.5 47.5zM2503 -129h82v215h94v-215h82v489h-82v-202h-94v202h-82 v-489zM2626 -256q23 0 50 1t48 -15q20 -16 19 -47t-1 -54v-54.5t-24 -45.5q-18 -14 -45 -12t-47 2v225zM2634 -539h28v-227h-28v227zM2656 -279v-184q20 0 34.5 4t19.5 29v119q-2 25 -16.5 28.5t-37.5 3.5zM2673 1319v446h61v-403h115v-43h-176zM2695 -645q0 20 1 40.5 t8.5 36t21.5 24.5t41 7q25 -2 35 -13t14 -28.5t3 -37t-1 -37.5v-38t-5 -37t-17 -28.5t-37 -11.5q-27 0 -40.5 12.5t-18.5 30.5t-5 39.5v40.5zM2728 -690.5q0 -16.5 3 -29.5t13 -15q18 -10 28.5 -5t14.5 19t4 30.5v28.5q0 8 1 22.5t-1 30t-6 28t-12 16.5q-23 14 -32 -1.5 t-9 -31.5v-35q0 -8 -2 -24.5t-2 -33zM2761 811v63h57v-63h-57zM2761 1255h57l-18 -348h-23zM2810 -129h82v489h-82v-489zM2855 -539h20l66 -151v151h25v-227h-21l-66 156v-156h-24v227zM2941 -129h180v72h-98v417h-82v-489zM3146 -129h180v72h-98v417h-82v-489zM3322 41 q0 -31 3 -59.5t15 -57.5q16 -35 50 -50t69 -7q39 6 60.5 34.5t25.5 61.5q9 92 -57 162l-41 45l-24.5 24.5t-18.5 32.5q-4 8 -4 19.5t3 22t10 16.5t19 6q12 -2 19.5 -13.5t9.5 -25.5t3 -29.5t1 -25.5l76 4q0 45 -10 91t-53 64q-27 12 -53.5 10.5t-48 -14t-36 -34t-16.5 -50.5 q-4 -29 1 -59.5t21 -52.5q6 -14 18.5 -24.5t22.5 -22.5q23 -29 50.5 -56.5t27.5 -68.5q0 -14 -3 -26.5t-17 -14.5q-10 -4 -18.5 1t-12.5 15q-10 20 -12 43t-4 45z" />
<glyph unicode="7" d="M92 -129h74l2 199l39 -199h57l39 201l4 -201h72l-4 489h-84l-58 -307l-55 307h-80zM440 -129h76v240l86 -240h62v489h-76v-235l-84 235h-64v-489zM632 -658.5q1 27.5 1 48.5q0 31 15.5 54.5t53.5 18.5q35 -4 42.5 -28.5t7.5 -50.5h-29v20t-4 21q-4 16 -21.5 17t-25.5 -13 q-10 -12 -7 -39t3 -43q0 -14 -3 -39t9 -39q6 -14 23.5 -12t21.5 18q4 10 4 21.5v21.5h29q0 -29 -8.5 -57.5t-49.5 -28.5q-29 0 -42 16.5t-17 41t-3 52zM717 -39v-90h82v90h-82zM778 -645q0 20 1 40.5t7.5 36t20.5 24.5t41 7q25 -2 36 -13t16 -28.5t5 -37v-37.5v-38t-6 -37 t-19 -28.5t-38 -11.5q-29 0 -42.5 12.5t-17.5 30.5t-4 39.5v40.5zM782 1319v446h95q35 0 64.5 -7t45.5 -42q20 -39 17 -89t-37 -79q-25 -20 -60 -20h-63v-209h-62zM786 979v276h60v-297q0 -25 4 -56.5t33 -47.5q25 -8 40 -1t24 22.5t13.5 36t4.5 38.5q2 37 1 72t-1 72v161 h61v-204q0 -29 1 -65t-4 -70.5t-20.5 -62.5t-50.5 -40q-20 -8 -42.5 -8t-44 7t-39 21.5t-25.5 38.5q-10 23 -12.5 49.5t-2.5 57.5zM809 -690.5q0 -16.5 3 -29.5t13 -15q18 -10 27.5 -5t13.5 19t4 30.5v28.5q0 8 1 22.5t1 30t-3 28t-11 16.5q-25 14 -36 -1.5t-11 -31.5 q-2 -10 -1 -18.5t1 -16.5t-1 -24.5t-1 -33zM834 41q0 -31 3 -59.5t15 -57.5q16 -35 50 -50t69 -7q39 6 60.5 34.5t25.5 61.5q8 92 -58 162l-41 45q-12 12 -24 24.5t-19 32.5q-4 8 -4 19.5t3.5 22t10.5 16.5t19 6q12 -2 19.5 -13.5t9.5 -25.5t3 -29.5t1 -25.5l76 4 q0 45 -10.5 91t-53.5 64q-27 12 -53.5 10.5t-48 -14t-35.5 -34t-16 -50.5q-4 -29 1 -59.5t21 -52.5q6 -14 18.5 -24.5t22.5 -22.5q23 -29 50.5 -56.5t27.5 -68.5q0 -14 -3 -26.5t-18 -14.5q-10 -4 -18 1t-12 15q-10 20 -12.5 43t-4.5 45zM844 1573q16 0 31.5 -1t33.5 3 q23 6 29 23.5t6 39.5q2 25 -3 47.5t-32 30.5q-18 4 -33.5 3t-31.5 -1v-145zM864 -256h88v-23h-53v-75h43v-23h-43v-104h-35v225zM934 -766l4 227h33l41 -182l39 182h28l4 -227h-24l-2 168l-37 -168h-23l-34 168l-2 -168h-27zM971 -360q0 18 1 38.5t7 36t20.5 24.5t40.5 7 q23 -2 35 -13.5t17.5 -28.5t5.5 -36.5v-38.5q0 -18 -1 -37.5t-6.5 -37t-18.5 -28.5t-38 -11q-27 0 -40 12t-18 30.5t-5 41v41.5zM1000 -377.5q-1 -15.5 0 -33t5.5 -31t14.5 -17.5q18 -8 27.5 -1t12.5 21.5t3 31v28.5q0 8 1 22.5t1 30t-3 28.5t-11 17q-23 12 -36.5 -3 t-13.5 -33v-37q0 -8 -1 -23.5zM1049 1319v446h170v-47h-111v-145h90v-45h-90v-166h113v-43h-172zM1077 936l58 14q2 -20 5 -41.5t17 -36.5q14 -16 34.5 -18t37.5 12q18 16 16 43t-14 43q-10 12 -21.5 25.5t-27.5 23.5q-20 20 -46 41t-40 45q-14 20 -17.5 47t2.5 51.5 t22.5 43t41.5 26.5q25 6 55.5 4t52.5 -18q23 -16 30 -43t9 -53l-49 -17q-2 25 -11 51.5t-38 32.5q-20 4 -36.5 -7t-20.5 -34q-10 -35 17.5 -60.5t51.5 -45.5q29 -27 55.5 -54.5t34.5 -68.5q12 -51 -16.5 -93t-85.5 -42t-86 37t-31 92zM1093 49q-1 -33 3 -67q4 -29 15 -58.5 t36 -44.5q25 -16 60.5 -16t58.5 22l2 -14h65v254h-129v-72h49v-31.5t-3 -41t-14 -33t-32 -4.5q-12 4 -18 17t-8 28.5t-1 32t1 26.5v117q0 23 -1 52.5t5 53.5q16 23 39 21q25 -8 26 -31q4 -16 3 -34.5t-1 -39.5h82q0 20 -1 44t-5 46.5t-15.5 42t-31.5 31.5q-23 14 -53.5 15.5 t-57.5 -7.5q-35 -10 -50 -38.5t-21 -61.5q-4 -35 -3 -70.5t1 -70.5t-1 -68zM1118 -766l4 227h33l39 -182l41 182h33l2 -227h-23l-4 168l-39 -168h-20l-35 168l-4 -168h-27zM1128 -256q20 0 43 2t41 -8q12 -6 20.5 -22.5t9.5 -34t-6 -32t-24 -20.5l33 -110h-31l-32 104h-23 v-104h-31v225zM1151 473v229q12 0 26.5 1.5t30 -1t28.5 -6.5t21 -16q8 -20 6.5 -47t-18.5 -41q-14 -10 -30.5 -11t-32.5 -1v-107h-31zM1159 -279v-75q20 0 35.5 6t15.5 33t-14 31.5t-37 4.5zM1182 602h16t19 4q12 4 14 16.5t2 24.5q-2 29 -15.5 32t-35.5 3v-80zM1270 1319 v446q41 0 89 1t85 -19q25 -14 37 -45t12 -62.5t-13.5 -59.5t-39.5 -38l59 -223h-59l-60 211h-47v-211h-63zM1286 473v229h29v-206h59v-23h-88zM1305 -539h90v-20h-58v-74h47v-24h-47v-86h58v-23h-90v227zM1321 -256h115v-23h-41v-202h-33v202h-41v23zM1333 1573h30.5t33.5 4 q20 10 27.5 30.5t2.5 43.5q0 20 -5 36.5t-25 24.5q-16 8 -32.5 7t-31.5 -1v-145zM1350 -190h69l140 612h-78zM1350 811v444h172v-47h-111v-145h90v-45h-90v-166h111v-41h-172zM1397 473v229h88v-20h-60v-78h50v-22h-50v-86h60v-23h-88zM1417 -539q23 0 46.5 2t41.5 -8 q12 -8 19.5 -23.5t7.5 -31.5t-7 -30.5t-22 -20.5l33 -115h-31l-26 109h-25v-109h-37v227zM1452 -256h29v-98h59v98h33v-225h-33v104h-59v-104h-29v225zM1454 -559v-74q20 0 33.5 5t13.5 32q0 23 -13 30t-34 7zM1499 473l49 229h31l49 -229h-33l-10 59h-47l-10 -59h-29z M1540 555h41l-16 104zM1540 1442l57 16q2 -23 6.5 -44t18.5 -36q14 -14 35.5 -16t36.5 12q16 16 15 42t-13 46q-8 12 -20.5 23.5t-28.5 25.5q-20 18 -45 39t-39 43q-14 23 -18.5 49.5t1.5 51t21.5 44t42.5 25.5q25 6 55.5 4t50.5 -18q23 -16 31 -43t10 -53l-49 -15 q-2 23 -11 49.5t-38 34.5q-20 2 -37.5 -9t-22.5 -30q-6 -39 21 -65.5t53 -44.5q29 -27 54.5 -54.5t35.5 -64.5q10 -55 -18.5 -97t-85.5 -42q-55 0 -86 37t-33 90zM1563 -658.5q2 27.5 2 48.5q0 31 14 54.5t51 18.5q37 -4 44 -28.5t7 -50.5h-32q0 10 1 20t-3 21 q-4 16 -20.5 17t-27.5 -13q-10 -12 -8 -39t2 -43q0 -14 -2 -39t11 -39q8 -14 24 -12t21 18q4 10 3 21.5t-1 21.5h32q0 -29 -9 -57.5t-50 -28.5q-31 0 -43 16.5t-15 41t-1 52zM1593 283h66v-412h82v412h65v77h-213v-77zM1608 -256h88v-23h-56v-75h48v-23h-48v-86h56v-18h-88 v225zM1642 537l31 10q0 -12 4 -27.5t15 -21.5q16 -4 26.5 4t10.5 22q0 23 -20.5 40.5t-35.5 33.5q-23 16 -30 45t18 51q14 8 31.5 9.5t29.5 -3.5q16 -6 23.5 -22t9.5 -33l-26 -6q-2 10 -5.5 21.5t-13.5 21.5q-10 4 -20.5 0t-14.5 -18q-6 -16 7.5 -32t23.5 -26 q16 -12 30.5 -25.5t18.5 -35.5q8 -29 -7 -51.5t-44 -22.5t-44 18.5t-18 47.5zM1690 1087.5q-2 51.5 8 94.5q10 41 38.5 58t67.5 17q41 2 73 -12t46 -51q16 -45 12 -96t-4 -97q0 -29 1 -53t-5 -51q-8 -45 -38 -67.5t-77 -22.5q-100 0 -118 94q-4 23 -3 45.5t1 46.5 q0 43 -2 94.5zM1712 -539h33v-227h-33v227zM1751 1100.5q2 -37.5 2 -72.5v-80q0 -23 3 -49.5t26 -40.5q12 -6 29.5 -6t27.5 6q16 10 23.5 26.5t9.5 33.5q2 10 1 23t-1 24v157q0 18 -1 39t-18 35q-10 12 -25.5 16.5t-29.5 -0.5q-31 -8 -43 -43q-6 -31 -4 -68.5zM1767 -766 l50 227h30l49 -227h-28l-10 59h-50l-10 -59h-31zM1782 473v229h90v-20h-57v-78h47v-22h-47v-86h59v-23h-92zM1790 -256h86v-23h-59v-75h45v-23h-45v-104h-27v225zM1804 1595.5q-2 51.5 11 96.5q10 39 39.5 56t66.5 19t70.5 -12t46.5 -53q16 -41 15 -94.5t-1 -98.5 q0 -29 -1 -54t-7 -50q-19 -90 -117 -90q-100 0 -117 98q-4 20 -4 41v43q0 47 -2 98.5zM1812 -686h39l-18 104zM1847 -129h82v215h94v-215h82v489h-82v-202h-94v202h-82v-489zM1868 1609.5q4 -38.5 4 -71.5v-82q0 -23 2 -50.5t29 -39.5q27 -10 55 0q18 10 23.5 25.5t7.5 31.5 v207q0 18 -1 39t-18 35q-20 25 -53 14q-33 -2 -43 -39q-10 -31 -6 -69.5zM1894 -402.5q2 13.5 2 25.5v121h29v-100q0 -10 -1 -27.5t1 -35t8 -31t21 -13.5q16 0 23.5 13.5t10.5 31t2 34.5t-1 28v100h26v-102q0 -14 1 -33t-1 -37t-9.5 -32.5t-23.5 -20.5q-33 -10 -56 4t-30 47 q-4 14 -2 27.5zM1921 -539h29v-204h59v-23h-88v227zM1950 702h32l33 -167l37 167h25l-47 -229h-29zM1995 811v444h41l127 -297v297h55v-444h-43l-129 303v-303h-51zM2052 -256h31v-207h57v-18h-88v225zM2085 -539h29l36 -166l31 166h33l-53 -227h-25zM2105 473v229h31v-229 h-31zM2114 1319v446h40l125 -297v297h54v-446h-41l-129 303v-303h-49zM2161 -256h32v-207h58v-18h-90v225zM2165 -129h180v72h-98v143h77v72h-77v131h98v71h-180v-489zM2167 537l31 10q0 -12 4 -27.5t16 -21.5q14 -4 23.5 4t9.5 22q2 23 -17.5 40.5t-35.5 33.5 q-23 16 -31 45t16 51q31 16 64 6q16 -6 22 -22t8 -33l-26 -6q-2 10 -5 21.5t-14 21.5q-8 4 -19 0t-13 -18q-10 -16 5 -32t25 -26q14 -12 28.5 -25.5t18.5 -35.5q8 -29 -6 -51.5t-45 -22.5t-44 18.5t-15 47.5zM2236 -539h93v-20h-60v-74h47v-24h-47v-86h60v-23h-93v227z M2286 811v444h61v-403h113v-41h-174zM2306 473v229h33v-229h-33zM2329 -481l43 225h34l48 -225h-31l-10 55h-48l-12 -55h-24zM2351 -539q23 0 45.5 2t42.5 -8q12 -8 19.5 -23.5t7.5 -31.5t-6 -30.5t-21 -20.5l29 -115h-29l-29 109h-26v-109h-33v227zM2359 682v20h111v-20 h-39v-209h-29v209h-43zM2370 -401h40l-20 102zM2376 66h82v90h-82v-90zM2378 1319l94 446h59l95 -446h-58l-22 111h-90l-21 -111h-57zM2384 -559v-74q23 0 37 5t14 32q0 23 -14.5 30t-36.5 7zM2464 1475h76l-39 202zM2476 -256h21l65 -150v150h25v-225h-19l-65 151v-151h-27 v225zM2476 1255h57l68 -213l63 213h62q-29 -92 -62 -184l-28 -92q-6 -16 -5 -30.5t1 -26.5v-111h-62v92q0 16 2 33.5t-2 32.5q-8 45 -30 86zM2490 -700l31 6q0 -10 4 -24.5t15 -18.5q16 -10 26 -1t10 21q0 23 -20.5 41.5t-34.5 30.5q-20 20 -28.5 50t18.5 48q12 10 30.5 11 t30.5 -5q16 -4 22.5 -20.5t8.5 -30.5l-27 -10q-2 10 -4 22.5t-12 20.5q-12 4 -22.5 0t-14.5 -16q-8 -16 6.5 -31t26.5 -25q14 -16 28.5 -29.5t18.5 -35.5q8 -27 -6 -49.5t-43 -22.5q-31 0 -45.5 20.5t-18.5 47.5zM2503 -129h82v215h94v-215h82v489h-82v-202h-94v202h-82 v-489zM2626 -256q23 0 50 1t48 -15q20 -16 19 -47t-1 -54v-54.5t-24 -45.5q-18 -14 -45 -12t-47 2v225zM2634 -539h28v-227h-28v227zM2656 -279v-184q20 0 34.5 4t19.5 29v119q-2 25 -16.5 28.5t-37.5 3.5zM2673 1319v446h61v-403h115v-43h-176zM2695 -645q0 20 1 40.5 t8.5 36t21.5 24.5t41 7q25 -2 35 -13t14 -28.5t3 -37t-1 -37.5v-38t-5 -37t-17 -28.5t-37 -11.5q-27 0 -40.5 12.5t-18.5 30.5t-5 39.5v40.5zM2728 -690.5q0 -16.5 3 -29.5t13 -15q18 -10 28.5 -5t14.5 19t4 30.5v28.5q0 8 1 22.5t-1 30t-6 28t-12 16.5q-23 14 -32 -1.5 t-9 -31.5v-35q0 -8 -2 -24.5t-2 -33zM2761 811v63h57v-63h-57zM2761 1255h57l-18 -348h-23zM2810 -129h82v489h-82v-489zM2855 -539h20l66 -151v151h25v-227h-21l-66 156v-156h-24v227zM2941 -129h180v72h-98v417h-82v-489zM3146 -129h180v72h-98v417h-82v-489zM3322 41 q0 -31 3 -59.5t15 -57.5q16 -35 50 -50t69 -7q39 6 60.5 34.5t25.5 61.5q9 92 -57 162l-41 45l-24.5 24.5t-18.5 32.5q-4 8 -4 19.5t3 22t10 16.5t19 6q12 -2 19.5 -13.5t9.5 -25.5t3 -29.5t1 -25.5l76 4q0 45 -10 91t-53 64q-27 12 -53.5 10.5t-48 -14t-36 -34t-16.5 -50.5 q-4 -29 1 -59.5t21 -52.5q6 -14 18.5 -24.5t22.5 -22.5q23 -29 50.5 -56.5t27.5 -68.5q0 -14 -3 -26.5t-17 -14.5q-10 -4 -18.5 1t-12.5 15q-10 20 -12 43t-4 45z" />
<glyph unicode="8" d="M92 -129h74l2 199l39 -199h57l39 201l4 -201h72l-4 489h-84l-58 -307l-55 307h-80zM440 -129h76v240l86 -240h62v489h-76v-235l-84 235h-64v-489zM632 -658.5q1 27.5 1 48.5q0 31 15.5 54.5t53.5 18.5q35 -4 42.5 -28.5t7.5 -50.5h-29v20t-4 21q-4 16 -21.5 17t-25.5 -13 q-10 -12 -7 -39t3 -43q0 -14 -3 -39t9 -39q6 -14 23.5 -12t21.5 18q4 10 4 21.5v21.5h29q0 -29 -8.5 -57.5t-49.5 -28.5q-29 0 -42 16.5t-17 41t-3 52zM717 -39v-90h82v90h-82zM778 -645q0 20 1 40.5t7.5 36t20.5 24.5t41 7q25 -2 36 -13t16 -28.5t5 -37v-37.5v-38t-6 -37 t-19 -28.5t-38 -11.5q-29 0 -42.5 12.5t-17.5 30.5t-4 39.5v40.5zM782 1319v446h95q35 0 64.5 -7t45.5 -42q20 -39 17 -89t-37 -79q-25 -20 -60 -20h-63v-209h-62zM786 979v276h60v-297q0 -25 4 -56.5t33 -47.5q25 -8 40 -1t24 22.5t13.5 36t4.5 38.5q2 37 1 72t-1 72v161 h61v-204q0 -29 1 -65t-4 -70.5t-20.5 -62.5t-50.5 -40q-20 -8 -42.5 -8t-44 7t-39 21.5t-25.5 38.5q-10 23 -12.5 49.5t-2.5 57.5zM809 -690.5q0 -16.5 3 -29.5t13 -15q18 -10 27.5 -5t13.5 19t4 30.5v28.5q0 8 1 22.5t1 30t-3 28t-11 16.5q-25 14 -36 -1.5t-11 -31.5 q-2 -10 -1 -18.5t1 -16.5t-1 -24.5t-1 -33zM834 41q0 -31 3 -59.5t15 -57.5q16 -35 50 -50t69 -7q39 6 60.5 34.5t25.5 61.5q8 92 -58 162l-41 45q-12 12 -24 24.5t-19 32.5q-4 8 -4 19.5t3.5 22t10.5 16.5t19 6q12 -2 19.5 -13.5t9.5 -25.5t3 -29.5t1 -25.5l76 4 q0 45 -10.5 91t-53.5 64q-27 12 -53.5 10.5t-48 -14t-35.5 -34t-16 -50.5q-4 -29 1 -59.5t21 -52.5q6 -14 18.5 -24.5t22.5 -22.5q23 -29 50.5 -56.5t27.5 -68.5q0 -14 -3 -26.5t-18 -14.5q-10 -4 -18 1t-12 15q-10 20 -12.5 43t-4.5 45zM844 1573q16 0 31.5 -1t33.5 3 q23 6 29 23.5t6 39.5q2 25 -3 47.5t-32 30.5q-18 4 -33.5 3t-31.5 -1v-145zM864 -256h88v-23h-53v-75h43v-23h-43v-104h-35v225zM934 -766l4 227h33l41 -182l39 182h28l4 -227h-24l-2 168l-37 -168h-23l-34 168l-2 -168h-27zM971 -360q0 18 1 38.5t7 36t20.5 24.5t40.5 7 q23 -2 35 -13.5t17.5 -28.5t5.5 -36.5v-38.5q0 -18 -1 -37.5t-6.5 -37t-18.5 -28.5t-38 -11q-27 0 -40 12t-18 30.5t-5 41v41.5zM1000 -377.5q-1 -15.5 0 -33t5.5 -31t14.5 -17.5q18 -8 27.5 -1t12.5 21.5t3 31v28.5q0 8 1 22.5t1 30t-3 28.5t-11 17q-23 12 -36.5 -3 t-13.5 -33v-37q0 -8 -1 -23.5zM1049 1319v446h170v-47h-111v-145h90v-45h-90v-166h113v-43h-172zM1077 936l58 14q2 -20 5 -41.5t17 -36.5q14 -16 34.5 -18t37.5 12q18 16 16 43t-14 43q-10 12 -21.5 25.5t-27.5 23.5q-20 20 -46 41t-40 45q-14 20 -17.5 47t2.5 51.5 t22.5 43t41.5 26.5q25 6 55.5 4t52.5 -18q23 -16 30 -43t9 -53l-49 -17q-2 25 -11 51.5t-38 32.5q-20 4 -36.5 -7t-20.5 -34q-10 -35 17.5 -60.5t51.5 -45.5q29 -27 55.5 -54.5t34.5 -68.5q12 -51 -16.5 -93t-85.5 -42t-86 37t-31 92zM1093 49q-1 -33 3 -67q4 -29 15 -58.5 t36 -44.5q25 -16 60.5 -16t58.5 22l2 -14h65v254h-129v-72h49v-31.5t-3 -41t-14 -33t-32 -4.5q-12 4 -18 17t-8 28.5t-1 32t1 26.5v117q0 23 -1 52.5t5 53.5q16 23 39 21q25 -8 26 -31q4 -16 3 -34.5t-1 -39.5h82q0 20 -1 44t-5 46.5t-15.5 42t-31.5 31.5q-23 14 -53.5 15.5 t-57.5 -7.5q-35 -10 -50 -38.5t-21 -61.5q-4 -35 -3 -70.5t1 -70.5t-1 -68zM1118 -766l4 227h33l39 -182l41 182h33l2 -227h-23l-4 168l-39 -168h-20l-35 168l-4 -168h-27zM1128 -256q20 0 43 2t41 -8q12 -6 20.5 -22.5t9.5 -34t-6 -32t-24 -20.5l33 -110h-31l-32 104h-23 v-104h-31v225zM1151 473v229q12 0 26.5 1.5t30 -1t28.5 -6.5t21 -16q8 -20 6.5 -47t-18.5 -41q-14 -10 -30.5 -11t-32.5 -1v-107h-31zM1159 -279v-75q20 0 35.5 6t15.5 33t-14 31.5t-37 4.5zM1182 602h16t19 4q12 4 14 16.5t2 24.5q-2 29 -15.5 32t-35.5 3v-80zM1270 1319 v446q41 0 89 1t85 -19q25 -14 37 -45t12 -62.5t-13.5 -59.5t-39.5 -38l59 -223h-59l-60 211h-47v-211h-63zM1286 473v229h29v-206h59v-23h-88zM1305 -539h90v-20h-58v-74h47v-24h-47v-86h58v-23h-90v227zM1321 -256h115v-23h-41v-202h-33v202h-41v23zM1333 1573h30.5t33.5 4 q20 10 27.5 30.5t2.5 43.5q0 20 -5 36.5t-25 24.5q-16 8 -32.5 7t-31.5 -1v-145zM1350 -190h69l140 612h-78zM1350 811v444h172v-47h-111v-145h90v-45h-90v-166h111v-41h-172zM1397 473v229h88v-20h-60v-78h50v-22h-50v-86h60v-23h-88zM1417 -539q23 0 46.5 2t41.5 -8 q12 -8 19.5 -23.5t7.5 -31.5t-7 -30.5t-22 -20.5l33 -115h-31l-26 109h-25v-109h-37v227zM1452 -256h29v-98h59v98h33v-225h-33v104h-59v-104h-29v225zM1454 -559v-74q20 0 33.5 5t13.5 32q0 23 -13 30t-34 7zM1499 473l49 229h31l49 -229h-33l-10 59h-47l-10 -59h-29z M1540 555h41l-16 104zM1540 1442l57 16q2 -23 6.5 -44t18.5 -36q14 -14 35.5 -16t36.5 12q16 16 15 42t-13 46q-8 12 -20.5 23.5t-28.5 25.5q-20 18 -45 39t-39 43q-14 23 -18.5 49.5t1.5 51t21.5 44t42.5 25.5q25 6 55.5 4t50.5 -18q23 -16 31 -43t10 -53l-49 -15 q-2 23 -11 49.5t-38 34.5q-20 2 -37.5 -9t-22.5 -30q-6 -39 21 -65.5t53 -44.5q29 -27 54.5 -54.5t35.5 -64.5q10 -55 -18.5 -97t-85.5 -42q-55 0 -86 37t-33 90zM1563 -658.5q2 27.5 2 48.5q0 31 14 54.5t51 18.5q37 -4 44 -28.5t7 -50.5h-32q0 10 1 20t-3 21 q-4 16 -20.5 17t-27.5 -13q-10 -12 -8 -39t2 -43q0 -14 -2 -39t11 -39q8 -14 24 -12t21 18q4 10 3 21.5t-1 21.5h32q0 -29 -9 -57.5t-50 -28.5q-31 0 -43 16.5t-15 41t-1 52zM1593 283h66v-412h82v412h65v77h-213v-77zM1608 -256h88v-23h-56v-75h48v-23h-48v-86h56v-18h-88 v225zM1642 537l31 10q0 -12 4 -27.5t15 -21.5q16 -4 26.5 4t10.5 22q0 23 -20.5 40.5t-35.5 33.5q-23 16 -30 45t18 51q14 8 31.5 9.5t29.5 -3.5q16 -6 23.5 -22t9.5 -33l-26 -6q-2 10 -5.5 21.5t-13.5 21.5q-10 4 -20.5 0t-14.5 -18q-6 -16 7.5 -32t23.5 -26 q16 -12 30.5 -25.5t18.5 -35.5q8 -29 -7 -51.5t-44 -22.5t-44 18.5t-18 47.5zM1690 1087.5q-2 51.5 8 94.5q10 41 38.5 58t67.5 17q41 2 73 -12t46 -51q16 -45 12 -96t-4 -97q0 -29 1 -53t-5 -51q-8 -45 -38 -67.5t-77 -22.5q-100 0 -118 94q-4 23 -3 45.5t1 46.5 q0 43 -2 94.5zM1712 -539h33v-227h-33v227zM1751 1100.5q2 -37.5 2 -72.5v-80q0 -23 3 -49.5t26 -40.5q12 -6 29.5 -6t27.5 6q16 10 23.5 26.5t9.5 33.5q2 10 1 23t-1 24v157q0 18 -1 39t-18 35q-10 12 -25.5 16.5t-29.5 -0.5q-31 -8 -43 -43q-6 -31 -4 -68.5zM1767 -766 l50 227h30l49 -227h-28l-10 59h-50l-10 -59h-31zM1782 473v229h90v-20h-57v-78h47v-22h-47v-86h59v-23h-92zM1790 -256h86v-23h-59v-75h45v-23h-45v-104h-27v225zM1804 1595.5q-2 51.5 11 96.5q10 39 39.5 56t66.5 19t70.5 -12t46.5 -53q16 -41 15 -94.5t-1 -98.5 q0 -29 -1 -54t-7 -50q-19 -90 -117 -90q-100 0 -117 98q-4 20 -4 41v43q0 47 -2 98.5zM1812 -686h39l-18 104zM1847 -129h82v215h94v-215h82v489h-82v-202h-94v202h-82v-489zM1868 1609.5q4 -38.5 4 -71.5v-82q0 -23 2 -50.5t29 -39.5q27 -10 55 0q18 10 23.5 25.5t7.5 31.5 v207q0 18 -1 39t-18 35q-20 25 -53 14q-33 -2 -43 -39q-10 -31 -6 -69.5zM1894 -402.5q2 13.5 2 25.5v121h29v-100q0 -10 -1 -27.5t1 -35t8 -31t21 -13.5q16 0 23.5 13.5t10.5 31t2 34.5t-1 28v100h26v-102q0 -14 1 -33t-1 -37t-9.5 -32.5t-23.5 -20.5q-33 -10 -56 4t-30 47 q-4 14 -2 27.5zM1921 -539h29v-204h59v-23h-88v227zM1950 702h32l33 -167l37 167h25l-47 -229h-29zM1995 811v444h41l127 -297v297h55v-444h-43l-129 303v-303h-51zM2052 -256h31v-207h57v-18h-88v225zM2085 -539h29l36 -166l31 166h33l-53 -227h-25zM2105 473v229h31v-229 h-31zM2114 1319v446h40l125 -297v297h54v-446h-41l-129 303v-303h-49zM2161 -256h32v-207h58v-18h-90v225zM2165 -129h180v72h-98v143h77v72h-77v131h98v71h-180v-489zM2167 537l31 10q0 -12 4 -27.5t16 -21.5q14 -4 23.5 4t9.5 22q2 23 -17.5 40.5t-35.5 33.5 q-23 16 -31 45t16 51q31 16 64 6q16 -6 22 -22t8 -33l-26 -6q-2 10 -5 21.5t-14 21.5q-8 4 -19 0t-13 -18q-10 -16 5 -32t25 -26q14 -12 28.5 -25.5t18.5 -35.5q8 -29 -6 -51.5t-45 -22.5t-44 18.5t-15 47.5zM2236 -539h93v-20h-60v-74h47v-24h-47v-86h60v-23h-93v227z M2286 811v444h61v-403h113v-41h-174zM2306 473v229h33v-229h-33zM2329 -481l43 225h34l48 -225h-31l-10 55h-48l-12 -55h-24zM2351 -539q23 0 45.5 2t42.5 -8q12 -8 19.5 -23.5t7.5 -31.5t-6 -30.5t-21 -20.5l29 -115h-29l-29 109h-26v-109h-33v227zM2359 682v20h111v-20 h-39v-209h-29v209h-43zM2370 -401h40l-20 102zM2376 66h82v90h-82v-90zM2378 1319l94 446h59l95 -446h-58l-22 111h-90l-21 -111h-57zM2384 -559v-74q23 0 37 5t14 32q0 23 -14.5 30t-36.5 7zM2464 1475h76l-39 202zM2476 -256h21l65 -150v150h25v-225h-19l-65 151v-151h-27 v225zM2476 1255h57l68 -213l63 213h62q-29 -92 -62 -184l-28 -92q-6 -16 -5 -30.5t1 -26.5v-111h-62v92q0 16 2 33.5t-2 32.5q-8 45 -30 86zM2490 -700l31 6q0 -10 4 -24.5t15 -18.5q16 -10 26 -1t10 21q0 23 -20.5 41.5t-34.5 30.5q-20 20 -28.5 50t18.5 48q12 10 30.5 11 t30.5 -5q16 -4 22.5 -20.5t8.5 -30.5l-27 -10q-2 10 -4 22.5t-12 20.5q-12 4 -22.5 0t-14.5 -16q-8 -16 6.5 -31t26.5 -25q14 -16 28.5 -29.5t18.5 -35.5q8 -27 -6 -49.5t-43 -22.5q-31 0 -45.5 20.5t-18.5 47.5zM2503 -129h82v215h94v-215h82v489h-82v-202h-94v202h-82 v-489zM2626 -256q23 0 50 1t48 -15q20 -16 19 -47t-1 -54v-54.5t-24 -45.5q-18 -14 -45 -12t-47 2v225zM2634 -539h28v-227h-28v227zM2656 -279v-184q20 0 34.5 4t19.5 29v119q-2 25 -16.5 28.5t-37.5 3.5zM2673 1319v446h61v-403h115v-43h-176zM2695 -645q0 20 1 40.5 t8.5 36t21.5 24.5t41 7q25 -2 35 -13t14 -28.5t3 -37t-1 -37.5v-38t-5 -37t-17 -28.5t-37 -11.5q-27 0 -40.5 12.5t-18.5 30.5t-5 39.5v40.5zM2728 -690.5q0 -16.5 3 -29.5t13 -15q18 -10 28.5 -5t14.5 19t4 30.5v28.5q0 8 1 22.5t-1 30t-6 28t-12 16.5q-23 14 -32 -1.5 t-9 -31.5v-35q0 -8 -2 -24.5t-2 -33zM2761 811v63h57v-63h-57zM2761 1255h57l-18 -348h-23zM2810 -129h82v489h-82v-489zM2855 -539h20l66 -151v151h25v-227h-21l-66 156v-156h-24v227zM2941 -129h180v72h-98v417h-82v-489zM3146 -129h180v72h-98v417h-82v-489zM3322 41 q0 -31 3 -59.5t15 -57.5q16 -35 50 -50t69 -7q39 6 60.5 34.5t25.5 61.5q9 92 -57 162l-41 45l-24.5 24.5t-18.5 32.5q-4 8 -4 19.5t3 22t10 16.5t19 6q12 -2 19.5 -13.5t9.5 -25.5t3 -29.5t1 -25.5l76 4q0 45 -10 91t-53 64q-27 12 -53.5 10.5t-48 -14t-36 -34t-16.5 -50.5 q-4 -29 1 -59.5t21 -52.5q6 -14 18.5 -24.5t22.5 -22.5q23 -29 50.5 -56.5t27.5 -68.5q0 -14 -3 -26.5t-17 -14.5q-10 -4 -18.5 1t-12.5 15q-10 20 -12 43t-4 45z" />
<glyph unicode="9" d="M92 -129h74l2 199l39 -199h57l39 201l4 -201h72l-4 489h-84l-58 -307l-55 307h-80zM440 -129h76v240l86 -240h62v489h-76v-235l-84 235h-64v-489zM632 -658.5q1 27.5 1 48.5q0 31 15.5 54.5t53.5 18.5q35 -4 42.5 -28.5t7.5 -50.5h-29v20t-4 21q-4 16 -21.5 17t-25.5 -13 q-10 -12 -7 -39t3 -43q0 -14 -3 -39t9 -39q6 -14 23.5 -12t21.5 18q4 10 4 21.5v21.5h29q0 -29 -8.5 -57.5t-49.5 -28.5q-29 0 -42 16.5t-17 41t-3 52zM717 -39v-90h82v90h-82zM778 -645q0 20 1 40.5t7.5 36t20.5 24.5t41 7q25 -2 36 -13t16 -28.5t5 -37v-37.5v-38t-6 -37 t-19 -28.5t-38 -11.5q-29 0 -42.5 12.5t-17.5 30.5t-4 39.5v40.5zM782 1319v446h95q35 0 64.5 -7t45.5 -42q20 -39 17 -89t-37 -79q-25 -20 -60 -20h-63v-209h-62zM786 979v276h60v-297q0 -25 4 -56.5t33 -47.5q25 -8 40 -1t24 22.5t13.5 36t4.5 38.5q2 37 1 72t-1 72v161 h61v-204q0 -29 1 -65t-4 -70.5t-20.5 -62.5t-50.5 -40q-20 -8 -42.5 -8t-44 7t-39 21.5t-25.5 38.5q-10 23 -12.5 49.5t-2.5 57.5zM809 -690.5q0 -16.5 3 -29.5t13 -15q18 -10 27.5 -5t13.5 19t4 30.5v28.5q0 8 1 22.5t1 30t-3 28t-11 16.5q-25 14 -36 -1.5t-11 -31.5 q-2 -10 -1 -18.5t1 -16.5t-1 -24.5t-1 -33zM834 41q0 -31 3 -59.5t15 -57.5q16 -35 50 -50t69 -7q39 6 60.5 34.5t25.5 61.5q8 92 -58 162l-41 45q-12 12 -24 24.5t-19 32.5q-4 8 -4 19.5t3.5 22t10.5 16.5t19 6q12 -2 19.5 -13.5t9.5 -25.5t3 -29.5t1 -25.5l76 4 q0 45 -10.5 91t-53.5 64q-27 12 -53.5 10.5t-48 -14t-35.5 -34t-16 -50.5q-4 -29 1 -59.5t21 -52.5q6 -14 18.5 -24.5t22.5 -22.5q23 -29 50.5 -56.5t27.5 -68.5q0 -14 -3 -26.5t-18 -14.5q-10 -4 -18 1t-12 15q-10 20 -12.5 43t-4.5 45zM844 1573q16 0 31.5 -1t33.5 3 q23 6 29 23.5t6 39.5q2 25 -3 47.5t-32 30.5q-18 4 -33.5 3t-31.5 -1v-145zM864 -256h88v-23h-53v-75h43v-23h-43v-104h-35v225zM934 -766l4 227h33l41 -182l39 182h28l4 -227h-24l-2 168l-37 -168h-23l-34 168l-2 -168h-27zM971 -360q0 18 1 38.5t7 36t20.5 24.5t40.5 7 q23 -2 35 -13.5t17.5 -28.5t5.5 -36.5v-38.5q0 -18 -1 -37.5t-6.5 -37t-18.5 -28.5t-38 -11q-27 0 -40 12t-18 30.5t-5 41v41.5zM1000 -377.5q-1 -15.5 0 -33t5.5 -31t14.5 -17.5q18 -8 27.5 -1t12.5 21.5t3 31v28.5q0 8 1 22.5t1 30t-3 28.5t-11 17q-23 12 -36.5 -3 t-13.5 -33v-37q0 -8 -1 -23.5zM1049 1319v446h170v-47h-111v-145h90v-45h-90v-166h113v-43h-172zM1077 936l58 14q2 -20 5 -41.5t17 -36.5q14 -16 34.5 -18t37.5 12q18 16 16 43t-14 43q-10 12 -21.5 25.5t-27.5 23.5q-20 20 -46 41t-40 45q-14 20 -17.5 47t2.5 51.5 t22.5 43t41.5 26.5q25 6 55.5 4t52.5 -18q23 -16 30 -43t9 -53l-49 -17q-2 25 -11 51.5t-38 32.5q-20 4 -36.5 -7t-20.5 -34q-10 -35 17.5 -60.5t51.5 -45.5q29 -27 55.5 -54.5t34.5 -68.5q12 -51 -16.5 -93t-85.5 -42t-86 37t-31 92zM1093 49q-1 -33 3 -67q4 -29 15 -58.5 t36 -44.5q25 -16 60.5 -16t58.5 22l2 -14h65v254h-129v-72h49v-31.5t-3 -41t-14 -33t-32 -4.5q-12 4 -18 17t-8 28.5t-1 32t1 26.5v117q0 23 -1 52.5t5 53.5q16 23 39 21q25 -8 26 -31q4 -16 3 -34.5t-1 -39.5h82q0 20 -1 44t-5 46.5t-15.5 42t-31.5 31.5q-23 14 -53.5 15.5 t-57.5 -7.5q-35 -10 -50 -38.5t-21 -61.5q-4 -35 -3 -70.5t1 -70.5t-1 -68zM1118 -766l4 227h33l39 -182l41 182h33l2 -227h-23l-4 168l-39 -168h-20l-35 168l-4 -168h-27zM1128 -256q20 0 43 2t41 -8q12 -6 20.5 -22.5t9.5 -34t-6 -32t-24 -20.5l33 -110h-31l-32 104h-23 v-104h-31v225zM1151 473v229q12 0 26.5 1.5t30 -1t28.5 -6.5t21 -16q8 -20 6.5 -47t-18.5 -41q-14 -10 -30.5 -11t-32.5 -1v-107h-31zM1159 -279v-75q20 0 35.5 6t15.5 33t-14 31.5t-37 4.5zM1182 602h16t19 4q12 4 14 16.5t2 24.5q-2 29 -15.5 32t-35.5 3v-80zM1270 1319 v446q41 0 89 1t85 -19q25 -14 37 -45t12 -62.5t-13.5 -59.5t-39.5 -38l59 -223h-59l-60 211h-47v-211h-63zM1286 473v229h29v-206h59v-23h-88zM1305 -539h90v-20h-58v-74h47v-24h-47v-86h58v-23h-90v227zM1321 -256h115v-23h-41v-202h-33v202h-41v23zM1333 1573h30.5t33.5 4 q20 10 27.5 30.5t2.5 43.5q0 20 -5 36.5t-25 24.5q-16 8 -32.5 7t-31.5 -1v-145zM1350 -190h69l140 612h-78zM1350 811v444h172v-47h-111v-145h90v-45h-90v-166h111v-41h-172zM1397 473v229h88v-20h-60v-78h50v-22h-50v-86h60v-23h-88zM1417 -539q23 0 46.5 2t41.5 -8 q12 -8 19.5 -23.5t7.5 -31.5t-7 -30.5t-22 -20.5l33 -115h-31l-26 109h-25v-109h-37v227zM1452 -256h29v-98h59v98h33v-225h-33v104h-59v-104h-29v225zM1454 -559v-74q20 0 33.5 5t13.5 32q0 23 -13 30t-34 7zM1499 473l49 229h31l49 -229h-33l-10 59h-47l-10 -59h-29z M1540 555h41l-16 104zM1540 1442l57 16q2 -23 6.5 -44t18.5 -36q14 -14 35.5 -16t36.5 12q16 16 15 42t-13 46q-8 12 -20.5 23.5t-28.5 25.5q-20 18 -45 39t-39 43q-14 23 -18.5 49.5t1.5 51t21.5 44t42.5 25.5q25 6 55.5 4t50.5 -18q23 -16 31 -43t10 -53l-49 -15 q-2 23 -11 49.5t-38 34.5q-20 2 -37.5 -9t-22.5 -30q-6 -39 21 -65.5t53 -44.5q29 -27 54.5 -54.5t35.5 -64.5q10 -55 -18.5 -97t-85.5 -42q-55 0 -86 37t-33 90zM1563 -658.5q2 27.5 2 48.5q0 31 14 54.5t51 18.5q37 -4 44 -28.5t7 -50.5h-32q0 10 1 20t-3 21 q-4 16 -20.5 17t-27.5 -13q-10 -12 -8 -39t2 -43q0 -14 -2 -39t11 -39q8 -14 24 -12t21 18q4 10 3 21.5t-1 21.5h32q0 -29 -9 -57.5t-50 -28.5q-31 0 -43 16.5t-15 41t-1 52zM1593 283h66v-412h82v412h65v77h-213v-77zM1608 -256h88v-23h-56v-75h48v-23h-48v-86h56v-18h-88 v225zM1642 537l31 10q0 -12 4 -27.5t15 -21.5q16 -4 26.5 4t10.5 22q0 23 -20.5 40.5t-35.5 33.5q-23 16 -30 45t18 51q14 8 31.5 9.5t29.5 -3.5q16 -6 23.5 -22t9.5 -33l-26 -6q-2 10 -5.5 21.5t-13.5 21.5q-10 4 -20.5 0t-14.5 -18q-6 -16 7.5 -32t23.5 -26 q16 -12 30.5 -25.5t18.5 -35.5q8 -29 -7 -51.5t-44 -22.5t-44 18.5t-18 47.5zM1690 1087.5q-2 51.5 8 94.5q10 41 38.5 58t67.5 17q41 2 73 -12t46 -51q16 -45 12 -96t-4 -97q0 -29 1 -53t-5 -51q-8 -45 -38 -67.5t-77 -22.5q-100 0 -118 94q-4 23 -3 45.5t1 46.5 q0 43 -2 94.5zM1712 -539h33v-227h-33v227zM1751 1100.5q2 -37.5 2 -72.5v-80q0 -23 3 -49.5t26 -40.5q12 -6 29.5 -6t27.5 6q16 10 23.5 26.5t9.5 33.5q2 10 1 23t-1 24v157q0 18 -1 39t-18 35q-10 12 -25.5 16.5t-29.5 -0.5q-31 -8 -43 -43q-6 -31 -4 -68.5zM1767 -766 l50 227h30l49 -227h-28l-10 59h-50l-10 -59h-31zM1782 473v229h90v-20h-57v-78h47v-22h-47v-86h59v-23h-92zM1790 -256h86v-23h-59v-75h45v-23h-45v-104h-27v225zM1804 1595.5q-2 51.5 11 96.5q10 39 39.5 56t66.5 19t70.5 -12t46.5 -53q16 -41 15 -94.5t-1 -98.5 q0 -29 -1 -54t-7 -50q-19 -90 -117 -90q-100 0 -117 98q-4 20 -4 41v43q0 47 -2 98.5zM1812 -686h39l-18 104zM1847 -129h82v215h94v-215h82v489h-82v-202h-94v202h-82v-489zM1868 1609.5q4 -38.5 4 -71.5v-82q0 -23 2 -50.5t29 -39.5q27 -10 55 0q18 10 23.5 25.5t7.5 31.5 v207q0 18 -1 39t-18 35q-20 25 -53 14q-33 -2 -43 -39q-10 -31 -6 -69.5zM1894 -402.5q2 13.5 2 25.5v121h29v-100q0 -10 -1 -27.5t1 -35t8 -31t21 -13.5q16 0 23.5 13.5t10.5 31t2 34.5t-1 28v100h26v-102q0 -14 1 -33t-1 -37t-9.5 -32.5t-23.5 -20.5q-33 -10 -56 4t-30 47 q-4 14 -2 27.5zM1921 -539h29v-204h59v-23h-88v227zM1950 702h32l33 -167l37 167h25l-47 -229h-29zM1995 811v444h41l127 -297v297h55v-444h-43l-129 303v-303h-51zM2052 -256h31v-207h57v-18h-88v225zM2085 -539h29l36 -166l31 166h33l-53 -227h-25zM2105 473v229h31v-229 h-31zM2114 1319v446h40l125 -297v297h54v-446h-41l-129 303v-303h-49zM2161 -256h32v-207h58v-18h-90v225zM2165 -129h180v72h-98v143h77v72h-77v131h98v71h-180v-489zM2167 537l31 10q0 -12 4 -27.5t16 -21.5q14 -4 23.5 4t9.5 22q2 23 -17.5 40.5t-35.5 33.5 q-23 16 -31 45t16 51q31 16 64 6q16 -6 22 -22t8 -33l-26 -6q-2 10 -5 21.5t-14 21.5q-8 4 -19 0t-13 -18q-10 -16 5 -32t25 -26q14 -12 28.5 -25.5t18.5 -35.5q8 -29 -6 -51.5t-45 -22.5t-44 18.5t-15 47.5zM2236 -539h93v-20h-60v-74h47v-24h-47v-86h60v-23h-93v227z M2286 811v444h61v-403h113v-41h-174zM2306 473v229h33v-229h-33zM2329 -481l43 225h34l48 -225h-31l-10 55h-48l-12 -55h-24zM2351 -539q23 0 45.5 2t42.5 -8q12 -8 19.5 -23.5t7.5 -31.5t-6 -30.5t-21 -20.5l29 -115h-29l-29 109h-26v-109h-33v227zM2359 682v20h111v-20 h-39v-209h-29v209h-43zM2370 -401h40l-20 102zM2376 66h82v90h-82v-90zM2378 1319l94 446h59l95 -446h-58l-22 111h-90l-21 -111h-57zM2384 -559v-74q23 0 37 5t14 32q0 23 -14.5 30t-36.5 7zM2464 1475h76l-39 202zM2476 -256h21l65 -150v150h25v-225h-19l-65 151v-151h-27 v225zM2476 1255h57l68 -213l63 213h62q-29 -92 -62 -184l-28 -92q-6 -16 -5 -30.5t1 -26.5v-111h-62v92q0 16 2 33.5t-2 32.5q-8 45 -30 86zM2490 -700l31 6q0 -10 4 -24.5t15 -18.5q16 -10 26 -1t10 21q0 23 -20.5 41.5t-34.5 30.5q-20 20 -28.5 50t18.5 48q12 10 30.5 11 t30.5 -5q16 -4 22.5 -20.5t8.5 -30.5l-27 -10q-2 10 -4 22.5t-12 20.5q-12 4 -22.5 0t-14.5 -16q-8 -16 6.5 -31t26.5 -25q14 -16 28.5 -29.5t18.5 -35.5q8 -27 -6 -49.5t-43 -22.5q-31 0 -45.5 20.5t-18.5 47.5zM2503 -129h82v215h94v-215h82v489h-82v-202h-94v202h-82 v-489zM2626 -256q23 0 50 1t48 -15q20 -16 19 -47t-1 -54v-54.5t-24 -45.5q-18 -14 -45 -12t-47 2v225zM2634 -539h28v-227h-28v227zM2656 -279v-184q20 0 34.5 4t19.5 29v119q-2 25 -16.5 28.5t-37.5 3.5zM2673 1319v446h61v-403h115v-43h-176zM2695 -645q0 20 1 40.5 t8.5 36t21.5 24.5t41 7q25 -2 35 -13t14 -28.5t3 -37t-1 -37.5v-38t-5 -37t-17 -28.5t-37 -11.5q-27 0 -40.5 12.5t-18.5 30.5t-5 39.5v40.5zM2728 -690.5q0 -16.5 3 -29.5t13 -15q18 -10 28.5 -5t14.5 19t4 30.5v28.5q0 8 1 22.5t-1 30t-6 28t-12 16.5q-23 14 -32 -1.5 t-9 -31.5v-35q0 -8 -2 -24.5t-2 -33zM2761 811v63h57v-63h-57zM2761 1255h57l-18 -348h-23zM2810 -129h82v489h-82v-489zM2855 -539h20l66 -151v151h25v-227h-21l-66 156v-156h-24v227zM2941 -129h180v72h-98v417h-82v-489zM3146 -129h180v72h-98v417h-82v-489zM3322 41 q0 -31 3 -59.5t15 -57.5q16 -35 50 -50t69 -7q39 6 60.5 34.5t25.5 61.5q9 92 -57 162l-41 45l-24.5 24.5t-18.5 32.5q-4 8 -4 19.5t3 22t10 16.5t19 6q12 -2 19.5 -13.5t9.5 -25.5t3 -29.5t1 -25.5l76 4q0 45 -10 91t-53 64q-27 12 -53.5 10.5t-48 -14t-36 -34t-16.5 -50.5 q-4 -29 1 -59.5t21 -52.5q6 -14 18.5 -24.5t22.5 -22.5q23 -29 50.5 -56.5t27.5 -68.5q0 -14 -3 -26.5t-17 -14.5q-10 -4 -18.5 1t-12.5 15q-10 20 -12 43t-4 45z" />
<glyph unicode=":" horiz-adv-x="411" d="M103.5 51q-2.5 37 13.5 66q18 29 52 43t67 -6q29 -20 30.5 -54t-14.5 -63t-49 -44.5t-66 3.5q-31 18 -33.5 55zM144.5 418.5q-2.5 35.5 13.5 64.5q18 29 52 44.5t66 -5.5q29 -20 31 -55t-14 -64t-49 -43t-66 5q-31 18 -33.5 53.5z" />
<glyph unicode=";" horiz-adv-x="385" d="M104 -125q6 37 18.5 73t18.5 72q6 27 10.5 54.5t2.5 56.5q-2 10 1 30.5t10 37t19.5 23.5t30.5 -7q16 -14 19.5 -36.5t3.5 -43.5q0 -29 -4.5 -54.5t-8.5 -53.5l-12 -66t-16 -65q-4 -16 -8.5 -35t-14.5 -33q-8 -10 -20.5 -19.5t-28.5 -3.5q-18 8 -20.5 31t-0.5 39z M119 418.5q-2 35.5 14 64.5t51 44.5t66 -5.5q29 -20 31 -55t-15 -64q-16 -29 -49 -43t-65 5q-31 18 -33 53.5z" />
<glyph unicode="&#x3c;" horiz-adv-x="559" d="M104 367q-4 18 7 30q4 12 16.5 24.5t22.5 20.5q37 25 65.5 44.5t52 38t44 37t44.5 42.5q6 6 16.5 14.5t20.5 13.5t21.5 5t19.5 -10q18 -23 3 -49.5t-27 -42.5q-18 -23 -44 -46.5t-56.5 -45t-61.5 -39t-58 -29.5q43 -51 91.5 -93t113.5 -67q18 -6 42 -24.5t18 -43.5 q-8 -27 -38 -24.5t-46 10.5q-61 25 -116.5 68t-100.5 90q-16 16 -32 34.5t-18 41.5z" />
<glyph unicode="=" horiz-adv-x="774" d="M106 197q6 25 34 36t50 17q35 10 70 14l70 8q70 6 139.5 9.5t136.5 -2.5q18 -4 41 -13.5t23 -32.5q2 -25 -24 -31.5t-42 -6.5q-47 0 -92 3t-90 1q-41 -4 -79 -7.5t-77 -11.5q-10 -2 -39.5 -11t-59.5 -12t-49.5 4t-11.5 36zM139 362q10 23 35 33.5t45 16.5q31 10 62.5 13 t64.5 7q59 4 121.5 7t120.5 -13q16 -4 34.5 -15.5t14.5 -31.5q-4 -23 -27 -29t-41 -4q-86 6 -152.5 7t-144.5 -15q-23 -4 -45 -13.5t-47 -7.5q-16 2 -31.5 12.5t-9.5 32.5z" />
<glyph unicode="&#x3e;" horiz-adv-x="557" d="M104 623q2 12 12.5 17t23 5t25.5 -3t21 -5q61 -25 117.5 -68t102.5 -92q14 -16 29.5 -34.5t17.5 -41.5q0 -23 -7 -30q-4 -14 -16 -26.5t-22 -18.5q-39 -23 -64 -37.5t-44 -30.5t-41.5 -37.5t-57.5 -56.5q-12 -12 -36 -26.5t-42 5.5t-3 48t27 45q35 47 87.5 86.5 t105.5 64.5l10 5t12 5q-45 49 -92 90t-108 66q-16 8 -40 26.5t-18 43.5z" />
<glyph unicode="?" horiz-adv-x="806" d="M102 717q0 31 10.5 63.5t20.5 63.5q35 88 89 167t132 138q37 27 82 46t91 22.5t87 -15t68 -69.5q25 -47 21.5 -97.5t-21.5 -100.5t-46 -96t-52 -85q-55 -88 -115.5 -172t-112.5 -176q-20 -37 -31.5 -73t-25.5 -79q-4 -8 -8 -19.5t-11.5 -19.5t-16.5 -11t-21 5 q-16 12 -20.5 36t-0.5 42q10 53 32.5 103t51.5 98.5t61.5 93.5t63.5 88q20 31 59 85t73 115.5t51.5 122t-3.5 103.5q-12 25 -31.5 34t-41 9t-44 -7.5t-40.5 -17.5q-88 -45 -149.5 -131t-94.5 -182q-6 -18 -11 -38t-10 -38q-4 -16 -8 -32.5t-16 -28.5q-14 -14 -25.5 -12.5 t-19.5 12t-12.5 26t-4.5 27.5zM167 -30q-3 36 13 65t51 44t66 -5q29 -20 32 -54t-14 -63q-16 -29 -50 -44t-64 3q-31 18 -34 54z" />
<glyph unicode="@" horiz-adv-x="1232" d="M104 131q2 100 27 205.5t70 203t110.5 181.5t151.5 143q68 45 147.5 68.5t160.5 18.5t153.5 -41t124.5 -105q63 -86 75.5 -191.5t-6.5 -205.5q-16 -90 -60 -179.5t-120 -142.5q-35 -25 -85 -36t-87 22q-18 16 -29 39q-25 -35 -57.5 -64t-73.5 -39q-37 -10 -69.5 -4 t-60 24.5t-47 48t-28.5 64.5q-14 72 7.5 142.5t60.5 130.5q39 57 94 100t123 55q29 4 64.5 3t58.5 -25q10 -10 11 -24.5t-11 -24.5t-26.5 -11.5t-28.5 0.5q-43 6 -82 -8t-71 -40.5t-57.5 -61.5t-39.5 -72q-16 -35 -23.5 -76t2.5 -79q10 -35 38 -53.5t63 -8.5 q53 14 85.5 67.5t47.5 110.5q0 35 1 81t17 81q8 16 23.5 21.5t29.5 -9.5q20 -18 23.5 -46.5t3.5 -53.5q-2 -23 -6 -44.5t-8 -43.5v-23.5t2 -23.5t5 -36t13 -32q20 -14 48 3.5t54.5 48t47 63.5t26.5 47q41 92 50.5 196.5t-29.5 198.5q-37 86 -116 133t-173 43 q-104 -2 -190 -55t-150 -131q-63 -78 -110.5 -173t-72 -197.5t-23.5 -208t36 -201.5q31 -88 96.5 -158t161.5 -86q86 -14 173 20.5t141 104.5q8 8 18 27.5t23.5 37t27.5 24.5t31 -5q14 -12 15 -29.5t-5 -36t-16.5 -35t-18.5 -28.5q-55 -74 -140 -118t-177 -48 q-104 -6 -193.5 41t-148.5 131t-83 183.5t-20 201.5z" />
<glyph unicode="A" horiz-adv-x="872" d="M23 254q-8 23 15.5 36t41.5 17q57 12 121 19q29 182 69.5 360t87.5 358q23 86 46.5 170t50.5 170q4 14 11 34t21 34q4 10 13.5 16.5t25.5 1.5l9 -4l10 -8q18 -20 22 -53t6 -55q10 -104 18.5 -209t18.5 -209q20 -227 41 -452.5t47 -452.5q10 -100 22.5 -200.5t29.5 -201.5 q2 -14 6 -31.5t4 -36t-4 -35t-19 -26.5q-14 -12 -25.5 -9t-18.5 13.5t-12 24.5t-5 24q-29 190 -50.5 379t-41.5 381q-16 -12 -38 -16t-42 -8q-35 -6 -71 -10.5t-73 -8.5l-90 -12l-16 -117q-4 -45 -9 -90t-9 -92q-4 -31 -4 -62v-8q0 -3 1 -5q0 -32 -6 -64q-4 -25 -23.5 -44.5 t-41.5 7.5q-22 24 -22 58q0 31 5 71q6 84 16.5 166t24.5 166l-86 -13q-20 -4 -45.5 0t-31.5 27zM285 338q41 6 79.5 10t79.5 12q29 4 61 13.5t60 3.5l13 -4l-19 207l-61 653q-53 -180 -99.5 -359.5t-81.5 -363.5q-10 -43 -17 -86t-15 -86z" />
<glyph unicode="B" horiz-adv-x="894" d="M22.5 1176.5q-4.5 11.5 1 23.5t14.5 24.5t17 18.5q74 66 160 119t182 82q41 12 87 16q14 1 28 1q31 0 61 -6q43 -9 77 -34.5t52 -70.5q13 -35 13 -72v-5q-1 -42 -11 -84q-10 -40 -27.5 -79t-35.5 -72q-41 -76 -90 -144.5t-102 -135.5q-8 -10 -17.5 -23.5t-21.5 -25.5 q74 -35 136 -83t108 -110.5t72 -137.5t26 -159q0 -96 -32 -181t-87 -155.5t-129 -128t-156 -98.5q-37 -18 -76 -34.5t-79 -29.5q-10 -4 -26.5 -5t-30 1t-23 11.5t-2.5 27.5q4 16 18 27.5t30.5 19t35 12.5t30.5 11q18 8 37 14t37 17q-12 29 -14 65.5t-4 65.5q-4 47 -7.5 95 t-7.5 97q-16 280 -16 561q0 134 4 269q2 92 4 182t10 182q0 10 1 24.5t5 28.5q-39 -23 -72.5 -47t-68.5 -53q-18 -16 -40.5 -31.5t-49.5 -7.5q-16 6 -20.5 17.5zM332 537.5q0 -56.5 2 -111.5q4 -145 10.5 -290t22.5 -288q2 -20 5 -39.5t7 -39.5l10 6q80 47 143.5 116.5 t99.5 152.5t39 174v12q0 85 -40 169q-37 76 -98.5 133.5t-137.5 92.5q-16 6 -31.5 11t-31.5 15v-113.5zM332 733q4 16 12 29.5t14 21.5q43 57 87 111.5t83 114.5q37 58 72 128q33 67 33 134v8q-2 49 -28.5 70.5t-63.5 25.5q-13 1 -28 1q-25 0 -51 -4q-42 -7 -73 -19l-43 -19 q6 -10 8 -27.5t2 -27.5q-23 -274 -24 -547z" />
<glyph unicode="C" horiz-adv-x="741" d="M22 301v38v38q0 176 17 348q10 104 27.5 207.5t46.5 206.5q12 39 28.5 87t41 93t57 79t79.5 46q20 5 36 5q27 1 48 -13q33 -22 54.5 -61.5t33 -85.5t17.5 -83q4 -35 8 -68.5t8 -68.5l13 47q6 27 16 58.5t35 46.5q18 10 29.5 5t16.5 -17.5t5 -29t-4 -28.5 q-33 -115 -58.5 -228.5t-41.5 -232.5v-108.5t-3 -108.5q-2 -18 -7 -37.5t-17 -32.5q-14 -27 -39 -18q-14 4 -22.5 17.5t-11.5 28.5t-2 31.5t1 29.5q0 47 5 93t12 93q0 106 -2.5 214.5t-12.5 217.5q-4 51 -12 102.5t-27 98.5q-4 14 -13 32.5t-26 22.5q-14 4 -27.5 -5 t-23.5 -18q-39 -33 -61.5 -82t-38.5 -96t-28.5 -97t-22.5 -101q-23 -104 -34 -210t-16 -212q-2 -55 -2 -111q0 -48 2 -96q4 -102 15 -207q10 -96 31.5 -193.5t70.5 -181.5q23 -34 55 -66q29 -28 68 -28h10q23 2 40.5 16.5t31.5 35t24.5 42t16.5 37.5q39 92 55.5 191.5 t18.5 197.5v26.5t4 32t13 24.5t26 7q16 -2 25.5 -15t13.5 -29.5t4 -35v-30.5q-4 -94 -20.5 -188.5t-49.5 -182.5q-16 -41 -39.5 -84t-55.5 -75q-32 -30 -74 -46q-21 -8 -44 -8q-24 0 -49 8q-47 14 -82 46t-59.5 74t-42 87t-29.5 88q-58 205 -62 420z" />
<glyph unicode="D" horiz-adv-x="819" d="M24.5 1045.5q10.5 25.5 22.5 39.5q6 10 13.5 19.5t15.5 19.5q43 53 92 102.5t106 88.5q53 39 120 65q43 16 86 16q23 0 46 -5q72 -16 115 -69.5t66.5 -122.5t32 -144.5t12.5 -132.5q2 -41 2 -82q0 -106 -12 -213q-16 -148 -48 -293q-27 -137 -78 -273 q-23 -63 -54.5 -123.5t-76.5 -111.5q-47 -53 -104 -96t-127 -64q-42 -13 -88 -13q-11 0 -23 1q-10 0 -24.5 3t-26.5 10t-19 17.5t-1 24.5q10 23 36.5 27t45.5 4q29 2 53 5t51 13q-10 27 -11 56.5t-3 54.5q-4 47 -7.5 96t-7.5 96q-10 201 -13 399q-1 85 -1 171q0 114 2 227 q2 78 4 155t8 154q-29 -29 -55.5 -60.5t-52.5 -62.5q-6 -8 -15.5 -17t-20.5 -15t-23.5 -8.5t-24.5 4.5q-23 12 -12.5 37.5zM297 623q0 -103 2 -207q4 -139 9 -277.5t22 -275.5q2 -16 4 -29.5t6 -30.5q76 57 127 138q74 119 112.5 260t61.5 278q23 145 31 295q2 34 2 68 q0 115 -21 227q-10 57 -32.5 124t-73.5 101q-29 16 -58.5 17.5t-59.5 -8t-58.5 -25.5t-51.5 -33v-8q-16 -205 -20 -409q-2 -102 -2 -205z" />
<glyph unicode="E" horiz-adv-x="620" d="M20 -9q0 41 4 81q6 62 19 123q23 111 67 215t119 190l29 31l-16 8q-59 27 -97.5 77t-50.5 113q-4 27 -4 54q0 36 8 72q14 63 42 119t69 107.5t84 94.5q35 33 72.5 63.5t78.5 53.5q16 10 41 13t39 -13q8 -10 6 -20.5t-8 -20t-15.5 -17.5t-17.5 -12q-55 -37 -113.5 -85 t-104.5 -106q-47 -58 -75 -124q-24 -56 -24 -117v-23q4 -66 45 -110.5t107 -52.5q8 -2 24 -3q8 4 15.5 7.5t15.5 7.5q16 6 40.5 5t35.5 -22q0 -2 1 -3t1 -3q20 -25 -8 -51q-29 -25 -80 -29q-43 -31 -79 -71.5t-63.5 -88.5t-48 -99.5t-35.5 -100.5q-39 -129 -39 -272 q0 -63 10.5 -131t45.5 -121q36 -58 88 -58q30 0 65 19q47 27 79 69.5t57 89.5q29 51 52 104.5t44 106.5q16 47 29.5 93.5t29.5 91.5q4 16 16.5 33.5t32.5 15.5q16 -2 22.5 -15.5t10.5 -27.5q4 -25 -3 -50.5t-15 -47.5l-35 -103q-39 -100 -87 -200.5t-124 -178.5 q-35 -34 -82 -60q-44 -24 -91 -24h-7q-55 2 -96.5 37t-65.5 82q-29 55 -41.5 115t-16.5 124q-1 22 -2 45z" />
<glyph unicode="F" horiz-adv-x="1163" d="M23 1296q4 18 22 26.5t35 12.5q121 29 240.5 56.5t242.5 50.5q47 10 96.5 18t96.5 15q14 2 35.5 6t43 4t39 -6t27.5 -25v-4q14 -8 18.5 -30t2.5 -36q-16 -246 -32 -488.5t-26 -487.5q-2 -23 -3 -47.5t-1 -47.5q45 4 89 10.5t91 12.5q20 4 46 2t36 -25q10 -25 -14.5 -39 t-42.5 -18q-100 -20 -209 -25q-6 -117 -6 -233q-2 -90 -3 -179v-16q0 -81 9 -163q2 -16 2 -35t-10 -35q-12 -20 -29.5 -17t-30.5 19q-23 30 -23 71l1 78q-3 65 -3 130q0 33 1 65q2 98 6 197q0 29 1 57.5t3 56.5h-49.5t-48.5 2h-62.5t-62.5 2q-10 0 -23.5 3.5t-26 9.5 t-20.5 15t-6 22q4 29 37 33.5t53 2.5q37 -2 75 -4t75 -2q16 -2 30.5 -2h30.5q8 166 17.5 331t19.5 331q4 96 9 190t14 193q0 10 1 21t3 24q-31 -6 -49 -6q-49 -4 -98.5 -10.5t-96.5 -16.5q-106 -20 -210.5 -45t-209.5 -49q-29 -6 -60.5 -15.5t-58.5 -1.5q-16 4 -27.5 14.5 t-6.5 26.5z" />
<glyph unicode="G" horiz-adv-x="755" d="M22 407q0 136 10 273q17 235 81 459q12 41 29.5 95t45 103t66.5 84t92 37h6q49 0 79 -30q32 -33 48.5 -80.5t22.5 -99.5t8 -91q6 16 18.5 31.5t32.5 13.5q27 -4 28 -30.5t-3 -45.5q-10 -47 -23.5 -92t-23.5 -92q-8 -47 -14.5 -94t-8.5 -94q0 -31 4 -64t-6 -61 q-4 -16 -17.5 -27.5t-29.5 -5.5q-25 -10 -35 19t-8 49q0 57 1 112t3 111q0 59 1 115v23q0 45 -3 91q-2 55 -6 115.5t-29 109.5q-14 27 -32.5 30t-37 -8t-34 -30.5t-25.5 -36.5q-29 -47 -46 -97t-32 -103q-29 -115 -45 -230.5t-26 -232.5q-8 -119 -9 -235q-1 -14 -1 -28 q0 -103 10 -206q8 -104 25.5 -215t66.5 -205q25 -45 63 -70q17 -11 35 -11q25 0 53 20q41 31 72 74.5t53 90.5q49 98 83 214q26 90 26 177q0 26 -2 52q-2 20 -7.5 43.5t-16.5 44t-27.5 34t-42.5 15.5q-7 1 -15 1q-43 0 -87 -21q-52 -23 -93 -50q-10 -6 -26.5 -17t-34 -18.5 t-31.5 -5.5t-21 23q-4 16 4.5 31.5t20.5 28t27.5 22.5t27.5 18q41 25 91.5 45.5t100.5 25.5q12 1 23 1q37 0 72 -12q45 -17 78 -66q29 -45 38 -97q7 -39 7 -80q0 -14 -1 -27q-3 -56 -14.5 -110t-25.5 -102q-14 -51 -33.5 -105t-45.5 -104.5t-58.5 -96.5t-75.5 -81 q-41 -35 -91 -47q-15 -4 -31 -4l-69 19q-47 25 -74.5 67.5t-45.5 89.5q-45 111 -60.5 227.5t-23.5 233.5q-5 95 -5 190z" />
<glyph unicode="H" horiz-adv-x="741" d="M23 446q-2 23 20.5 32.5t38.5 13.5t34.5 6t35.5 4l8 258t12 258q4 47 5 97t7 97q4 18 15.5 43t36.5 25t30.5 -26.5t3.5 -45.5q-14 -176 -23 -350t-14 -352l25 4l162 18q25 4 51.5 8.5t50.5 -1.5q4 115 8.5 228.5t14.5 229.5q8 98 18 196.5t23 196.5q4 29 9 66t38 51 q16 6 25.5 1t14.5 -17t6 -27.5t-1 -25.5q-35 -256 -55.5 -511t-20.5 -513q0 -109 4 -215.5t10 -212.5q4 -53 8.5 -104.5t8.5 -104.5q4 -41 10 -81t6 -81q0 -20 -12 -45t-41 -8q-29 16 -34 58t-7 73q-10 102 -16.5 203.5t-10.5 205.5q-7 127 -7 255q0 51 1 102 q-18 -4 -38.5 -5t-39.5 -4q-37 -4 -72.5 -6t-70.5 -6l-70 -8v-55q-1 -57 -1 -114v-57q1 -85 6 -171q2 -86 12 -172q2 -12 5 -28.5t4 -33t-2 -31t-13 -24.5q-12 -14 -24.5 -11t-23 15t-17.5 27.5t-9 25.5q-8 37 -9 77t-3 79q-4 86 -5 173t-1 173v115q-29 -4 -57 -4h-19 q-16 2 -33.5 10t-17.5 26z" />
<glyph unicode="I" horiz-adv-x="839" d="M20 1078.5q0 13.5 3.5 26.5t7.5 21q10 18 19 37t20 35q35 55 83 102.5t103 81.5q50 36 112 58q40 15 82 15h5q19 0 39 -3q66 -12 99.5 -61.5t45.5 -108.5q14 -70 17 -140.5t3 -140.5q1 -55 1 -109q0 -218 -13 -434q-16 -268 -20 -542q0 -62 -1 -122v-24q0 -49 3 -98 q0 -10 -3 -28.5t-10.5 -32.5t-18.5 -20.5t-30 10.5q-16 12 -20 33.5t-6 39.5q-2 29 -1 59.5t1 61.5q0 121 6 248q4 137 10 273.5t12 275.5q7 140 11 282q1 41 1 83q0 100 -8 200q-2 25 -5 57.5t-10 63.5t-23.5 56.5t-45.5 33.5t-60.5 2t-61 -19.5t-57 -32t-48.5 -34.5 q-47 -37 -84 -84t-65 -100q-8 -16 -25.5 -39t-40.5 -19q-14 2 -20.5 12.5t-6.5 24z" />
<glyph unicode="J" horiz-adv-x="915" d="M23 222v18q0 25 4 57.5t30 48.5q16 10 27.5 4t18 -20.5t7.5 -30.5t1 -27v-65.5t8 -65.5t19.5 -65.5t27.5 -61.5q33 -63 75 -119.5t91 -107.5q49 -49 114.5 -96t137.5 -53q7 -1 13 -1q32 0 51 18q22 21 32 54t12 70t2 65q-4 82 -13 163t-15 161t-12.5 160t-10.5 159 q-8 147 -10 295v42q0 127 10 253q4 47 9 96.5t16 96.5q-33 -12 -65 -19.5t-60 -11.5q-67 -10 -134 -10q-94 0 -190 20q-20 4 -43.5 15.5t-28.5 33.5q-4 14 3.5 23.5t19.5 12.5t25.5 3t23.5 -2q102 -16 203 -22q15 -1 29 -1q87 0 172 31q39 12 65.5 34t54.5 50 q10 10 26.5 21.5t33.5 3.5q18 -8 18 -28.5t-6 -34.5q-12 -31 -35 -54q-8 -16 -13 -31.5t-9 -31.5q-20 -78 -26.5 -159t-10.5 -161q-3 -81 -3 -161.5t3 -159.5q4 -166 15.5 -329t27.5 -327q8 -76 12 -155v-19q0 -68 -24 -131q-29 -78 -96 -102q-33 -12 -67 -12q-38 0 -79 14 q-66 23 -124 64.5t-110 91.5q-53 53 -98 111.5t-80 123.5q-35 66 -56 135q-19 61 -19 126z" />
<glyph unicode="K" horiz-adv-x="671" d="M23 369q-4 12 3 25.5t15 23.5q10 14 24.5 25.5t28.5 21.5q2 131 4 261t6 261q2 90 3.5 179t1.5 180q0 25 4 53t28 43q14 8 24.5 4t16.5 -15.5t9.5 -26.5t3.5 -26q-4 -211 -9.5 -422t-9.5 -421q41 35 78 72.5t74 76.5q104 115 202.5 232.5t192.5 240.5q27 35 51.5 69 t52.5 66q12 16 33 30.5t43 4.5q25 -12 14.5 -38t-20.5 -42q-106 -141 -217 -277t-227 -268q-49 -55 -100.5 -109t-104.5 -106q-16 -16 -34.5 -33.5t-37.5 -33.5v-82q133 -129 269.5 -251t287.5 -230q68 -49 137.5 -95.5t145.5 -80.5q37 -16 74.5 -31t76.5 -23q18 -4 36 -6 t36 0q14 2 28.5 3t28.5 -3q23 -6 28 -17.5t-1 -24.5t-20.5 -24.5t-28.5 -15.5q-29 -10 -62.5 -6t-62.5 10q-80 16 -154.5 54t-144.5 81q-147 92 -281.5 200t-263.5 224l-129 117q2 -66 4 -133.5t6 -132.5q4 -49 7.5 -97.5t7.5 -97.5q4 -27 6 -52t6 -52q2 -14 4 -27.5 t0 -27.5q-2 -23 -17.5 -39.5t-37.5 0.5q-29 20 -34 62t-7 73q-10 100 -15.5 200.5t-7.5 200.5q-2 49 -3 100.5t-1 100.5l-22.5 22.5t-18.5 28.5q-10 0 -18 4t-12 17z" />
<glyph unicode="L" horiz-adv-x="710" d="M23 -272q-2 14 6 22t19 11t24.5 3t23.5 -2l250 -38q-1 49 -1 97.5t1 96.5q2 96 6 195q8 217 19.5 429t21.5 429l23 383q4 25 9 56.5t34 41.5q14 6 24.5 0t14.5 -17.5t5 -25.5t1 -25q-16 -246 -31.5 -488.5t-26.5 -487.5q-6 -104 -9 -205t-5 -205l-4 -144q-1 -24 -1 -49 q0 -48 3 -96q104 -16 205.5 -35.5t204.5 -42.5q76 -16 149.5 -35.5t147.5 -41.5q37 -12 73.5 -26.5t71.5 -31.5q12 -6 28.5 -13t32 -17.5t26.5 -23.5t13 -30q2 -18 -8 -25.5t-25.5 -7.5t-32 5.5t-24.5 9.5q-23 10 -44 22.5t-44 22.5q-68 29 -139.5 50.5t-142.5 39.5 q-121 29 -241 51.5t-243 42.5q4 -31 -8 -53q-12 -20 -30.5 -17t-28.5 19q-10 14 -14.5 31.5t-8.5 34.5q-16 4 -32.5 6t-32.5 4q-47 8 -95.5 14t-95.5 16q-18 4 -41.5 15.5t-27.5 34.5z" />
<glyph unicode="M" horiz-adv-x="940" d="M23 -129q0 86 5 171t13 171q16 182 36.5 361.5t47.5 359.5q10 78 19.5 155.5t27.5 153.5q4 18 17.5 42t37.5 22q16 -4 22.5 -16.5t6.5 -28.5q14 -8 19.5 -28t5.5 -34q4 -199 10 -392.5t18 -389.5q6 -86 12.5 -168t16.5 -168v-14q43 176 85 350t87 350q23 92 46.5 181 t47.5 181q23 84 46.5 168t51.5 166q6 16 17.5 35t32.5 23q16 4 25 -9.5t14 -27.5v-8q0 -34 -15 -76v-27q-27 -248 -39 -494q-7 -148 -7 -298q0 -99 3 -199q4 -104 11.5 -208.5t17.5 -209.5q4 -49 9 -98t11 -98q6 -39 13.5 -78t9.5 -78q2 -20 -9.5 -45t-37.5 -12 q-16 6 -24.5 20t-13.5 31.5t-7 35t-4 31.5q-14 98 -22.5 197.5t-16.5 198.5q-21 268 -21 535q0 168 8 335q0 23 1 45.5t4 44.5l-13 -49q-51 -190 -97 -378.5t-91 -381.5q-20 -80 -37.5 -160.5t-38.5 -160.5q-4 -20 -18.5 -48t-40.5 -26q-16 0 -23.5 11t-7.5 28 q-8 16 -14.5 38.5t-10.5 44t-6 39t-2 25.5q-10 76 -16 151t-10 150q-10 150 -18.5 297.5t-14.5 296.5q-16 -123 -32.5 -245.5t-29.5 -245.5q-10 -86 -17 -173t-11 -175q-6 -84 -7 -166q0 -35 6 -73q3 -22 3 -43q0 -15 -2 -30q-4 -29 -25.5 -43t-44.5 17q-20 29 -20 67.5 v73.5z" />
<glyph unicode="N" horiz-adv-x="700" d="M21 183q0 58 2 116q0 180 6 359.5t16 359.5q2 47 4 96t8 96q0 6 2 13.5t4 13.5v4q-6 29 -12 65q-1 6 -1 12q0 27 22 46q12 12 23 9t19.5 -13t13.5 -23.5t7 -23.5q49 -236 102.5 -469.5t112.5 -466.5q49 -195 105 -387l16 -60q-4 39 -6 77t-6 77q-17 226 -19 452v84 q0 184 9 369q4 98 10 195.5t16 195.5q2 14 3 33t5 36t11.5 32.5t23.5 21.5q16 8 26.5 2t15.5 -17t6 -26.5t-1 -25.5q-27 -258 -39 -513q-7 -139 -7 -280q0 -117 5 -235q6 -209 25 -418q4 -53 10 -104.5t12 -104.5q6 -41 13.5 -84t11.5 -84q0 -16 -8 -36.5t-25 -22.5 q-10 -6 -26 0q-18 8 -30.5 24t-22 36.5t-15.5 42t-12 38.5q-29 92 -55.5 183t-51.5 183q-55 205 -106 407t-99 406q-6 23 -11 44.5t-9 44.5q-10 -147 -15.5 -296t-5.5 -296q-1 -57 -1 -115v-57q1 -86 6 -172q4 -84 12 -170q2 -12 5 -28.5t4 -33t-2 -32t-13 -25.5 q-14 -12 -26.5 -9t-22 15t-16.5 27.5t-9 25.5q-8 37 -10 77t-4 79q-3 86 -5 172q0 29 -1 58z" />
<glyph unicode="O" horiz-adv-x="815" d="M21 296q0 92 7 184q15 202 58 399q18 88 45 175t70 165q16 29 38.5 61.5t55.5 44.5q16 6 37.5 4t27.5 -22q4 -16 -5 -32t-23 -26q-31 -23 -49.5 -58.5t-34.5 -68.5q-41 -98 -65.5 -199.5t-41.5 -205.5q-33 -209 -37 -422q0 -20 -1 -40v-18q0 -74 7 -149q8 -104 35 -203 q12 -47 30 -93t50 -81q27 -29 66 -42q14 -5 28 -5q24 0 46 14q39 25 61.5 70t38.5 86q18 51 30.5 102.5t22.5 104.5q20 106 29.5 212.5t13.5 213.5q1 41 1 81q0 62 -2 122q-3 100 -13 202q-10 96 -25.5 192.5t-50.5 188.5q-12 31 -29.5 65t-46.5 52q-14 8 -32.5 17.5 t-22.5 27.5q-4 20 15.5 30.5t35.5 12.5q37 0 63.5 -23.5t45.5 -50.5q29 -39 45 -83t28 -89q53 -190 65 -390q6 -102 6 -206v-30q0 -81 -3 -162q-4 -104 -14.5 -208.5t-30.5 -209.5q-18 -92 -48 -189.5t-95 -168.5q-35 -40 -78 -54q-29 -10 -58 -9l-28 2q-43 7 -82 33t-66 67 q-57 84 -78.5 186t-31.5 203q-10 110 -10 220z" />
<glyph unicode="P" horiz-adv-x="894" d="M22 1320.5q-2 12.5 5.5 25t23 20.5t27.5 12q102 31 206.5 51.5t211.5 24.5q18 1 36 1q36 0 74 -3q56 -4 111 -17.5t104 -39t88 -68.5q37 -41 54.5 -89t18.5 -100v-7q0 -48 -12 -95q-12 -51 -32 -98q-45 -104 -113.5 -192.5t-144.5 -167.5q-33 -35 -65.5 -68t-67.5 -64 v-38.5t2 -36.5q4 -150 10 -299.5t23 -298.5q2 -23 5 -46.5t7 -45.5q2 -16 2 -36t-14 -34q-10 -12 -24.5 -9t-25.5 13q-25 27 -28.5 69t-7.5 76q-4 47 -7.5 96.5t-7.5 96.5q-6 109 -10 215t-6 217q-16 -6 -28.5 -4t-18.5 20q-10 23 7 46.5t40 46.5q-1 55 -1 109v55 q1 82 3 163q2 98 5 193.5t9 191.5q2 27 7.5 64t35.5 49q14 6 24.5 0t15.5 -17.5t6 -25.5t-1 -25q-12 -174 -18 -344q-5 -128 -5 -257q0 -43 1 -87q35 33 66.5 66t62.5 67q37 41 72.5 86t66.5 94.5t52.5 101.5t29.5 109q3 21 3 43q0 28 -6 58q-11 50 -50 90 q-37 39 -89.5 58.5t-105.5 27.5q-63 9 -127 9q-48 0 -96 -5q-112 -12 -217 -41l-100 -27q-16 -4 -32 -5t-30 5q-23 8 -25 20.5z" />
<glyph unicode="Q" horiz-adv-x="790" d="M22 246q0 163 24 326q28 188 81 368q23 78 52.5 156t74.5 147q16 25 39.5 53.5t58.5 34.5q20 4 32.5 -4t14.5 -21.5t-5 -29t-21 -25.5q-29 -18 -46.5 -50t-33.5 -60q-43 -86 -71.5 -178.5t-51.5 -186.5q-45 -199 -59 -395q-8 -90 -8 -182q0 -6 1 -11q0 -98 21 -194 q10 -41 24.5 -85t45.5 -75q33 -35 69.5 -35t71.5 31q29 29 49 64q-43 33 -86 64.5t-84 66.5q-18 14 -37.5 33.5t-15.5 47.5q2 16 13 21.5t23.5 3.5t26 -9t21.5 -13q45 -35 88 -70t90 -70q4 12 8 19q18 45 32.5 91t27.5 93q25 94 40 189.5t23 191.5q10 98 12 193q1 24 1 48 q0 72 -5 146q-4 86 -18.5 176t-57.5 166q-10 18 -24 35.5t-35 25.5q-16 6 -31.5 5.5t-31.5 3.5t-26.5 17t-0.5 30q10 18 28.5 26.5t34.5 10.5h8q38 0 68 -18q33 -19 57.5 -52t41 -71t26.5 -70q27 -86 36 -176.5t13 -180.5q1 -27 1 -55q0 -68 -4 -135q-5 -94 -17 -189 q-10 -100 -28.5 -198t-47.5 -195q-12 -45 -27.5 -89t-35.5 -89q98 -72 198.5 -141.5t206.5 -130.5q72 -41 146.5 -79t152.5 -67q37 -12 75 -22t77 -15q20 -2 38.5 -1t38.5 6q14 2 27.5 4t28.5 0q23 -6 27.5 -17.5t-1.5 -26t-20 -25.5t-27 -17q-29 -10 -63.5 -10.5t-63.5 3.5 q-82 10 -159.5 40t-151.5 67q-154 76 -294 168t-277 190q-23 -37 -58 -71q-37 -35 -77 -47q-24 -6 -48 -6q-16 0 -32 2q-39 8 -74 33.5t-60 66.5q-51 82 -64 181t-15 196q-1 24 -1 47z" />
<glyph unicode="R" horiz-adv-x="745" d="M25 1087q-8 16 1 36t19 32q61 80 133 153.5t162 125.5q50 29 106 44q29 8 58 8q27 0 53 -7q53 -14 88 -53.5t51 -88.5q19 -60 19 -123v-6v-11q0 -33 -5 -65q-18 -108 -48 -204q-31 -98 -73 -191.5t-89 -185.5q-23 -45 -46.5 -89t-50.5 -87l-12 -17q102 -160 215 -311 t242 -289q57 -61 118.5 -119.5t131.5 -105.5q33 -23 67.5 -42t71.5 -32q27 -8 64.5 -9t54.5 -23q14 -18 7 -30.5t-23.5 -20t-36 -10.5t-29.5 -3q-37 4 -73 18.5t-71 32.5q-74 41 -138 93.5t-124 111.5q-123 121 -228 253t-204 271q-31 41 -59.5 84t-57.5 86q-2 0 -2 4 q-1 -82 -1 -164v-81q1 -122 10 -246l6 -92q4 -20 4 -42t-12 -38q-16 -16 -32 -11t-26 21q-23 31 -23.5 75t-2.5 81q-2 49 -3 98t-1 100q-2 87 -2 173q0 129 4 257q6 214 16 429q4 98 9 195t11 196v16q-20 -18 -38.5 -36.5t-34.5 -39.5q-16 -16 -31.5 -34.5t-32.5 -38.5 q-12 -16 -25.5 -32t-33.5 -26q-12 -6 -28.5 -6t-24.5 16zM319 420h9q8 18 18 34.5t19 28.5q25 45 49 89t47 90q49 96 90 196t63 205q6 35 14 88q4 29 4 58v11q0 18 -1 36q-4 52 -25.5 92.5t-73.5 50.5q-16 4 -32 4l-58 -13q-45 -18 -82 -40q4 -10 4.5 -19.5t0.5 -17.5 q-18 -221 -29.5 -439.5t-16.5 -439.5v-14z" />
<glyph unicode="S" horiz-adv-x="679" d="M22 943v22q3 86 25 172q20 74 56 145.5t96 122.5q49 41 115 50q10 1 19 1q53 0 95 -41q49 -53 64.5 -132t19.5 -148l31 63q10 18 24.5 38.5t38.5 23.5q16 2 23.5 -7.5t9.5 -21.5t-2 -26.5t-8 -22.5q-18 -41 -37 -81t-35 -83q-14 -43 -25.5 -87t-17.5 -89q0 -2 -1 -3 t-1 -3q0 -12 -1 -24.5t-1 -25.5q-2 -14 -3 -32.5t-7 -34.5q-6 -20 -21.5 -33.5t-36.5 2.5q-23 16 -22.5 44t2.5 50q0 29 3 59.5t5 59.5q2 41 3 83v28q0 28 -1 55q-2 43 -5 86t-11 84q-6 31 -18.5 72t-41.5 57q-18 10 -34 10q-18 0 -34 -10q-32 -20 -55 -43 q-27 -29 -46 -60.5t-33 -66.5q-34 -78 -46 -162q-5 -39 -6 -79q0 -45 7 -89q10 -82 41.5 -158.5t74.5 -144.5q47 -72 100.5 -137.5t98.5 -136.5q41 -68 70 -147q28 -78 36 -160q3 -26 3 -52q-1 -56 -13 -110q-18 -80 -69 -148q-47 -58 -118 -80q-22 -7 -44 -7q-47 0 -92 32 q-23 18 -44.5 45t-19.5 59q0 14 9.5 27.5t25.5 11.5q16 0 27.5 -13t19.5 -26q10 -18 27.5 -32.5t40.5 -18.5q5 -1 10 0q31 0 57 20q30 24 47 54q23 33 34 72t15 78q2 24 2 48q0 58 -14 116q-20 80 -61 153q-41 74 -94.5 139.5t-100.5 136.5q-47 70 -83 146t-56 160 q-17 75 -17 150z" />
<glyph unicode="T" horiz-adv-x="602" d="M20 1198q0 18 21 31.5t37 19.5q147 53 299.5 92t308.5 68q63 10 142 20.5t143 16.5l125 8q23 0 48 -4t38 -23q14 -23 -1.5 -36t-41 -19t-54 -7t-41.5 -1q-63 -4 -140 -10t-138 -17q-86 -14 -170 -31.5t-170 -39.5q2 -8 2 -15.5v-13.5q-16 -221 -22 -440q-5 -167 -6 -337 q0 -52 1 -104q2 -152 6.5 -302t18.5 -300l12 -96q2 -12 -1 -28.5t-9 -29t-17.5 -16.5t-27.5 8t-23.5 30t-10.5 38.5t-4 42t-3 37.5l-12 192q-10 220 -10 436q0 20 -1 39q0 197 5 396q2 98 5 195.5t11 195.5v23.5t4 25.5l-102 -31l-111 -36q-16 -4 -32.5 -9.5t-35.5 -1.5 q-16 2 -29.5 9.5t-13.5 23.5z" />
<glyph unicode="U" horiz-adv-x="759" d="M21 -15q0 41 2 81q4 100 12 200q14 197 30.5 390.5t22.5 392.5q3 66 3 131v32q-1 82 -1 166q0 18 6 43t29 33q27 10 38 -17.5t11 -47.5q2 -49 3 -98.5t1 -98.5q-4 -211 -21.5 -418t-33.5 -416q-8 -102 -14.5 -203.5t-6.5 -205.5q0 -14 2 -48t6.5 -72t13.5 -76t24.5 -62.5 t38 -29.5t55.5 22q35 29 57.5 69.5t38.5 79.5q20 47 35.5 95t29.5 98q27 96 45.5 193t32.5 196l15 108q-3 83 -3 165v41q1 102 5 208q0 39 2 77t4 77q2 29 3 57.5t7 56.5l-4 66q-4 14 -4 28.5t4 28.5q10 29 30.5 29t37.5 -23q23 -34 23 -79l-1 -20q0 -36 2 -69q4 -47 4 -95 v-95q-4 -236 -31 -469l5 -53q4 -80 10 -161t18 -161q4 -37 10.5 -74t16.5 -73q8 -29 19.5 -57.5t17.5 -57.5q6 -35 -13.5 -54.5t-50.5 9.5q-25 23 -34 56.5t-17 64.5q-14 51 -23.5 104t-15.5 107q-16 -84 -38.5 -166t-55.5 -162q-14 -37 -34.5 -80t-49.5 -80t-65.5 -61.5 t-84.5 -24.5q-51 0 -82.5 30t-49 73t-24.5 91t-9 87q-4 61 -4 122z" />
<glyph unicode="V" horiz-adv-x="671" d="M24 1446q3 29 27 39q14 4 23.5 -1t15.5 -15.5t10 -24t4 -21.5q14 -84 25 -174q23 -201 26 -401q1 -86 1 -171q0 -114 -2 -228q-4 -98 -6.5 -194.5t-2.5 -195.5q-2 -49 -2 -98t4 -98q2 -25 3.5 -48.5t5.5 -45.5q4 -14 7 -37t13 -33q14 -12 30.5 2t34 43t34 65.5t28.5 71.5 t21.5 62.5t11.5 36.5q29 94 47 187t33 189q27 180 36 360q3 68 3 136q0 113 -9 225q-2 27 -7 62t7 59q12 25 33 19.5t33 -25.5q16 -29 18 -67t5 -70q4 -45 4 -88v-88q0 -369 -78 -736q-20 -94 -46 -188t-67 -182q-16 -37 -38.5 -74t-55.5 -64q-32 -25 -70 -25h-2 q-39 0 -67 36q-23 27 -30 60.5t-11 68.5q-6 47 -8.5 94t-2.5 94q-1 44 -1 87q0 54 2 108q2 98 6 196q3 147 3 293v73q-1 182 -16 365q-4 78 -13 156t-19 156q-4 20 -1 49z" />
<glyph unicode="W" horiz-adv-x="884" d="M22 41q0 41 1 81q2 81 4 163q6 160 11 316.5t7 313.5q0 68 -2 135.5t-6 135.5q-2 20 5 50t34 34q12 2 20 -5.5t13.5 -18.5t8.5 -23.5t3 -20.5q4 -37 5 -74.5t3 -74.5q1 -60 1 -120q0 -105 -4 -209q-7 -163 -13 -329q-4 -86 -6.5 -169t-2.5 -169q-2 -39 -2 -78t2 -77 q2 -12 6.5 -27.5t16.5 4.5q8 10 13 22.5t10 24.5q51 135 87.5 274.5t67.5 280.5t49 275q-4 58 -7 116q-1 25 -1 50q0 33 2 65q0 14 5 32.5t18 31.5v14q0 12 5 27.5t13 24.5t20.5 9t26.5 -14q16 -20 20.5 -47t4.5 -51q0 -15 1 -29q0 -51 -6 -103q-7 -66 -18 -132 q6 -141 15.5 -281.5t25.5 -282.5q10 -96 21.5 -190t34.5 -189q0 -4 3 -19t8 -30.5t12 -28t15 -10.5t13.5 16.5t9.5 32t7 33t3 21.5q37 186 49.5 377.5t22.5 384.5q8 182 13 363t5 366q0 10 -2 40.5t0 62.5t13.5 52.5t35.5 12.5q23 -8 30 -35t9 -47q1 -26 1 -52v-25 q-1 -38 -1 -75q-4 -182 -10 -362t-16 -363q-4 -98 -10.5 -196.5t-16.5 -196.5q-10 -94 -20.5 -186.5t-32.5 -184.5q-8 -33 -19.5 -67.5t-35.5 -59.5q-27 -25 -56.5 -18.5t-52.5 33.5q-20 23 -30.5 53.5t-18.5 60.5q-12 45 -20.5 90.5t-16.5 92.5q-18 117 -30.5 233.5 t-20.5 233.5q-18 -76 -38 -151t-42 -148q-18 -61 -38.5 -124t-43.5 -122q-8 -18 -23.5 -49t-36 -55.5t-45 -32t-51.5 23.5q-23 25 -25.5 59.5t-6.5 65.5q0 23 -1 42.5t-1 39.5q-1 41 -1 82z" />
<glyph unicode="X" horiz-adv-x="714" d="M23 -49q-2 16 3 32.5t11 30.5q35 80 67.5 159t65.5 161l106 280l-73 183l-70 172t-67 176q-6 16 -15.5 37.5t-15.5 44t-8 44t8 40.5q8 18 20.5 20t22.5 -5t19 -21.5t14 -26.5q43 -141 96 -279.5t110 -275.5q35 86 68 170t68 170q31 78 63.5 153.5t67.5 151.5 q10 23 28.5 53.5t49.5 28.5t28.5 -31.5t-12.5 -48.5q-86 -178 -159 -360.5t-144 -368.5q-4 -8 -6 -14t-4 -13q10 -29 21 -55.5t24 -54.5q76 -180 151.5 -358.5t140.5 -362.5q10 -23 17.5 -46.5t15.5 -45.5q6 -18 11.5 -39t-1.5 -41q-10 -33 -40 -21q-20 6 -30.5 25.5 t-17.5 38.5q-35 90 -66.5 179t-66.5 181q-49 123 -100 245t-102 245q-47 -123 -92.5 -244t-96.5 -242q-10 -27 -22.5 -57.5t-40.5 -42.5q-20 -10 -32.5 1t-14.5 32z" />
<glyph unicode="Y" horiz-adv-x="655" d="M21.5 354.5q-1.5 30.5 1.5 57.5q4 70 17 137t28 135q25 131 45 261t22 265q2 29 1 57.5t-3 57.5t-6 57.5t0 57.5q4 16 13.5 33.5t29.5 13.5t28.5 -25.5t10.5 -38.5l6 -61q6 -64 6 -128q0 -75 -8 -150q-14 -138 -39 -275q-12 -72 -26.5 -140.5t-26.5 -138.5 q-2 -14 -9.5 -49t-10.5 -73q-1 -16 -1 -30q0 -20 2 -37q4 -30 25 -32q25 -4 50.5 14.5t41.5 34.5q23 20 42.5 44t37.5 51q37 53 66.5 109t54.5 116q6 14 12 27.5t10 29.5l7 21q16 70 32.5 142.5t44.5 139.5q0 2 1 3t1 3q6 33 9.5 65t7.5 67q2 20 3 42.5t15 38.5q27 27 51 -2 q16 -18 18.5 -43.5t-1.5 -48.5q-2 -31 -6 -61.5t-11 -61.5q-16 -86 -38.5 -171t-55.5 -167q-27 -106 -49 -211.5t-39 -214.5q-14 -84 -24.5 -165.5t-16.5 -165.5q-4 -39 -4 -78v-78q0 -23 1 -43t3 -43q2 -16 5 -32.5t3 -32.5q0 -41 -25.5 -49.5t-47.5 26.5 q-16 29 -19.5 65.5t-3.5 71.5q-2 32 -2 64q0 48 4 97q6 81 17 161q10 86 23 172t30 172q-14 -20 -28.5 -39t-31.5 -37q-18 -23 -40.5 -44.5t-47 -37.5t-53.5 -25.5t-59 -5.5q-35 2 -54.5 21.5t-28.5 46.5t-10.5 57.5z" />
<glyph unicode="Z" horiz-adv-x="626" d="M20 -183q0 17 5 35q12 42 22 76q29 90 61.5 176t67.5 172q74 188 154 371.5t164 370.5q35 72 67.5 146.5t67.5 148.5q-35 -4 -72 -4t-72 2q-70 4 -137 16t-133 35q-18 6 -40.5 18.5t-24.5 36.5q-2 14 6 21.5t20 10.5t24.5 1t22.5 -4q45 -10 87 -23.5t87 -19.5 q65 -12 130 -12q24 0 48 2q27 2 53.5 9t55.5 9q14 14 37 19q18 2 25.5 -7.5t8.5 -23t-3 -27.5t-11 -22q-102 -211 -197 -420t-188 -424q-37 -90 -72.5 -178t-70.5 -181q-29 -78 -57.5 -157.5t-44.5 -161.5q0 -2 -1 -2t-1 -2q186 -31 370.5 -60.5t368.5 -70.5 q76 -16 149.5 -34.5t147.5 -43.5q78 -27 145 -55q12 -6 28.5 -14.5t32 -18.5t27 -23.5t13.5 -29.5q2 -18 -8.5 -25.5t-26 -7.5t-31.5 5t-25 9q-23 10 -44 22.5t-44 22.5q-68 29 -139.5 50.5t-142.5 39.5q-160 41 -319.5 68t-319.5 51q-47 8 -95.5 14.5t-95.5 16.5 q-10 2 -21 5t-22 9q-20 0 -28 21q-9 20 -9 42z" />
<glyph unicode="[" horiz-adv-x="655" d="M104 -317q2 10 9.5 15t17.5 9q33 193 45 386.5t19 385.5q6 184 6 365q0 41 -1 82t-1 82q-2 35 -6.5 70.5t0.5 70.5q-12 6 -21.5 17.5t-5.5 25.5q4 23 27.5 27t39.5 2q18 0 39 -5.5t39 -9.5l74 -6q29 0 55.5 6t53.5 6q16 -2 34.5 -8t22.5 -22q4 -18 -10.5 -30.5 t-28.5 -18.5q-39 -16 -82 -15.5t-84 4.5q-16 2 -33.5 2t-33.5 4q0 -6 1 -11t1 -9q4 -86 4 -169t-2 -169q-4 -377 -31 -747q-6 -78 -13.5 -158t-21.5 -158v-2l33 -8q37 -6 76 -6q29 0 54.5 6t53.5 4q16 0 33.5 -6t21.5 -25q4 -18 -9 -30.5t-27 -16.5q-39 -16 -83 -16t-85 4 q-23 2 -43.5 4t-40.5 6q-16 4 -30.5 6t-29.5 6q-14 6 -27.5 18.5t-9.5 31.5z" />
<glyph unicode="\" horiz-adv-x="798" d="M-84 1242q0 28 23 38q12 6 21 2t17.5 -13t13.5 -20.5t9 -19.5q20 -61 56 -152.5t80 -198t93.5 -220t95.5 -218t87 -194.5t67 -148q31 -68 63.5 -134t67.5 -132l52 -96q10 -20 24 -44t6 -48q-6 -23 -23.5 -23t-33.5 10q-23 16 -35 38t-25 44q-29 57 -56 113.5t-56 114.5 q-23 51 -60.5 131t-82 177t-90.5 200.5t-89 201t-78.5 179t-56.5 133.5q-23 57 -46 115.5t-40 117.5q-4 18 -4 46z" />
<glyph unicode="]" horiz-adv-x="655" d="M84 -354q-4 16 10.5 28.5t28.5 18.5q39 16 83 15t85 -5q16 -2 33.5 -2t33.5 -4q-2 8 -2 20q-4 86 -4 169v169q4 188 10.5 374.5t22.5 373.5q4 80 11 158.5t22 156.5v4q-8 4 -16.5 4t-16.5 2q-37 6 -74 7q-29 2 -54.5 -5.5t-53.5 -5.5q-16 0 -34.5 6.5t-23.5 24.5 q-4 18 10.5 30.5t28.5 16.5q39 16 83 16.5t85 -4.5q20 -2 41 -4t43 -6q14 -4 29.5 -6t30.5 -6q14 -6 26.5 -18.5t7.5 -30.5q-6 -18 -26 -25q-33 -193 -45.5 -386t-18.5 -386q-4 -92 -5 -182t1 -182v-82t2 -82q2 -35 6.5 -71t-0.5 -71q12 -6 21.5 -17t5.5 -26q-4 -20 -28 -25 t-40 -3q-20 0 -39.5 5t-37.5 9q-37 6 -76 6q-29 0 -54.5 -6t-54.5 -4q-16 0 -34.5 6t-22.5 25z" />
<glyph unicode="^" horiz-adv-x="575" d="M105.5 772q-3.5 10 0 21.5t9.5 22.5t12 20q35 45 73 97t48 75q23 47 54.5 45t66.5 -37q37 -35 58.5 -78t35.5 -92q4 -20 8 -47t-18 -39q-23 -10 -39.5 9.5t-24.5 35.5q-10 23 -17 41t-15.5 34.5t-18.5 34t-27 37.5q-20 -29 -51 -68.5t-65 -84.5q-12 -16 -31 -35t-41 -8 q-14 6 -17.5 16z" />
<glyph unicode="_" horiz-adv-x="802" d="M105 -86.5q-7 18.5 10 35.5q18 18 48 23t54 10q39 4 78 4t80 -2q66 -2 133 -6.5t133 -20.5q16 -4 37.5 -16.5t19.5 -34.5q0 -25 -26.5 -30t-42.5 -1q-47 4 -95.5 12.5t-95.5 12.5t-92 4t-92 -4q-29 -4 -59.5 -11.5t-59.5 0.5q-23 6 -30 24.5z" />
<glyph unicode="`" horiz-adv-x="413" d="M102.5 958q-4.5 25 16.5 39q23 14 41 -5.5t26 -35.5q6 -14 9.5 -29.5t7.5 -29.5q6 -14 13 -28.5t17 -26.5q12 -20 30 -33.5t30 -32.5q10 -14 17 -37.5t-13 -36.5q-20 -12 -42 1.5t-36 27.5q-76 76 -106 182q-6 20 -10.5 45z" />
<glyph unicode="a" horiz-adv-x="542" d="M-16 198q0 44 13 86q21 70 60 130q37 57 92.5 100t124.5 55q23 3 51 3h14q36 -1 56 -25q10 -10 11.5 -24.5t-11.5 -24.5q-10 -10 -25.5 -11.5t-29.5 0.5q-13 2 -25 2q-29 0 -56 -10q-38 -14 -70.5 -40.5t-58.5 -61.5t-40 -72q-14 -35 -22 -76q-3 -17 -3 -33q0 -24 7 -46 q10 -36 36 -54q17 -12 38 -12q11 0 24 4q47 12 78 55t47 95l6 55q2 14 4 30.5t8 32.5q-2 18 -1 37t10 35q8 16 23 21.5t32 -9.5q20 -18 23 -46.5t1 -53.5q-2 -35 -9 -67.5t-17 -63.5q0 -41 16 -72q12 -27 30.5 -20t36 27t32 43.5t18.5 33.5q6 12 11 30.5t13.5 36t19.5 31 t28 17.5q18 2 26 -7.5t11.5 -23.5t0 -30.5t-5.5 -26.5q-10 -31 -28.5 -68t-43 -69.5t-56 -54t-68.5 -21.5q-39 0 -62.5 18.5t-38.5 46.5q-23 -33 -53.5 -57.5t-68.5 -34.5q-22 -6 -43 -6q-48 0 -88 28q-58 40 -72 111q-6 29 -6 57z" />
<glyph unicode="b" horiz-adv-x="636" d="M-13 603q0 76 3 153q6 117 18 231.5t33 229.5q20 111 47 224t84 212q12 20 27.5 39.5t34 33t41 19.5t49.5 0q47 -14 67.5 -61.5t26.5 -90.5q8 -56 8 -113q0 -54 -8 -110q-16 -112 -37 -221q-23 -104 -49.5 -205.5t-59.5 -202.5q-31 -94 -65.5 -186t-75.5 -182 q-8 -20 -17.5 -44t-23.5 -42q4 -35 13.5 -66t21.5 -61q8 -18 18.5 -37t24.5 -32t31.5 -19t40.5 2q47 16 77.5 63t47.5 90q16 41 26 86q7 32 7 66q0 13 -1 27q-39 14 -71 38q-16 10 -30.5 26.5t-14.5 37.5q-8 12 -2 26.5t18 24.5q25 20 57 20q6 0 11 -1q47 -6 72.5 -35 t35.5 -70q53 -12 111 -13h11q52 0 89 8q39 10 54.5 -1.5t4 -31t-52.5 -37t-115 -19.5q-10 -1 -21 -1q-33 0 -73 5q0 -33 -4 -63.5t-10 -55.5q-12 -43 -32.5 -91t-51.5 -89t-72 -68.5t-92 -29.5h-7q-53 0 -88 30q-38 32 -62.5 81.5t-37 105t-18.5 98.5q-16 113 -18 227 q-1 38 -1 75zM65 585q0 -69 7 -139q86 193 146.5 392.5t96.5 406.5q10 57 16.5 114.5t8.5 117.5q2 31 1 60.5t-7 57.5q-2 14 -8.5 39t-22.5 31q-18 6 -35.5 -14.5t-33 -49t-25.5 -58.5t-14 -40q-35 -102 -58 -217q-45 -224 -61 -457q-6 -96 -10 -191q-1 -27 -1 -53z" />
<glyph unicode="c" horiz-adv-x="466" d="M-2 271q0 23 4 47q10 64 45 118q35 53 91 85q43 24 92 25q15 0 30 -3q23 -4 43.5 -13.5t30.5 -31.5q6 -18 1 -28.5t-16.5 -15.5t-26 -4t-26.5 5q-19 8 -37 8q-15 1 -29 -5q-32 -12 -57.5 -37.5t-42 -58t-20.5 -63.5q-1 -13 -2 -25q0 -22 5 -44q7 -34 25.5 -62.5t47 -47 t65.5 -20.5q6 0 12 -1q55 0 105 36q54 39 86 90q12 20 21.5 44t25.5 40q18 23 39.5 16.5t27.5 -34.5q4 -29 -10 -57.5t-30 -51.5q-31 -49 -78 -90q-48 -40 -112 -62q-35 -12 -72 -13q-29 0 -58 8q-68 16 -110 63q-44 46 -60 106q-10 37 -10 77z" />
<glyph unicode="d" horiz-adv-x="737" d="M-12 187.5q0 64.5 16 119.5t47 106.5t76 92.5q33 29 73 49t85 25q-18 168 -19 338q0 141 7.5 280t31.5 277q10 63 26.5 127.5t51.5 119.5q14 25 36.5 43.5t48.5 24.5t52.5 0t48.5 -31q41 -47 52.5 -112.5t17.5 -122.5q6 -72 6 -141.5t-4 -141.5q-6 -141 -24.5 -278.5 t-47.5 -272.5q-25 -109 -56.5 -212t-82.5 -202q0 -4 2 -6q6 -18 15.5 -45.5t23.5 -53.5t32.5 -43t43.5 -17q31 0 59.5 20.5t52 50t43 63.5t35.5 60q6 12 20.5 20.5t27 7.5t19.5 -12.5t1 -37.5q-14 -59 -51 -113q-33 -49 -77 -92t-106 -51q-11 -1 -21 -1q-26 0 -46 7 q-30 10 -54 31.5t-43.5 51t-33.5 64.5q-29 -41 -65 -75.5t-77 -59.5q-46 -26 -97 -26q-6 1 -12 1q-58 4 -97 54q-37 49 -37 113.5zM71 201q0 -8 1 -17q2 -23 10 -45t31 -33q27 -12 52 -0.5t46 25.5q41 29 71.5 68t55.5 82l-25 114l-18 101q-43 -4 -81 -31t-62 -57 q-36 -44 -60 -104q-20 -51 -21 -103zM348 981q0 -105 6 -209q4 -94 13.5 -188.5t29.5 -186.5q16 41 29.5 82t26.5 84q37 133 60.5 268.5t37.5 272.5q6 72 10 142q3 47 3 95q0 24 -1 48q0 68 -4 136t-27 134q-4 8 -9 20.5t-12 21.5t-17.5 11t-22.5 -8q-23 -18 -34 -50 t-19 -59q-23 -68 -33 -136t-18 -138q-17 -137 -19 -275v-32.5v-32.5z" />
<glyph unicode="e" horiz-adv-x="468" d="M-32 178q0 11 1 23q6 61 42 108t87 80q0 2 -9 11.5t-11 11.5q-20 25 -27 63q-1 9 -1 19q0 34 18 64q22 38 61 58q33 16 76 20h11q36 0 65 -20q14 -8 24 -25.5t0 -33.5q-10 -18 -30.5 -17t-36.5 7q-16 4 -35 3t-35 -8t-26.5 -20.5t-8.5 -34.5q4 -27 23.5 -38t36.5 -27 q18 -20 14 -36.5t-19.5 -31t-36 -26t-32.5 -21.5q-20 -16 -38 -39.5t-27 -50.5t-6 -54.5t22 -49.5q22 -27 54 -34q20 -4 41 -5q13 0 25 2q34 4 65.5 17t55.5 30q53 35 91 84t61 106q4 8 11 22.5t16.5 26t21.5 16.5t27 -5q23 -16 17 -49t-17 -54q-25 -57 -68 -111.5 t-99 -94.5q-56 -38 -120 -58q-38 -11 -75 -12q-28 0 -56 6q-74 14 -117 70q-36 47 -36 108z" />
<glyph unicode="f" horiz-adv-x="520" d="M-49 573q-2 10 0 21.5t6 19.5q-4 29 29 39q10 2 17 2h17q4 102 8.5 202.5t8.5 205.5q4 78 5 156.5t7 156.5q2 20 12.5 45t32.5 29q27 6 35 -23t6 -47q-4 -51 -5 -100t-3 -100q-6 -141 -13.5 -279.5t-11.5 -279.5q37 -25 67 -60t54 -74q62 -11 127 -11q19 0 38 1 q85 4 144 15q8 2 24.5 2t32 -3.5t26 -11.5t8.5 -24q-4 -29 -37 -39t-54 -13q-59 -6 -126 -9q-23 -1 -46 -1q-45 0 -90 4q4 -12 9 -18q72 -170 99 -357q20 -134 20 -267q0 -52 -3 -105q-4 -100 -26 -189q-10 -41 -30 -83t-56 -66q-31 -23 -66 -23q-9 0 -18 1q-45 8 -78 42 q-31 31 -47.5 75t-26.5 87q-23 98 -29 199.5t-10 202.5q-1 67 -1 133v67q1 99 3 199q0 47 1 95t3 95q-20 16 -38.5 38t-24.5 50zM89 83q0 -69 1 -138q2 -100 6 -198.5t23 -197.5q6 -41 19.5 -91t47.5 -76q20 -16 36 -10.5t28 22t21.5 37t13.5 34.5q29 94 31 195q1 25 1 49 q0 77 -6 152q-12 188 -67 366q-16 47 -34.5 95.5t-43.5 93.5q-18 4 -35.5 10t-34.5 12q-2 -20 -2 -38.5v-39.5q-4 -104 -5 -208v-69z" />
<glyph unicode="g" horiz-adv-x="550" d="M-8 212v15q4 68 31.5 131.5t70.5 116.5q43 49 101.5 83t126.5 36q23 0 48 -5t38 -28q10 -16 6 -27.5t-14.5 -17.5t-25 -7t-26.5 -1q-11 1 -21 1q-29 0 -55 -9q-36 -11 -67 -34.5t-55.5 -54t-40.5 -63.5q-12 -25 -24.5 -62.5t-12.5 -75.5t15 -67.5t56 -38.5 q25 -4 47.5 5.5t41 27t33 40t24.5 46.5q4 25 9 49.5t11 49.5l10 28l4.5 13.5t6.5 13.5q16 25 43 14q16 -2 21 -16.5t5 -30.5q4 -16 4 -32q0 -20 -6 -42q-10 -39 -26 -73q-27 -145 -35 -291t-10 -291q0 -72 2 -143.5t8 -143.5q4 -53 12 -108q4 -23 10.5 -48.5t-0.5 -48.5 q-4 -18 -18 -27t-33 1q-23 14 -30 40.5t-11 51.5q-10 66 -14 132.5t-6 131.5q-2 68 -2 136q0 85 3 169q5 152 21 305q-35 -25 -72 -36q-18 -5 -36 -5q-22 0 -45 7q-66 16 -97 75q-26 51 -26 108z" />
<glyph unicode="h" horiz-adv-x="628" d="M-14 -97.5q-2 23.5 2 40.5l14 69v94q-1 121 -1 242v120q1 180 9 361q4 98 11.5 193.5t17.5 194.5q10 92 26.5 186t51.5 182q16 39 39.5 76t64.5 55q26 12 50 12q15 0 30 -4q39 -12 61 -51q23 -37 28 -81t7 -85q0 -96 -12 -190q-25 -180 -71 -354.5t-105 -346.5 q-57 -156 -123 -299q0 -2 -2 -2q0 -18 1 -37.5t1 -37.5q23 53 55 112q29 53 59.5 104.5t65.5 98.5q14 18 32.5 37.5t39 31t42 10.5t44.5 -24q23 -25 30 -59.5t7 -67.5q2 -26 2 -53t-2 -54l-8 -108q-4 -29 -5.5 -58.5t1.5 -57.5v-41t16 -33q16 -8 32.5 9t24.5 26 q16 20 29.5 40.5t26.5 43.5q12 23 21 45t17 45q6 14 11.5 29.5t17.5 25.5q14 14 26.5 13t20.5 -10t12.5 -23.5t2.5 -28.5q-4 -41 -24.5 -84t-43.5 -78q-25 -39 -56.5 -78t-76.5 -55q-20 -7 -38 -7q-23 -1 -42 11q-35 20 -49 61q-13 41 -13 87v18q3 56 7 104l8 112 q2 28 2 55.5t-2 54.5q0 10 -2 30.5t-12 18.5q-8 0 -17.5 -15.5t-13.5 -21.5q-10 -10 -16.5 -20.5t-14.5 -20.5q-59 -88 -106 -185.5t-82 -197.5q-8 -16 -13.5 -33.5t-9.5 -34.5q0 -20 1 -40.5t1 -41.5q0 -10 -2 -21t-7 -21.5t-13.5 -17.5t-20.5 -5l-14 6q-18 -14 -33 -4 q-16 10 -18 33.5zM84 526q113 279 180 580q20 92 34.5 186t16.5 191q0 25 -1 50.5t-5 47.5q-2 14 -7 34.5t-19 29.5q-16 10 -33 -1.5t-29 -31t-21.5 -41t-13.5 -31.5q-33 -90 -47 -185t-24 -190q-10 -94 -15.5 -187.5t-9.5 -189.5q-4 -66 -4 -131t-2 -131z" />
<glyph unicode="i" horiz-adv-x="364" d="M-224 843q0 7 1 15q6 66 50 122t97 93q50 39 114 65q41 16 83 16h5q21 0 42 -3q23 -4 43 -15.5t29 -33.5q4 -18 -2.5 -28.5t-17.5 -14.5t-24.5 -3t-25.5 7q-22 8 -46 8q-10 0 -20 -1q-34 -5 -68 -22.5t-63.5 -40t-50.5 -42.5q-23 -25 -44 -57q-19 -29 -19 -60v-6 q3 -38 33 -54q24 -12 50 -13q7 0 13 1q59 4 119.5 40t95.5 85q10 18 16.5 40t18.5 38q23 29 42 12.5t23 -43.5q2 -25 -6 -49.5t-23.5 -46t-34 -39.5t-36.5 -33q-52 -38 -116 -64q-56 -22 -112 -23q-9 0 -18 1q-63 4 -108 52q-40 42 -40 97zM6 272v18q2 75 6 122q2 27 4 52 t7 52q2 16 5 33.5t13 34.5q8 10 20.5 18t28.5 2q16 -10 20 -31.5t1 -37.5q-9 -80 -17 -161q-4 -45 -4 -90q0 -36 2 -73q4 -31 10.5 -70t30.5 -61q14 -12 30.5 -12t32 7t30 18t24.5 22q35 37 59.5 84t42.5 94q16 39 39 56.5t37 8.5q15 -9 15 -44q0 -29 -13 -58 q-25 -55 -59 -115q-31 -51 -77 -99t-112 -54q-11 -1 -21 -1q-59 0 -91 41q-36 48 -52 118q-12 57 -12 117v9z" />
<glyph unicode="j" horiz-adv-x="272" d="M-17 857q5 20 18 38t32.5 31.5t40.5 15.5q20 2 31.5 -6t15.5 -20.5t2 -27t-6 -26.5t-22.5 -26.5t-40 -22.5t-41 -7t-27.5 17q-8 14 -3 34zM-1 24q0 116 5 232q4 66 7 131.5t20 130.5q4 18 17 42t38 22q25 -4 29 -30t0 -44q-31 -197 -33 -394v-66q0 -165 8 -331 q4 -78 10 -156.5t17 -156.5q4 -29 8 -56.5t8 -56.5q4 -23 10.5 -48t-2.5 -48q-6 -16 -20.5 -23.5t-30.5 5.5q-20 14 -27.5 40.5t-11.5 49.5q-14 72 -21 145.5t-12 147.5q-14 174 -18 348q-1 58 -1 116z" />
<glyph unicode="k" horiz-adv-x="552" d="M11 138v16q1 39 1 77q-1 59 -1 119q0 118 3 236q4 176 17 354q6 96 15 189.5t26 185.5q14 88 37.5 181t78.5 165q27 35 64 55q29 16 61 16q9 0 19 -1q41 -6 67.5 -32t40.5 -61q28 -68 28 -145q0 -14 -1 -28q-6 -93 -18 -175q-29 -180 -85 -353t-128 -339 q-33 -72 -67 -141.5t-73 -137.5v-75.5t2 -73.5q0 -12 3 -44t1 -63.5t-11 -54t-36 -16.5q-25 6 -32 34.5t-9 49.5q-3 31 -3 62zM96 500q66 135 120 274t95 285q27 92 46.5 186t25.5 191q1 27 1 56v30q-1 45 -17 84q-18 41 -51 42h-2q-32 0 -60 -32q-29 -35 -44 -78t-26 -84 q-12 -45 -21 -91t-18 -93q-14 -94 -22 -188.5t-14 -188.5q-12 -197 -13 -393zM157 274.5q1 12.5 8 24.5t21 29q23 27 43.5 58.5t40.5 62.5q18 31 36 61.5t32 62.5q10 23 18.5 44.5t26.5 37.5q12 10 28.5 13.5t26.5 -13.5q12 -20 4 -45.5t-16 -44.5q-10 -25 -22.5 -47 t-24.5 -45q-29 -47 -59.5 -96.5t-77.5 -110.5q109 -141 223.5 -246.5t245.5 -175.5q59 -31 122.5 -53t129.5 -27q29 -2 56.5 0.5t55.5 10.5q20 6 44 14t44 -2q14 -8 16.5 -19.5t-4 -22.5t-16.5 -20.5t-18 -15.5q-23 -14 -50.5 -19t-54.5 -9q-21 -2 -42 -2q-45 0 -89 9 q-65 13 -125 36q-129 49 -238.5 128.5t-205.5 176.5q-35 35 -79 83t-71 91q-16 27 -23 43t-6 28.5z" />
<glyph unicode="l" horiz-adv-x="450" d="M-55 989q0 174 16 348q4 55 12.5 109.5t20.5 109.5q10 47 25.5 95.5t43.5 89.5q29 39 73 52q13 4 25 4q31 0 60 -23q41 -31 57.5 -82.5t26.5 -98.5q20 -103 20 -210q-1 -3 -1 -5q0 -110 -11 -219q-16 -211 -67 -416q-23 -90 -50.5 -178t-62.5 -174q-8 -16 -16 -36.5 t-19 -39.5q10 -43 24.5 -84t37.5 -79q20 -39 52 -67q18 -15 40 -15q18 0 39 10q43 20 71.5 64t51.5 85q6 12 16 34t24.5 42.5t30 32.5t31.5 6q12 -6 14 -20.5t-1 -33t-10 -36.5t-13 -31q-20 -43 -45 -85t-58 -77q-29 -33 -67 -55q-35 -20 -78 -20h-8q-47 0 -84 27.5 t-62 66.5q-53 86 -77.5 187.5t-40.5 199.5q-35 217 -40 435q-1 44 -1 87zM25 1023q0 -28 1 -56q4 -217 33 -432q2 -18 4.5 -37t6.5 -37q76 193 117.5 396.5t52.5 408.5q2 55 2 109.5t-4 107.5q-4 49 -12.5 100t-30.5 94q-10 23 -25.5 33t-36.5 -12q-16 -18 -24.5 -41 t-16.5 -45q-16 -51 -26.5 -105.5t-16.5 -107.5q-24 -187 -24 -376z" />
<glyph unicode="m" horiz-adv-x="847" d="M-49 556q-2 13 4 22q10 12 23.5 11t26.5 -9.5t24.5 -19.5t15.5 -19q18 -27 25 -64q10 16 18 34.5t18 35.5q16 29 38 54.5t51 41.5q23 12 46 12q11 0 21 -3q32 -9 55 -40q29 -39 38.5 -87t13.5 -99l18 31q23 39 54.5 80t72.5 61q27 12 48.5 7t37.5 -20.5t27.5 -37 t15.5 -43.5q8 -48 9 -96q0 -16 1 -32q0 -32 -2 -65q-2 -49 -3 -97v-14q0 -41 5 -83q2 -16 7.5 -36t27.5 -13q18 4 34.5 21t29.5 34q51 66 79 149q4 10 11.5 24.5t17.5 26t22.5 14.5t24.5 -11q12 -12 14.5 -28.5t-2 -35t-11.5 -36t-13 -29.5q-14 -31 -34.5 -68t-48.5 -69.5 t-60.5 -55t-71.5 -22.5h-6q-44 0 -66 28q-24 30 -34 71q-8 34 -8 71v8v9q1 46 1 77q2 49 4 99q1 17 1 33q0 33 -3 66q-2 14 -4 39t-12 35q-8 8 -14.5 1t-14.5 -13q-35 -35 -60.5 -81t-47.5 -91q-39 -84 -60 -164q-8 -29 -12 -61.5t-22 -55.5q-6 -6 -19 -14q-4 0 -6 -1t-6 1 q-23 4 -26 30t1 42q4 23 6 47t4 49q16 57 40 111.5t53 107.5q2 -29 1 -56.5t-1 -52.5q-2 -37 -4.5 -73.5t-6.5 -73.5q-2 -20 -4 -40.5t-8 -39.5q-6 -14 -16.5 -30.5t-26.5 -20.5q-18 -6 -31 6q-12 12 -14 30.5t0 35.5q6 45 18 96q8 67 10 135q0 14 1 27q0 54 -8 106 q-2 12 -6.5 33.5t-11.5 38t-19.5 21.5t-30.5 -13q-29 -31 -47.5 -72t-34.5 -80q-16 -41 -28.5 -82.5t-22.5 -84.5q-2 -8 -2 -25q-4 -33 -8.5 -64.5t-8.5 -64.5q-2 -23 -11 -50.5t-34 -37.5q-6 -2 -11 -2q-25 0 -30 43q-12 20 -10 44.5t6 47.5q4 33 11.5 63.5t15.5 61.5 q4 8 4 14q2 30 2 61q0 23 -1 47q-3 56 -19 105q-4 8 -10.5 22.5t-12.5 28t-8 26.5z" />
<glyph unicode="n" horiz-adv-x="614" d="M-59 659q0 23 12 26t28.5 -5t31 -20.5t20.5 -20.5q27 -41 36 -91t15 -97q2 -16 3 -34t1 -34q12 18 23.5 35.5t25.5 36.5q29 41 64 80.5t82 62.5q27 12 48 8t36.5 -19.5t27 -37t15.5 -45.5q7 -44 7 -88v-12q-1 -50 -5 -100l-8 -100q-2 -26 -3 -53q0 -24 2 -47 q0 -8 1.5 -19t4.5 -21.5t10 -15.5t19 -1q14 4 26.5 16.5l22.5 22.5q33 33 55.5 71t45.5 79q10 18 18 37.5t17.5 35t19.5 23.5t23 2q12 -6 16 -21.5t3 -34t-6 -36t-9 -27.5q-16 -33 -37 -69.5t-45.5 -70.5t-54 -61.5t-64.5 -42.5q-22 -9 -44 -9q-19 0 -37 8q-38 16 -54 59 q-16 40 -16 83q0 40 4 91q4 53 8 104t4 105q0 23 -1 46t-7 46q-4 14 -7.5 16t-15.5 -4q-39 -23 -69.5 -66.5t-55.5 -80.5q-25 -39 -47 -81t-39 -85q-2 -25 -3 -49.5t-1 -49.5q-2 -27 -6 -57.5t-29 -46.5q-20 -14 -31.5 -7t-15.5 23q-10 -4 -22 7q-14 12 -16.5 33.5t1.5 37.5 q10 35 19.5 68t21.5 65q2 33 2 66q0 49 -4 99q-6 83 -28 161q-10 25 -25.5 52.5t-13.5 53.5z" />
<glyph unicode="o" horiz-adv-x="595" d="M5 257q1 62 13 124q16 78 54 143q16 29 40.5 57.5t59.5 34.5q16 4 32.5 -3t18.5 -25q2 -16 -9 -28.5t-21 -22.5q-27 -18 -44.5 -46t-30 -61t-19.5 -66.5t-9 -62.5q-3 -23 -3 -54v-16q1 -41 10 -78.5t29.5 -67.5t57.5 -36q8 -1 15 -1q30 0 54 18q30 24 49.5 61t31.5 78 t16 69q6 29 9 58.5t-1 60.5q-4 0 -8 4q-25 14 -49.5 42t-24.5 59q0 27 18.5 44t45.5 13q35 -4 57.5 -35t32.5 -61v-2q43 -12 93 -14h6q46 0 85 22q38 21 58 21q6 0 10 -2q18 -8 13 -28t-28.5 -44.5t-60.5 -36.5q-39 -11 -81 -13q-7 0 -15 -1q-34 0 -68 6q0 -61 -14 -122 t-37 -114q-16 -37 -39.5 -70.5t-54.5 -57t-69 -33.5q-15 -4 -32 -3q-24 0 -49 8q-39 12 -65.5 39t-42.5 62t-23.5 73.5t-9.5 75.5q-1 16 -1 32z" />
<glyph unicode="p" horiz-adv-x="532" d="M-72 573q-10 18 15.5 40t66.5 30q2 68 3 136.5t5 138.5q0 12 2.5 26t6.5 28.5t12 26t22 15.5t23.5 -2t13.5 -17.5t5 -25t1 -23.5q-4 -76 -6 -149.5t-4 -149.5q18 2 36 2t36 -2q37 -4 76 -13t73.5 -26.5t62.5 -45t42 -64.5q15 -39 15 -76q0 -28 -9 -56 q-20 -63 -64.5 -120.5t-101.5 -104.5t-104 -82q-12 -10 -31 -20t-37 -10q2 -117 4 -232.5t10 -232.5q4 -25 7.5 -51.5t-3.5 -49.5q-6 -20 -22 -31.5t-35 5.5q-25 23 -28 60.5t-5 66.5l-6 180q-3 204 -3 408t3 409q-41 -4 -59.5 -1t-22.5 13zM88 115l2 2q20 18 43 33.5 t45 31.5q29 23 54.5 46.5t48.5 52.5q20 23 38.5 52t26.5 61t2 62.5t-35 55.5q-45 37 -103 46q-48 7 -97 7h-21q-4 -113 -4 -225.5v-224.5z" />
<glyph unicode="q" horiz-adv-x="602" d="M-181 -275.5q13 15.5 36.5 25.5t49 15.5t38.5 7.5q68 12 136 20t136 17q16 4 33.5 5t34.5 3q4 57 8 114.5t12 112.5q-41 -37 -95 -53q-23 -7 -45 -7q-32 0 -65 13q-70 27 -93 84q-19 47 -19 100q0 12 1 24q5 66 32.5 131.5t62.5 111.5q45 59 108.5 99t139.5 46 q25 2 54.5 -1t49.5 -24q10 -12 12.5 -26.5t-10.5 -26.5q-10 -10 -26.5 -10t-30.5 2t-28 2q-70 0 -127 -42q-70 -50 -111 -122q-16 -29 -30.5 -71t-16.5 -83q-1 -5 -1 -11q0 -34 13 -64q16 -35 61 -47q15 -4 29 -4q20 0 39 9q31 15 55.5 43.5t42 64.5t25.5 65q10 27 10 59.5 t16 57.5q18 29 40 16.5t30 -39.5q6 -25 2 -53q4 -12 3 -27.5t-5 -25.5q-29 -100 -43 -203t-21 -207q137 12 274.5 19.5t278.5 7.5q33 -1 66 -1h35h10q46 0 90 -8q18 -4 40 -14t22 -33q0 -27 -26 -33t-44 -4q-132 10 -263 10q-56 0 -113 -2q-187 -6 -374 -24v-106 q0 -63 2 -126t11 -126q4 -25 7 -48.5t9 -48.5q4 -18 5 -45.5t-21 -40.5q-23 -10 -38.5 7.5t-25.5 53.5t-16 80t-8 86t-3 73.5t-1 39.5q-2 48 -2 96.5t2 96.5q-68 -8 -134.5 -17.5t-132.5 -19.5q-27 -4 -52.5 -9t-51.5 -12q-18 -4 -45 -7t-43 18q-14 20 -1 35.5z" />
<glyph unicode="r" horiz-adv-x="503" d="M-35 21.5q0 25.5 4 41.5q23 72 30 147t11 146q6 86 6 174v9q-25 20 -24 55q0 23 11 37t28.5 18t34 -3t26.5 -28q4 -8 8 -24q16 -4 35 -3t35 -1q20 0 39.5 -3t35 -11.5t23.5 -23.5t6 -42q0 -27 -5 -52.5t-7 -51.5q-4 -33 -6 -64t-4 -63q0 -18 -1 -50t3 -62t17.5 -53.5 t41.5 -27.5q23 -4 44.5 10.5t39 36t30.5 45t24 39.5l45 84q16 31 35.5 44t35.5 5q14 -8 15.5 -32.5t-11.5 -53.5q-16 -37 -41.5 -85t-58.5 -90q-33 -41 -75 -67q-34 -21 -73 -21q-9 0 -18 1q-57 8 -86 45t-40 86q-10 45 -10 94v9q1 54 3 96l12 117q2 10 5.5 23t3.5 24 q-2 10 -3.5 11t-11.5 1q-14 2 -28.5 2h-28.5q-16 0 -23 2v-66q-4 -55 -6 -110t-8 -109q-4 -47 -10 -93t-21 -89q-6 -18 -23.5 -39.5t-39.5 -15.5q-25 6 -25 31.5z" />
<glyph unicode="s" horiz-adv-x="466" d="M-11.5 257q-0.5 28 7.5 46q8 25 17.5 61.5t16.5 76.5t12 78t9 65v20l-8 39q-4 23 -3 44.5t17 37.5q25 23 50.5 9.5t31.5 -42.5q4 -20 3 -41.5t-5 -44.5q8 -27 18.5 -51.5t22.5 -48.5q18 -37 41 -73t42.5 -72.5t34.5 -75.5t19 -82q2 -15 1 -30q0 -53 -22 -97 q-28 -58 -95 -82q-10 -4 -25.5 -6t-31 -1t-26 9t-10.5 24q0 27 29 39.5t47 22.5q27 14 39 37.5t13.5 52.5t-7 57.5t-18.5 51.5q-20 43 -45 84t-47 84q-8 -47 -17.5 -92.5t-21.5 -73.5q-6 -16 -21.5 -36t-38.5 -20q-29 2 -29.5 30z" />
<glyph unicode="t" horiz-adv-x="286" d="M-395 953.5q4 11.5 16 17.5t28.5 7t28.5 -1q82 -18 164 -27.5t166 -13.5q4 76 9.5 150.5t17.5 148.5q4 23 13 47.5t34 28.5q14 2 22.5 -4.5t12.5 -18.5t5 -25.5t-1 -21.5q-23 -154 -31 -307q25 0 50.5 1t52.5 3q47 4 93 7t93 11q10 2 29.5 6.5t38 3.5t33 -8.5t14.5 -25.5 t-12.5 -28.5t-30 -17.5t-36 -10.5t-30.5 -5.5q-47 -6 -93 -9t-93 -5q-29 -2 -57.5 -2h-57.5q-4 -100 -5 -200v-41q0 -81 3 -162q4 -131 12 -262.5t35 -260.5q4 -25 13.5 -51.5t4.5 -50.5q-4 -16 -16 -27.5t-29 -5.5q-16 6 -27.5 24.5t-15.5 35.5q-25 72 -32 149.5t-13 151.5 q-14 176 -16 351v70q0 140 6 281q-139 4 -270 25q-29 4 -66 11t-55 34q-12 16 -8 27.5z" />
<glyph unicode="u" horiz-adv-x="536" d="M-1 212q0 23 1 46q4 64 15.5 133.5t23.5 132.5q4 20 15.5 42t33.5 26q14 2 23.5 -5t12.5 -19.5t3 -26t-2 -21.5q-6 -33 -19.5 -99.5t-19.5 -136.5q-3 -35 -3 -68q0 -34 3 -64q6 -60 37 -80q14 -12 29 -9q29 4 54 50.5t45.5 106t33 116.5t16.5 84q4 29 5 58.5t16 53.5 q10 16 25 20.5t32 -11.5q15 -22 15 -52q0 -7 -1 -14q4 -19 0 -35q-4 -25 -9 -65.5t-8 -85.5q-2 -27 -2 -53q0 -17 1 -34q2 -42 14 -65q12 -27 30.5 -20t36 27t32 43.5t18.5 33.5q6 12 11 30.5t13.5 36t19.5 31t28 17.5q18 2 26 -7.5t11 -23.5t0 -30.5t-5 -26.5 q-10 -31 -28.5 -68t-43 -69.5t-56 -54t-68.5 -21.5q-41 0 -68 24.5t-43 65.5q-29 -59 -67 -102q-37 -41 -82 -41h-4q-35 0 -63 18t-48 45q-29 35 -36 91q-4 36 -4 76z" />
<glyph unicode="v" horiz-adv-x="516" d="M2 441.5q0 33.5 6 66.5q4 16 16.5 36.5t34.5 18.5q23 -2 29 -26.5t2 -42.5q-3 -39 -3 -79v-19q1 -50 7 -99q4 -33 12.5 -65.5t24.5 -63.5q2 -4 8 -14.5t13.5 -21.5t14.5 -19.5t13 -8.5t13.5 12.5t13.5 27t11 27.5t7 17q14 35 24.5 71t16.5 73q6 30 12 64q3 19 3 40 q0 14 -2 29q-18 10 -37 29q-23 23 -28 54.5t24 53.5q29 23 57.5 10.5t42.5 -41.5q14 -31 16 -55q37 -16 86 -26q35 -8 74 -9q15 0 29 2q39 2 60.5 -7t23.5 -22.5t-13.5 -26.5t-50.5 -17q-28 -4 -59 -4q-20 0 -41 2q-53 4 -103 20q-2 -82 -24.5 -164t-56.5 -153 q-6 -14 -15.5 -31t-20 -32t-24.5 -26.5t-31 -13.5q-16 -2 -32.5 8.5t-26.5 20.5q-41 37 -65.5 84t-38.5 98q-10 39 -14.5 78t-6.5 78q-2 33 -2 66.5z" />
<glyph unicode="w" horiz-adv-x="849" d="M4 506.5q0 58.5 8 116.5q4 18 15.5 41.5t33.5 27.5q27 2 33 -25.5t4 -45.5q-10 -92 -10 -183.5t12 -183.5q4 -43 12.5 -87t26.5 -85q8 -14 17.5 -19.5t21.5 11.5q16 23 31 53q18 41 33.5 84t25.5 90q-4 20 -7 39.5t-7 40.5q-4 31 -7 69v8q0 32 19 56q14 18 31 12 q6 10 14 13q12 4 23.5 -5.5t19.5 -19.5q16 -23 19 -52.5t-2 -58.5q-4 -25 -7.5 -48t-9.5 -48q6 -25 14.5 -49.5t16.5 -46.5q23 -66 51 -117q8 -16 15.5 -19t17.5 15q31 59 47 131t27 137q4 23 8 47.5t8 49.5q-18 18 -29.5 41.5t-11.5 56.5q0 27 14.5 43t34 21.5t39 -5 t29.5 -34.5q8 -18 10 -39t0 -43q41 -20 103 -20q7 0 14 -1q54 0 100 4q31 4 65 5t34 -15t-23 -38.5t-61 -29.5q-51 -10 -118 -10t-124 21q-6 -39 -13.5 -77t-15.5 -77q-10 -45 -23.5 -90t-29.5 -86q-10 -27 -23.5 -53.5t-35.5 -42.5q-25 -16 -46.5 -12.5t-40 20t-33 39 t-22.5 41.5q-10 23 -20 44t-19 44q-16 -41 -34.5 -79t-45.5 -71q-21 -25 -49 -38q-12 -5 -23 -5q-18 0 -38 11q-27 14 -42 41.5t-26 56.5q-27 76 -36 155.5t-13 157.5q-2 57 -2 115.5z" />
<glyph unicode="x" horiz-adv-x="507" d="M-281 -303q4 35 17.5 70.5t27.5 68.5q33 72 71 140.5t79 136.5l125 196l-21 53q-12 29 -23 60t-22 61q-6 16 -13 35t-9 37q-2 16 3 36.5t26 24.5q23 4 36 -16t17 -37q16 -43 31.5 -86t31.5 -86q47 72 96.5 139.5t98.5 137.5q29 41 57.5 78.5t59.5 76.5q12 16 32.5 32.5 t44.5 10.5q29 -10 19.5 -38t-21.5 -44q-92 -119 -179 -238.5t-171 -242.5q4 -12 10.5 -24.5t12.5 -24.5q16 -37 33.5 -73t39.5 -68q16 -25 37 -48.5t53 -9.5q29 12 54.5 35t47 50.5t39 58t32.5 57.5q10 23 19 48.5t30 41.5q14 12 28.5 11t24.5 -17q10 -20 6 -46t-16.5 -51.5 t-27.5 -48t-26 -38.5q-35 -53 -82 -105.5t-106 -75.5q-22 -8 -42 -8q-14 -1 -26 3q-32 10 -56.5 32.5t-45 52t-37.5 58.5q-16 27 -29.5 53.5t-27.5 54.5l-29 -45q-43 -70 -84 -139.5t-78 -140.5q-37 -66 -61 -140q-10 -27 -16.5 -58.5t-26.5 -51.5q-14 -14 -26.5 -13.5 t-20.5 11t-12.5 26t-4.5 27.5z" />
<glyph unicode="y" horiz-adv-x="571" d="M0 207v31q0 61 6 118q8 57 19.5 115.5t31.5 114.5q6 20 20.5 40.5t37.5 20.5q14 0 22 -8t9 -20.5t-1 -25.5t-4 -22q-29 -84 -45 -171q-13 -70 -13 -140q0 -17 1 -35q0 -33 6 -76t33 -67q14 -14 28.5 -12t26.5 11t22.5 23.5t16.5 26.5q41 63 68.5 134t46.5 143 q4 14 6 29.5t6 31.5q4 25 8 39q4 16 16.5 33.5t32.5 13.5q23 -4 28 -28t3 -40q-10 -172 -14 -341q-2 -84 -2 -169.5t2 -171.5q0 -119 6 -237q2 -23 3 -44.5t5 -43.5q2 -23 5 -44.5t-7 -41.5q-4 -16 -17.5 -24.5t-29.5 1.5q-20 10 -26.5 35t-10.5 45q-4 57 -6 113.5t-2 113.5 q-3 124 -3 248.5t3 249.5q-18 -39 -40 -73.5t-48 -63.5q-23 -23 -49.5 -39t-61.5 -12t-60.5 25.5t-41.5 49.5q-35 66 -37 144z" />
<glyph unicode="z" horiz-adv-x="471" d="M-43 149q0 39 16 77q29 68 72 122q16 23 35.5 43.5t40.5 40.5q-29 2 -64 17q-20 8 -43.5 22t-27.5 39q-4 16 3 24.5t19 11.5t25.5 2t23.5 -7q45 -27 91 -27h12q52 4 96 39q8 6 20.5 13t26.5 10.5t25.5 0t17.5 -17.5q10 -27 -11.5 -49.5t-39.5 -32.5l-2 -2 q-66 -53 -131.5 -115.5t-102.5 -140.5q-16 -35 -19 -78v-7q0 -38 32 -62q33 -25 76 -25h6q47 2 86 16q68 25 121 75t88 114q10 23 20 53.5t37 42.5q23 12 35 -5t14 -38q0 -33 -16.5 -64.5t-34.5 -60.5q-37 -59 -94 -108q-53 -47 -123 -78q-62 -27 -127 -27h-17 q-59 4 -107 32t-69 87q-10 32 -10 63z" />
<glyph unicode="{" horiz-adv-x="661" d="M106 377q-10 27 16 37t46 12q29 2 58.5 9t52.5 30q20 23 25 52.5t3 57.5q-2 78 -19.5 154t-23.5 154q-4 59 6.5 119.5t48.5 109.5q29 39 78 70.5t97 42.5q10 2 23 1t22.5 -6.5t14.5 -13.5t1 -22q-8 -27 -33.5 -38t-48.5 -22q-53 -25 -86 -62.5t-39 -96.5 q-8 -66 4.5 -132.5t22.5 -132.5q10 -63 15 -130.5t-25 -127.5q-10 -20 -24.5 -34.5t-31.5 -26.5q39 -41 43 -92t-7 -104.5t-31.5 -107.5t-30.5 -100q-12 -53 -10.5 -109t38.5 -101q18 -23 43 -39.5t52 -26.5q18 -10 38.5 -14t38.5 -15q18 -10 28.5 -28.5t-11.5 -34.5 q-16 -14 -41 -11t-43 9q-47 14 -92 39.5t-76 66.5q-41 51 -51.5 106.5t-3 113t25 114.5t33.5 111q12 41 20.5 89t-28.5 83l-23 16q-10 -2 -19 -3t-20 -1q-20 0 -43.5 6t-32.5 29z" />
<glyph unicode="|" horiz-adv-x="346" d="M103.5 -171q0.5 89 0.5 179q4 395 25 789q4 86 10 170t17 168q2 23 11 53.5t38 34.5t35 -24t2 -48q-25 -203 -35 -405.5t-14 -407.5q-6 -188 -7 -377q2 -86 6.5 -169t4.5 -167q0 -18 -9.5 -43.5t-35.5 -21.5q-27 6 -34 36.5t-9 53.5q-6 90 -5.5 179z" />
<glyph unicode="}" horiz-adv-x="657" d="M104 -376.5q-6 20.5 17 42.5q16 16 39.5 25.5t44.5 19.5q106 53 108 166q2 66 -11 128.5t-23 125.5q-10 53 -9.5 109.5t29.5 103.5q10 16 22.5 27.5t26.5 21.5q-35 39 -41 87t3 99.5t25.5 103.5t29.5 97q16 55 23 116.5t-17 117.5q-23 53 -66 80.5t-94 44.5q-18 6 -45 19 t-21 40t36 29t48 -2q51 -14 97.5 -42t79.5 -69q43 -53 55 -112.5t6 -122t-24.5 -125t-34.5 -119.5q-6 -23 -13.5 -47.5t-8.5 -51t4 -50t24 -42.5l22 -20l41 6q20 0 45 -7t31 -30q4 -14 -2 -23.5t-16.5 -14.5t-22.5 -7t-20 -2q-29 -2 -59 -7t-52 -28q-18 -16 -23.5 -42.5 t-5.5 -49.5q-2 -78 17.5 -150.5t25.5 -148.5q4 -63 -11 -123.5t-62 -107.5q-37 -37 -95 -64q-20 -10 -41.5 -19t-44.5 -5q-31 2 -37 22.5z" />
<glyph unicode="~" horiz-adv-x="645" d="M125 229.5q4 20.5 10 36.5q14 33 41 75t64 52q35 8 52 -18.5t34 -48.5q8 -12 22 -29.5t31.5 -31t35 -15.5t34.5 16q12 14 16 35t8 41t9 38.5t22 31.5q14 12 25.5 8t19.5 -15.5t11 -27t3 -25.5q-2 -39 -15 -77.5t-42 -67.5q-35 -37 -80 -38t-86 28q-20 12 -35.5 29.5 t-32.5 35.5l-8 12q-2 2 -3 5.5t-3 5.5t-2 4q-6 2 -12 -3t-11.5 -14.5t-10.5 -18.5t-7 -13q-14 -31 -35 -47q-10 -6 -23.5 -7.5t-23.5 9.5q-12 14 -8 34.5z" />
<glyph unicode="&#xa1;" horiz-adv-x="454" d="M105 -342q2 21 6 37q47 135 79.5 274.5t51.5 282.5q8 53 13 106.5t5 106.5q0 12 -1 33.5t2 42t13.5 34t30.5 11.5q20 -4 29.5 -19.5t12.5 -37t1 -43t-2 -35.5q-4 -55 -10 -109.5t-14 -108.5q-16 -123 -42 -242.5t-61 -238.5q-8 -29 -18.5 -63.5t-34.5 -57.5 q-10 -10 -24.5 -13t-26.5 7q-12 12 -10 33zM189 814q-3 34 14 63q16 29 50 44t64 -3q31 -18 34 -55t-13 -66t-51 -44.5t-66 7.5q-29 20 -32 54z" />
<glyph unicode="&#xa2;" horiz-adv-x="712" d="M104.5 362.5q4.5 104.5 38.5 196.5q12 35 34 72t51.5 66.5t65.5 49t77 21.5q8 27 17 51.5t20 50.5q8 18 24.5 38t40.5 16q12 -2 18.5 -11.5t6.5 -20.5t-3.5 -23.5t-5.5 -20.5q-10 -25 -18 -50.5t-16 -49.5q33 -20 49 -57.5t24.5 -79.5t8.5 -86v-76q-2 -25 -6.5 -60 t-32.5 -45q-14 -6 -23.5 -1t-15.5 16.5t-7 25.5t-1 25q2 53 1 110.5t-18 110.5l-8 22q-29 -98 -48.5 -197.5t-35.5 -197.5q-16 -84 -25 -166q29 -10 59 -11t56 13q37 18 59.5 54t30.5 77q4 16 10.5 36t22.5 30q16 8 28.5 0t18.5 -23q16 -37 2 -81t-35 -74q-23 -37 -57.5 -66 t-75.5 -41q-63 -16 -127 2q0 -31 -3 -66.5t-30 -52.5q-18 -10 -29 -1.5t-17.5 24.5t-8.5 34.5t-2 28.5q2 18 3 37t5 39q-59 43 -88 115q-39 92 -34.5 196.5zM186.5 375.5q-1.5 -56.5 6.5 -103.5q6 -35 17 -65.5t32 -56.5q20 131 45.5 262t58.5 260q0 4 2 8q-10 -4 -17 -8 t-16 -8q-43 -29 -71.5 -76t-42 -101.5t-15 -111z" />
<glyph unicode="&#xa3;" horiz-adv-x="1024" d="M106 168q10 23 35 32t47 13q20 6 42 9t44 5q2 80 3.5 160t7.5 160q4 49 10 98t16 96q8 39 21.5 78t42.5 68q29 33 74 40t81 -22q35 -27 49.5 -69.5t22.5 -83.5q16 -86 16 -171t-4 -171q0 -23 -7 -53.5t-36 -37.5q-14 -4 -22 3.5t-12.5 18.5t-5.5 23.5t-1 22.5 q2 59 3.5 115.5t-1.5 115.5q-2 47 -6 105.5t-32 101.5q-16 25 -32 22t-29 -19.5t-22.5 -38t-13.5 -33.5q-16 -53 -21 -109.5t-9 -111.5q-6 -76 -7.5 -152t-1.5 -152q27 2 51.5 1t53.5 -3q18 0 38.5 -2t39.5 -8q16 -4 30.5 -16.5t10.5 -30.5q-4 -23 -27 -28t-41 -3 q-39 0 -77 5.5t-77 5.5h-4q-2 -43 -1 -85t-1 -83v-12.5t-2 -16.5q78 -2 158 -4t158 -6h58t89 -6.5t78 -21.5t27 -46q-4 -16 -17.5 -21.5t-32 -5.5t-37 2t-28.5 4q-84 10 -164 13q-92 4 -182 4t-183 2q-25 2 -54 3t-48 22q-14 14 -11 26t13 19.5t25.5 11.5t27.5 4h39 q-2 12 -1 22.5t1 18.5l4 147q-10 -2 -22 -3t-23 -5q-23 -4 -44 -12t-44 -4q-18 4 -30.5 16t-2.5 33z" />
<glyph unicode="&#xa4;" horiz-adv-x="768" d="M103.5 96.5q0.5 14.5 8 27.5t17.5 26.5t16 21.5q6 10 13.5 17.5t15.5 17.5q-27 59 -14 121q8 57 45 106l-15 21q-14 23 -29.5 48t-17.5 52q0 14 7.5 28.5t23.5 16.5q16 0 29.5 -14.5t23.5 -26.5l41 -63q14 10 43 20q23 6 45.5 8t40.5 -12q12 -12 15 -16q6 6 15 10t19 8 q37 6 70 -10l4 2q23 14 47.5 30.5t50.5 18.5q16 2 30 -5t16 -24q2 -16 -11.5 -30.5t-27.5 -22.5l-43 -31q20 -39 26 -69q10 -59 -7 -115.5t-58 -97.5q16 -18 39 -33q8 -6 19 -17.5t18.5 -24.5t8.5 -26.5t-12 -23.5q-12 -10 -26.5 -8t-28.5 9t-26.5 17t-20.5 19 q-25 16 -41 37q-47 -23 -101.5 -25t-101.5 20q-29 14 -45 31l-22 -29q-6 -8 -17.5 -20t-23.5 -19.5t-25.5 -8.5t-23.5 12q-10 12 -9.5 26.5zM239 302q-3 -34 11 -64q14 -33 43 -50.5t60.5 -20.5t64.5 7t57 33q37 35 51.5 91t-16.5 101q-10 12 -22.5 18.5t-25.5 9.5t-26.5 8 t-23.5 16q-4 4 -6.5 5t-4.5 5q-14 -15 -41 -19q-33 -6 -59.5 -27.5t-42.5 -50t-19 -62.5z" />
<glyph unicode="&#xa5;" horiz-adv-x="774" d="M104 -41q8 27 36 37t50 16q35 10 70 14.5t70 8.5q6 0 13 1t13 1q2 18 3 36.5t6 37.5q-45 -4 -80 -13q-23 -6 -44.5 -13t-43.5 -3q-18 4 -30.5 16.5t-2.5 30.5q10 23 34.5 32t47.5 15q29 8 60.5 11t62.5 6h10q2 10 3 19t5 19q4 14 7 27.5t7 28.5q-43 -41 -95 -66.5 t-107 -13.5q-43 10 -57.5 41t-13.5 70.5t12.5 79.5t19.5 69q23 78 42 156.5t21 162.5q0 29 -4 64t12 61q12 20 23.5 20.5t22 -10t17.5 -26.5t9 -29q14 -100 -6.5 -198.5t-48.5 -194.5l-27 -90q-4 -16 -12 -44t0 -44q6 -12 20.5 -11t30.5 8t31.5 16t21.5 16q47 35 86 80 t68 96q10 29 21.5 58.5t25.5 57.5q4 12 9 25.5t14 26.5l12 51q2 10 3 24.5t6 27.5t13.5 23.5t22.5 12.5q23 4 33 -20.5t10 -43.5q2 -29 -5 -57.5t-18 -56.5q-12 -41 -28.5 -78t-36.5 -74q-27 -70 -48.5 -140.5t-37.5 -141.5q14 0 27.5 -1t29.5 -1q18 -2 39 -4.5t39 -6.5 q16 -6 30.5 -18t10.5 -31q-4 -23 -26.5 -27t-41.5 -4q-31 2 -62.5 5.5t-62.5 5.5q-2 -16 -4 -34t-2 -34q41 2 83 1t83 -5q16 -2 40 -12.5t24 -32.5q2 -25 -24 -32t-44 -7q-39 0 -78 2t-80 2q0 -16 1 -34.5t-3 -33t-12 -22.5t-27 -2q-25 10 -35 34.5t-12 53.5q-23 -4 -45 -7 t-45 -7q-10 -2 -39.5 -11.5t-59.5 -12.5t-50.5 4t-12.5 36z" />
<glyph unicode="&#xa6;" horiz-adv-x="374" d="M102 -205q0 104 4.5 206.5t18.5 205.5q4 27 9 57.5t24 50.5q10 10 23.5 13.5t25.5 -6.5t13 -29t-1 -35q-18 -117 -27.5 -231.5t-5.5 -233.5q0 -39 4.5 -75.5t8.5 -73.5q2 -10 2 -25.5t-3 -29t-12.5 -22.5t-23.5 -9q-29 2 -38 33.5t-13 54.5q-4 37 -5.5 74.5t-3.5 74.5z M137 642q0 38 2 79q4 98 11.5 194.5t25.5 192.5q4 27 10.5 57.5t28.5 46.5q18 12 29.5 9.5t17.5 -15t8 -29t0 -28.5q-23 -113 -36 -224.5t-13 -226.5q0 -37 2 -72.5t6 -72.5v-23.5t-4 -25.5t-12 -20.5t-23 -8.5q-29 4 -38 36t-11 54q-4 39 -4 77z" />
<glyph unicode="&#xa7;" horiz-adv-x="524" d="M104 401q2 29 7.5 66t25.5 59q10 10 23.5 18.5t27.5 2.5q18 -10 18.5 -33t-3.5 -39q-14 -59 -14.5 -115.5t22.5 -113.5q25 -55 60.5 -102.5t62.5 -100.5q23 -47 20.5 -98t-35.5 -95q-23 -31 -66.5 -53t-84.5 -10q-23 6 -30 22.5t9 32.5q12 16 32 21.5t36 13.5 q49 20 53 63.5t-18 84.5q-25 47 -55.5 88t-53.5 88q-43 96 -37 200zM169.5 719q2.5 51 35.5 92q23 31 66.5 54.5t84.5 11.5q20 -6 28.5 -22.5t-7.5 -33.5q-14 -16 -32.5 -21t-37.5 -14q-47 -23 -52 -64.5t17 -82.5q27 -47 56.5 -88t52.5 -88q45 -100 39 -203 q-2 -29 -8 -64.5t-25 -60.5q-10 -10 -23.5 -17t-27.5 -1q-20 10 -19 32.5t5 38.5q14 59 14 115.5t-25 114.5q-23 55 -59.5 102t-61.5 101q-23 47 -20.5 98z" />
<glyph unicode="&#xa8;" horiz-adv-x="485" d="M104 773q3 22 7 38q2 6 9 23.5t16 36t18.5 36t15.5 23.5q25 20 45 -2q14 -16 15 -36t-1 -40q-4 -29 -21.5 -54.5t-37.5 -45.5q-10 -10 -25.5 -16.5t-27.5 3.5q-16 12 -13 34zM257 771q3 30 14.5 62.5t25.5 60.5t25 36q25 20 43 -2q23 -25 15.5 -74t-56.5 -111 q-10 -10 -25 -17t-29 3q-16 12 -13 42z" />
<glyph unicode="&#xa9;" horiz-adv-x="1296" d="M103 304q1 114 24 225.5t63 211.5q39 96 99.5 184.5t150.5 143.5q35 23 77 41t83 20q18 0 42 -9t26 -31q2 -25 -21 -33t-39 -10q-53 -8 -102 -37q-66 -35 -115 -93.5t-84 -123.5q-53 -98 -80.5 -206t-36.5 -218q-6 -92 4.5 -194.5t46 -196t98 -167t161.5 -110.5 q147 -53 286 23q78 43 134.5 116.5t93.5 153.5q45 98 70.5 209.5t27.5 225.5t-21.5 224.5t-74.5 208.5q-51 96 -125 164q-20 18 -41 33.5t-43 30.5q-16 10 -34.5 19t-27.5 30q-10 27 8.5 37t41.5 8t42 -13.5t40 -23.5q43 -29 80.5 -67t70.5 -79q66 -88 103.5 -190t52 -212 t7.5 -220.5t-32 -212.5q-20 -84 -56 -171t-88 -164t-122 -135t-158 -83q-82 -23 -161.5 -12.5t-150.5 47.5t-128 95t-96 130q-51 96 -74 206.5t-22 224.5zM416 310.5q-4 58.5 1 116.5t17 112q10 45 28.5 98t48.5 97t72 75t97 35q59 2 92 -35t47.5 -92t16.5 -114.5t2 -100.5 v-77t-31 -65q-16 -12 -27.5 -8t-17.5 15.5t-8 27t-2 27.5q0 35 1 69.5t-1 69.5q0 66 -13 127q-4 20 -14 45t-35 29q-29 2 -52.5 -12.5t-41.5 -38t-32.5 -51t-22.5 -48.5q-23 -57 -33 -119.5t-10 -123.5q0 -43 6 -98.5t25.5 -103.5t55.5 -83t91 -39q25 -2 46 8t37.5 26.5 t28 38t19.5 42.5q6 16 10 32.5t6 32.5q4 16 7.5 36t19.5 32q18 14 33.5 2t21.5 -31q8 -20 6 -41.5t-8 -42.5q-10 -47 -32.5 -90t-57.5 -76q-41 -37 -89 -47t-94 2.5t-87 44t-66 76.5q-29 49 -43 105.5t-18 115z" />
<glyph unicode="&#xaa;" horiz-adv-x="849" d="M154 367q-14 72 7 142.5t60 129.5q37 57 92.5 100t124.5 56q29 4 65 3t56 -26q10 -10 11 -24.5t-11 -24.5q-10 -10 -25.5 -11t-29.5 1q-43 6 -81 -8.5t-71 -41t-58.5 -61.5t-39.5 -72q-14 -35 -21.5 -75.5t3.5 -79.5q10 -35 36.5 -53.5t61.5 -8.5q47 12 77.5 55.5 t47.5 94.5l6 55q2 14 4 30.5t8 33.5q-2 18 -1 36.5t9 34.5t23.5 21.5t32.5 -8.5q20 -18 23 -47t1 -54q-2 -35 -9 -67.5t-17 -63.5q0 -41 16 -72q12 -27 30.5 -20.5t36 27t32 44t18.5 33.5q6 12 11 31t13.5 36t19.5 30.5t27 17.5q18 2 26.5 -7t11.5 -23.5t0 -31t-5 -26.5 q-10 -31 -28.5 -67.5t-43 -69.5t-56.5 -54.5t-68 -21.5q-39 0 -62.5 18.5t-38.5 47.5q-23 -33 -53.5 -57.5t-69.5 -35.5q-72 -18 -130 22t-72 112z" />
<glyph unicode="&#xab;" horiz-adv-x="856" d="M104 367q-4 18 7 30q4 12 16.5 24.5t22.5 20.5q37 25 65.5 44.5t52 38t44 37t44.5 42.5q6 6 16.5 14.5t20.5 13.5t21.5 5t19.5 -10q18 -23 3 -49.5t-27 -42.5q-18 -23 -44 -46.5t-56.5 -45t-61.5 -39t-58 -29.5q43 -51 91.5 -93t113.5 -67q18 -6 42 -24.5t18 -43.5 q-8 -27 -38 -24.5t-46 10.5q-61 25 -116.5 68t-100.5 90q-16 16 -32 34.5t-18 41.5zM350 367q-4 18 6 30q4 12 16.5 24.5t22.5 20.5q37 25 65.5 44.5t52.5 38t44.5 37t44.5 42.5q6 6 16.5 14.5t20.5 13.5t21.5 5t19.5 -10q18 -23 3 -49.5t-28 -42.5q-18 -23 -43.5 -46.5 t-56.5 -45t-61.5 -39t-57.5 -29.5q43 -51 91 -93t114 -67q18 -6 42 -24.5t17 -43.5q-8 -27 -37.5 -24.5t-46.5 10.5q-61 25 -116.5 68t-100.5 90q-16 16 -31.5 34.5t-17.5 41.5z" />
<glyph unicode="&#xac;" horiz-adv-x="831" d="M105 350.5q-7 18.5 10 34.5q18 18 48 23.5t54 9.5q39 4 78 4t80 -2q66 -2 133 -6t133 -21q6 -2 15.5 -5t17.5 -7q2 0 3 -1t5 -1q20 -8 31.5 -37t14.5 -63.5t-1 -69.5t-12 -57q-6 -14 -19.5 -26.5t-31.5 -8.5q-18 6 -22.5 27.5t-4.5 37.5q0 18 2 31.5t3 27t1 28t-2 34.5 q-2 2 -2 6q-8 0 -10 2q-47 4 -95.5 12.5t-95.5 12.5t-92 4t-92 -4q-29 -4 -59.5 -11.5t-59.5 1.5q-23 6 -30 24.5z" />
<glyph unicode="&#xad;" horiz-adv-x="624" d="M125 279q-4 18 11.5 31.5t31.5 17.5q39 10 83 13t88 2t84 -8t71 -16q16 -4 32.5 -16t14.5 -31q-4 -23 -29 -29.5t-41 -2.5q-68 16 -143.5 17t-137.5 -9q-16 -4 -38.5 3t-26.5 28z" />
<glyph unicode="&#xae;" horiz-adv-x="1298" d="M104 373.5q2 113.5 25 225.5t64 212q39 96 99 184t148 144q35 23 77 41t85 20q18 0 41 -9t25 -32t-20 -32t-40 -11q-55 -10 -100 -37q-66 -35 -115 -93t-84 -124q-53 -98 -80.5 -205.5t-35.5 -218.5q-6 -92 4 -194.5t44.5 -195.5t98 -167t162.5 -110q145 -53 284 22 q80 43 135.5 118t92.5 152q45 98 71.5 210t27.5 225.5t-22.5 224.5t-74.5 209q-51 96 -125 164q-18 18 -40 33.5t-44 29.5q-16 10 -34.5 19.5t-24.5 29.5q-10 27 8 37t39 8q25 -2 44 -13t38 -23q45 -29 82.5 -67t68.5 -79q66 -88 104.5 -190.5t53 -212t6.5 -220t-33 -212.5 q-20 -84 -55 -171.5t-87 -164t-122 -135t-160 -82.5q-82 -23 -160.5 -12.5t-149.5 47t-129 95t-95 130.5q-51 96 -75 206.5t-22 224zM323 743q17 23 33 33q55 37 119 65.5t129 43.5q31 6 66 8t68.5 -3t62 -21.5t47.5 -47.5q29 -53 12.5 -109.5t-45.5 -103.5 q-31 -53 -69.5 -100t-79.5 -92l-35 -39q25 -25 47 -50.5t49 -47.5q29 -23 60.5 -43.5t66.5 -32.5q23 -6 45.5 -7t44.5 -8q27 -10 36 -31.5t-19 -37.5q-25 -14 -54.5 -13.5t-59.5 11t-58.5 26t-49.5 27.5q-49 33 -92 72t-82 82l-14 16v-23q0 -35 1 -71.5t5 -71.5 q2 -12 5 -29.5t3 -35t-6 -32t-22 -20.5q-31 -12 -46.5 28t-19.5 93t-2 104.5t2 63.5q2 98 8 195.5t23 193.5q0 10 4 27q-25 -10 -49.5 -23.5t-46.5 -27.5q-16 -10 -43 -18.5t-43 9.5q-18 18 -1 41zM555 420h2q8 14 19.5 26.5t21.5 22.5l66 74q23 25 44 51.5t37 54.5 q14 23 27.5 51.5t9.5 57.5q-2 31 -25.5 42t-54 12t-63.5 -5t-51 -12q4 -10 3 -19.5t-1 -17.5q-10 -86 -20.5 -169t-14.5 -169z" />
<glyph unicode="&#xaf;" horiz-adv-x="579" d="M104 838q-2 14 5.5 22t18.5 12.5t23.5 5.5t22.5 1q16 -2 33.5 -7.5t34.5 -7.5q16 -2 31.5 -3t31.5 1q27 0 48.5 7.5t43.5 13.5q18 4 46 1t32 -28q4 -23 -18.5 -37t-38.5 -20q-59 -20 -119.5 -18.5t-120.5 14.5q-20 4 -44.5 11t-29.5 32z" />
<glyph unicode="&#xb0;" horiz-adv-x="630" d="M109 526q16 59 58 105.5t95 75.5q47 25 101.5 34t103.5 -16q18 -10 33.5 -24t13.5 -37q0 -14 -8 -23q10 -10 15 -26.5t5 -28.5q2 -53 -33.5 -99.5t-74.5 -74.5q-45 -33 -104.5 -53.5t-114.5 -2.5q-55 16 -79 66.5t-11 103.5zM189.5 514.5q-13.5 -29.5 3.5 -57.5 q16 -27 44.5 -28t53.5 9q47 14 92 52t57 90q2 10 4 26.5t11 28.5q-4 2 -7.5 4t-7.5 4q-27 18 -58.5 16t-62 -15t-57 -34.5t-43.5 -42.5q-16 -23 -29.5 -52.5z" />
<glyph unicode="&#xb1;" horiz-adv-x="774" d="M106 82q8 25 35 36t49 17q35 10 71 14.5t71 8.5q68 6 137.5 9t136.5 -3q18 -4 41 -14.5t25 -32.5q0 -23 -25 -31t-43 -6q-47 0 -91 3t-91 -1q-39 -2 -78 -5t-78 -11q-10 -2 -39.5 -11.5t-59.5 -12.5t-49.5 4t-11.5 36zM106 471q8 25 35 36t49 17q35 10 71 14.5t71 8.5 q4 39 11 77t22 72q6 16 20 31.5t35 9.5q23 -6 24.5 -30.5t-2.5 -40.5l-26 -113q47 4 95 4t95 -4q18 -4 41 -14.5t25 -32.5q0 -23 -25 -31t-43 -6q-47 0 -91 3t-91 -1h-16q-2 -23 -3.5 -47.5t3.5 -46.5q2 -25 6 -48.5t0 -47.5q-4 -18 -16.5 -33t-33.5 -4q-23 10 -28.5 36.5 t-9.5 49.5q-4 33 -3 64.5t3 62.5v6q-16 -2 -29.5 -3t-28.5 -5q-10 -2 -39.5 -11.5t-59.5 -12.5t-49.5 4t-11.5 36z" />
<glyph unicode="&#xb2;" horiz-adv-x="731" d="M42 602q1 16 5 27q14 37 39 71.5t51 63.5q55 66 131 115t164 61q47 6 95 -1t89 -36q35 -27 51.5 -63.5t20.5 -79.5q4 -47 -5 -91t-28.5 -86t-46 -81t-55.5 -72q-70 -78 -147 -133q53 -8 106 -21.5t102 -35.5q18 -8 40 -21.5t26 -36.5q2 -16 -6 -24t-20.5 -10.5t-27 0 t-22.5 6.5q-43 16 -84 30.5t-88 24.5q-35 6 -70.5 10t-70.5 6q-6 -4 -13.5 -7t-13.5 -7q-16 -8 -34.5 -17.5t-39 -16.5t-40 -10t-37.5 3q-23 10 -26 22.5t7 24.5q-18 10 -6 37q10 25 38 34t50 13q43 6 90 6q96 53 174 125q39 37 73 78t56 88q25 45 37 102.5t-10 104.5 q-23 43 -73 51t-91 0q-45 -8 -86 -28.5t-76 -49.5q-33 -27 -60.5 -58.5t-49.5 -66.5q-8 -12 -15.5 -28.5t-15.5 -31.5t-19.5 -27.5t-25.5 -16.5q-18 -6 -27.5 2t-12.5 21.5t-2 29.5z" />
<glyph unicode="&#xb3;" horiz-adv-x="722" d="M43 425q-4 30 16 48q12 10 24.5 7t23 -13t17.5 -23.5t11 -21.5q14 -29 30.5 -54.5t41.5 -48.5q53 -51 129 -72.5t147 1.5q57 16 92 65t21 111q-14 68 -73.5 106.5t-125.5 49.5q-27 4 -56.5 4t-51.5 10q-20 -6 -42 -7t-32 21q-10 23 8.5 39.5t34.5 24.5q35 16 69.5 29.5 t69.5 31.5q25 16 50.5 31.5t48.5 36.5q-25 0 -49.5 1t-47.5 1q-41 0 -80.5 1t-80.5 1h-38t-54.5 4t-43 15.5t-4.5 35.5q10 23 38 26t50 3q29 0 57.5 -1t57.5 -1q61 -4 122.5 -3t125.5 5q10 0 26.5 -2t28.5 -6q27 -4 27 -33q0 -23 -15.5 -42.5t-31.5 -35.5q-18 -20 -41 -35.5 t-45 -32.5l-66 -43q53 -10 102.5 -37.5t86.5 -68.5q51 -59 60 -138t-36 -147q-43 -63 -109.5 -89.5t-139 -22.5t-141.5 33.5t-118 78.5q-12 12 -33.5 39t-39 57.5t-21.5 60.5z" />
<glyph unicode="&#xb4;" horiz-adv-x="415" d="M105.5 725q-3.5 10 0 21.5t8.5 22.5t11 19q10 10 21.5 18.5t21.5 18.5q20 23 35 47q10 20 14 41t14 41q6 16 21.5 34t36.5 7q23 -8 23.5 -32.5t-3.5 -40.5q-12 -55 -41.5 -96.5t-68.5 -80.5q-14 -16 -34 -31.5t-44 -4.5q-12 6 -15.5 16z" />
<glyph unicode="&#xb5;" horiz-adv-x="536" d="M-13 -171q1 89 1 179q2 72 3 140.5t9 119.5q4 63 16.5 129t22.5 127q4 20 15.5 42t33.5 26q14 2 23.5 -5t12.5 -19.5t3 -26t-2 -21.5q-6 -33 -19.5 -99.5t-19.5 -137t0 -131t37 -80.5q14 -12 29 -9q29 4 54 50.5t45.5 106t33 116.5t16.5 84q4 29 5 58.5t16 53.5 q10 16 25 20.5t32 -11.5q18 -27 14 -66q4 -19 0 -35q-4 -25 -9 -65.5t-8 -85.5t-1 -87t14 -65q12 -27 30.5 -20.5t36 27t32 44t18.5 33.5q6 12 11 30.5t13.5 36t19.5 31t28 17.5q18 2 26 -7.5t11 -23.5t0 -30.5t-5 -26.5q-10 -31 -28.5 -68t-43 -69.5t-56 -54t-68.5 -21.5 q-41 0 -68 24.5t-43 65.5q-29 -59 -67.5 -102t-85.5 -41q-43 0 -76 26q2 -92 4 -187t2 -196q0 -18 -9.5 -43.5t-35.5 -21.5q-27 6 -34 36.5t-9 53.5q-6 90 -5 179z" />
<glyph unicode="&#xb6;" horiz-adv-x="923" d="M201 1047.5q-4 56.5 12 105.5t53 81t105 28q33 -4 87 -6.5t113.5 -1.5t115.5 6.5t97 15.5q18 4 46 1t32 -28q4 -23 -18.5 -37t-38.5 -20q-20 -8 -55 -12t-78 -9v-20q-25 -203 -35 -405.5t-14 -407.5q-6 -188 -7 -377q2 -86 6.5 -169t4.5 -167q0 -18 -9.5 -43.5 t-35.5 -21.5q-27 6 -34 36.5t-9 53.5q-6 90 -5 179t1 179q4 395 24 789q4 86 10 170t17 168q0 8 1 16t3 18q-45 -2 -87 -1t-77 3v-20q-25 -203 -35 -405.5t-14 -407.5q-6 -188 -6 -377q2 -86 6 -169t4 -167q0 -18 -9.5 -43.5t-35.5 -21.5q-27 6 -34 36.5t-9 53.5 q-6 90 -5 179t1 179q4 395 24 789l4 92q-29 -25 -54 -4.5t-41.5 63.5t-20.5 99.5z" />
<glyph unicode="&#xb7;" horiz-adv-x="368" d="M103.5 276q-2.5 37 13.5 66t51 43t65 -6q29 -20 32 -54t-13 -63t-50 -44t-65 3t-33.5 55z" />
<glyph unicode="&#xb8;" horiz-adv-x="364" d="M102 -211q0 12 3.5 24.5t7.5 20.5q6 14 16 25.5t18 25.5q6 10 11.5 22.5t9.5 26.5q8 23 6 43.5t2 42.5q4 16 15.5 37t33.5 17q23 -4 29 -27.5t6 -42.5q2 -55 -18.5 -103t-48.5 -96q-10 -16 -25.5 -34.5t-40.5 -14.5q-12 2 -18.5 11.5t-6.5 21.5z" />
<glyph unicode="&#xb9;" horiz-adv-x="479" d="M45 629q-10 23 8.5 38t34.5 23q35 16 67.5 27.5t65.5 34.5q27 16 51.5 36.5t40.5 45.5q10 14 20.5 29.5t24.5 25.5q4 8 9.5 15t13.5 11q16 10 26.5 6.5t16.5 -15t8 -27t0 -27.5q-14 -115 -22.5 -225.5t-1.5 -227.5q2 -35 5 -70.5t11 -70.5q2 -12 6 -28.5t6 -33t-2 -30.5 t-18 -23q-31 -14 -49.5 19t-26.5 80t-11 93t-3 58q-10 168 6 340q-8 -8 -25 -20q-80 -61 -178 -97q-18 -6 -45 -8t-39 21z" />
<glyph unicode="&#xba;" horiz-adv-x="819" d="M47 455q-18 111 27 218t135 173q41 29 88 47t96 18q20 0 45 -8t29 -33v-2q16 10 37.5 13.5t42.5 -0.5q102 -12 166 -95q35 -45 50 -99t13 -111.5t-19.5 -112.5t-45.5 -101q-59 -96 -160.5 -144t-216.5 -36q-111 12 -189.5 87t-97.5 186zM125 522q-2 -57 20.5 -112.5 t67.5 -92.5q47 -41 108.5 -51t120.5 0q53 10 98.5 38t79 69t53 91t21.5 103q2 49 -12 99.5t-51 85.5t-88 41q-16 4 -35 3t-35 5q-31 8 -31 33q-18 -11 -36 -7q-59 2 -109.5 -25.5t-88.5 -71.5t-59.5 -99.5t-23.5 -108.5z" />
<glyph unicode="&#xbb;" horiz-adv-x="804" d="M104 623q2 12 12.5 17t23 5t25.5 -3t21 -5q61 -25 117.5 -68t102.5 -92q14 -16 29.5 -34.5t17.5 -41.5q0 -23 -7 -30q-4 -14 -16 -26.5t-22 -18.5q-39 -23 -64 -37.5t-44 -30.5t-41.5 -37.5t-57.5 -56.5q-12 -12 -36 -26.5t-42 5.5t-3 48t27 45q35 47 87.5 86.5 t105.5 64.5l10 5t12 5q-45 49 -92 90t-108 66q-16 8 -40 26.5t-18 43.5zM330 623q2 12 12 17t22.5 5t25.5 -3t22 -5q61 -25 117.5 -68t101.5 -92q14 -16 29.5 -34.5t17.5 -41.5q0 -23 -6 -30q-4 -14 -16.5 -26.5t-22.5 -18.5q-39 -23 -63.5 -37.5t-44 -30.5t-42 -37.5 t-57.5 -56.5q-12 -12 -35.5 -26.5t-42.5 5.5q-18 20 -3 48t28 45q35 47 87 86.5t105 64.5q4 2 10.5 5t12.5 5q-45 49 -92 90t-109 66q-16 8 -39.5 26.5t-17.5 43.5z" />
<glyph unicode="&#xbc;" horiz-adv-x="1396" d="M45 834q-10 23 8.5 38t34.5 23q35 16 67.5 27.5t65.5 33.5q27 16 51.5 37t40.5 45q10 14 20.5 29.5t24.5 26.5q4 8 9.5 15t13.5 11q16 10 26.5 6t16.5 -15t8 -26.5t0 -27.5q-14 -115 -22.5 -225.5t-1.5 -227.5q2 -35 5 -70.5t11 -70.5q2 -12 6 -28.5t6 -33t-2 -31 t-18 -22.5q-31 -14 -49.5 18.5t-26.5 80t-11 93.5t-3 58q-10 168 6 340q-8 -8 -25 -20q-80 -61 -178 -97q-18 -6 -45 -8t-39 21zM174 -319q-4 25 5 47t20 45q27 55 55.5 109.5t56.5 107.5q27 47 66 115.5t86 147.5t97 162t97.5 160.5t89 145t70.5 115.5q35 57 71 113.5 t77 109.5q12 16 32.5 33.5t44.5 11.5q29 -8 20.5 -36t-20.5 -44q-37 -53 -86 -126t-103 -158t-110.5 -175t-108.5 -176t-97 -162.5t-76 -132.5q-35 -66 -71 -132t-71 -134l-45 -96q-10 -23 -19 -46.5t-32 -33.5q-18 -10 -31.5 0t-17.5 29zM603.5 26.5q7.5 22.5 17.5 36.5 q23 35 45 66t43 66q16 33 31.5 66.5t25.5 68.5q6 25 9 49t20 45q12 14 29.5 16t27.5 -14q14 -20 10 -46t-8 -48q-8 -29 -19.5 -55.5t-21.5 -55.5q-23 -45 -47.5 -88t-52.5 -84q39 10 75.5 17.5t75.5 13.5l70 8l70 8q6 78 17 156t28 156q6 25 14 54.5t33 43.5q18 8 28.5 3 t15.5 -17.5t5 -27.5t-2 -26q-18 -86 -32.5 -170t-23.5 -170h36t36 -2q20 -2 46 -10t30 -33q2 -27 -23.5 -35t-44.5 -6h-86v-18q-2 -35 -1 -72t5 -74q2 -12 5.5 -28.5t3.5 -32.5t-5.5 -30.5t-19.5 -20.5q-31 -16 -46 17.5t-20.5 81.5t-4.5 94t1 59v24q-8 0 -16 -1t-16 -1 q-47 -4 -93.5 -11t-93.5 -17q-29 -8 -59.5 -21.5t-58.5 -15.5q-23 -2 -41.5 10t-8.5 35q-16 14 -8.5 36.5z" />
<glyph unicode="&#xbd;" horiz-adv-x="1439" d="M45 834q-10 23 8.5 38t34.5 23q35 16 67.5 27.5t65.5 33.5q27 16 51.5 37t40.5 45q10 14 20.5 29.5t24.5 26.5q4 8 9.5 15t13.5 11q16 10 26.5 6t16.5 -15t8 -26.5t0 -27.5q-14 -115 -22.5 -225.5t-1.5 -227.5q2 -35 5 -70.5t11 -70.5q2 -12 6 -28.5t6 -33t-2 -31 t-18 -22.5q-31 -14 -49.5 18.5t-26.5 80t-11 93.5t-3 58q-10 168 6 340q-8 -8 -25 -20q-80 -61 -178 -97q-18 -6 -45 -8t-39 21zM174 -319q-4 25 5 47t20 45q27 55 55.5 109.5t56.5 107.5q27 47 66 115.5t86 147.5t97 162t97.5 160.5t89 145t70.5 115.5q35 57 71 113.5 t77 109.5q12 16 32.5 33.5t44.5 11.5q29 -8 20.5 -36t-20.5 -44q-37 -53 -86 -126t-103 -158t-110.5 -175t-108.5 -176t-97 -162.5t-76 -132.5q-35 -66 -71 -132t-71 -134l-45 -96q-10 -23 -19 -46.5t-32 -33.5q-18 -10 -31.5 0t-17.5 29zM603 192.5q1 16.5 5 26.5 q14 37 39 72t51 63q55 66 131 115t164 61q47 6 95.5 -1t89.5 -35q35 -27 51 -64t20 -80q4 -47 -5 -91t-28.5 -86t-46 -81t-55.5 -72q-70 -78 -147 -133q53 -8 106 -21t103 -36q18 -8 39.5 -21.5t25.5 -35.5q2 -16 -6 -24.5t-20.5 -10.5t-27 0t-22.5 6q-43 16 -84 30.5 t-88 24.5q-72 16 -141 17l-27 -15q-16 -8 -34.5 -17t-39 -16.5t-40 -10.5t-37.5 3q-23 10 -26 22.5t7 24.5q-16 12 -6 37t38 34t50 13q39 8 90 9q47 25 90.5 56.5t83.5 66.5q39 37 73 77.5t56 87.5q25 45 37.5 102.5t-10.5 104.5q-23 43 -73 51.5t-91 -0.5q-45 -8 -86 -28.5 t-76 -48.5q-33 -27 -60.5 -58.5t-49.5 -66.5q-8 -12 -15.5 -28.5t-15.5 -32t-19.5 -28t-25.5 -16.5q-18 -6 -27.5 2.5t-12.5 21.5t-2 29.5z" />
<glyph unicode="&#xbe;" horiz-adv-x="1425" d="M43 629.5q-4 29.5 16 48.5q12 10 24.5 7t23 -13t17.5 -23.5t11 -21.5q14 -29 30.5 -54.5t41.5 -48.5q53 -51 129 -72.5t147 1.5q57 16 92 65t21 111q-14 68 -73.5 106.5t-125.5 48.5q-27 4 -56.5 4t-51.5 11q-20 -6 -42 -7t-32 21q-10 23 8.5 39.5t34.5 24.5 q35 16 69.5 29.5t69.5 31.5q25 16 50.5 31.5t48.5 36.5q-25 0 -49.5 1t-47.5 1q-41 0 -80.5 1t-80.5 1h-38t-54.5 4t-43 15t-4.5 36q10 23 38 26t50 3q29 0 57.5 -1t57.5 -1q61 -4 122.5 -3t125.5 5q10 0 26.5 -2t28.5 -7q27 -4 27 -32q0 -23 -15.5 -42.5t-31.5 -35.5 q-18 -20 -41 -35.5t-45 -32.5l-66 -43q53 -10 102.5 -37.5t86.5 -68.5q51 -59 60 -138t-36 -147q-43 -63 -109.5 -90t-139 -22.5t-141.5 34t-118 78.5q-12 12 -33.5 39t-39 57.5t-21.5 60zM295 -319q-4 25 5 47t19 45q27 55 55.5 109.5t57.5 107.5q27 47 66 115.5t86 147.5 t97 162t97 160.5t89 145t71 115.5q35 57 70.5 113.5t76.5 109.5q12 16 33 33.5t45 11.5q29 -8 20.5 -36t-20.5 -44q-37 -53 -86 -126t-103 -158t-110.5 -175t-109 -176t-97.5 -162.5t-75 -132.5q-35 -66 -71 -132t-71 -134l-45 -96q-10 -23 -19 -46.5t-32 -33.5 q-18 -10 -31.5 0t-17.5 29zM663 26.5q7 22.5 17 36.5q23 35 45.5 66t42.5 66q16 33 31.5 66.5t25.5 68.5q6 25 9.5 49t19.5 45q12 14 29.5 16t27.5 -14q14 -20 10.5 -46t-8.5 -48q-8 -29 -19 -55.5t-22 -55.5q-23 -45 -47 -88t-53 -84q39 10 76 17.5t76 13.5q35 4 69.5 8 t69.5 8q6 78 17.5 156t27.5 156q6 25 14 54.5t33 43.5q18 8 28.5 3t15.5 -17.5t5 -27.5t-2 -26q-18 -86 -32.5 -170t-22.5 -170h35.5t36.5 -2q20 -2 45.5 -10t29.5 -33q2 -27 -23.5 -35t-43.5 -6h-86v-18q-2 -35 -1 -72t5 -74q2 -12 5 -28.5t3 -32.5t-5 -30.5t-20 -20.5 q-31 -16 -46 17.5t-20 81.5t-4 94t1 59v24q-8 0 -16.5 -1t-16.5 -1q-47 -4 -93 -11t-93 -17q-29 -8 -59.5 -21.5t-59.5 -15.5q-23 -2 -41 10t-8 35q-16 14 -9 36.5z" />
<glyph unicode="&#xbf;" horiz-adv-x="808" d="M103 -203q3 51 21.5 101.5t46.5 96.5t52 85q55 88 115.5 172t112.5 176q10 20 19 38.5t17 39.5q6 18 10.5 36.5t12.5 37.5q2 8 7 19t11.5 19.5t15.5 11.5t21 -5q16 -12 20.5 -36t0.5 -42q-10 -53 -33 -103.5t-51.5 -98.5t-61 -93t-63.5 -88q-35 -53 -71 -105.5 t-64 -107.5q-12 -23 -24.5 -49.5t-22 -55t-10.5 -56.5t12 -52q12 -25 31.5 -34t41 -9t45 7t41.5 17q43 23 79 57t67 74q63 84 96 183q6 18 11 37.5t9 38.5q4 16 8.5 32.5t16.5 28.5q14 12 25.5 10t19.5 -12t13.5 -24.5t5.5 -26.5q0 -33 -11.5 -66t-21.5 -61 q-35 -88 -89.5 -167t-129.5 -138q-37 -29 -83 -48.5t-92.5 -22.5t-87 16.5t-67.5 68.5q-25 47 -22 98zM478 814q-3 34 14 63q16 29 49.5 44t64.5 -3t34 -55t-13 -66t-51 -44.5t-66 7.5q-29 20 -32 54z" />
<glyph unicode="&#xc0;" horiz-adv-x="872" d="M23 254q-8 23 15.5 36t41.5 17q57 12 121 19q29 182 69.5 360t87.5 358q23 86 46.5 170t50.5 170q4 14 11 34t21 34q4 10 13.5 16.5t25.5 1.5l6 -4q10 -4 13 -8q18 -20 22 -53t6 -55q10 -104 18.5 -209t18.5 -209q20 -227 41 -452.5t47 -452.5q10 -100 22.5 -200.5 t29.5 -201.5q2 -14 6 -31.5t4 -36t-4 -35t-19 -26.5q-14 -12 -25.5 -9t-18.5 13.5t-12 24.5t-5 24q-29 190 -50.5 379t-41.5 381q-16 -12 -38 -16t-42 -8q-35 -6 -71 -10.5t-73 -8.5l-90 -12l-16 -117q-4 -45 -9 -90t-9 -92q-4 -35 -3.5 -70t-5.5 -69q-4 -25 -23.5 -44.5 t-41.5 7.5q-23 25 -22 61.5t5 67.5q6 84 16.5 166t24.5 166l-86 -13q-20 -4 -45.5 0t-31.5 27zM285 338q41 6 79.5 10t79.5 12q29 4 61 13.5t60 3.5l13 -4l-19 207l-61 653q-53 -180 -99.5 -359.5t-81.5 -363.5q-10 -43 -17 -86t-15 -86zM401.5 1810q-4.5 25 16.5 39 q23 14 41 -5.5t26 -35.5q6 -14 9.5 -29.5t7.5 -29.5q6 -14 13 -28.5t17 -26.5q12 -20 30 -33.5t30 -32.5q10 -14 17 -37.5t-13 -36.5q-20 -12 -42 1.5t-36 27.5q-76 76 -106 182q-6 20 -10.5 45z" />
<glyph unicode="&#xc1;" horiz-adv-x="872" d="M23 254q-8 23 15.5 36t41.5 17q57 12 121 19q29 182 69.5 360t87.5 358q23 86 46.5 170t50.5 170q4 14 11 34t21 34q4 10 13.5 16.5t25.5 1.5l6 -4q10 -4 13 -8q18 -20 22 -53t6 -55q10 -104 18.5 -209t18.5 -209q20 -227 41 -452.5t47 -452.5q10 -100 22.5 -200.5 t29.5 -201.5q2 -14 6 -31.5t4 -36t-4 -35t-19 -26.5q-14 -12 -25.5 -9t-18.5 13.5t-12 24.5t-5 24q-29 190 -50.5 379t-41.5 381q-16 -12 -38 -16t-42 -8q-35 -6 -71 -10.5t-73 -8.5l-90 -12l-16 -117q-4 -45 -9 -90t-9 -92q-4 -35 -3.5 -70t-5.5 -69q-4 -25 -23.5 -44.5 t-41.5 7.5q-23 25 -22 61.5t5 67.5q6 84 16.5 166t24.5 166l-86 -13q-20 -4 -45.5 0t-31.5 27zM285 338q41 6 79.5 10t79.5 12q29 4 61 13.5t60 3.5l13 -4l-19 207l-61 653q-53 -180 -99.5 -359.5t-81.5 -363.5q-10 -43 -17 -86t-15 -86zM433 1588q3 11 8.5 22.5t11.5 19.5 q10 10 21 18.5t22 18.5q20 23 34 47q10 20 14.5 41t14.5 41q6 16 21.5 33.5t35.5 7.5q23 -8 24 -32.5t-3 -41.5q-12 -55 -42 -96t-69 -80q-14 -16 -33.5 -31.5t-43.5 -5.5q-12 6 -15.5 16.5t-0.5 21.5z" />
<glyph unicode="&#xc2;" horiz-adv-x="872" d="M23 254q-8 23 15.5 36t41.5 17q57 12 121 19q29 182 69.5 360t87.5 358q23 86 46.5 170t50.5 170q4 14 11 34t21 34q4 10 13.5 16.5t25.5 1.5l6 -4q10 -4 13 -8q18 -20 22 -53t6 -55q10 -104 18.5 -209t18.5 -209q20 -227 41 -452.5t47 -452.5q10 -100 22.5 -200.5 t29.5 -201.5q2 -14 6 -31.5t4 -36t-4 -35t-19 -26.5q-14 -12 -25.5 -9t-18.5 13.5t-12 24.5t-5 24q-29 190 -50.5 379t-41.5 381q-16 -12 -38 -16t-42 -8q-35 -6 -71 -10.5t-73 -8.5l-90 -12l-16 -117q-4 -45 -9 -90t-9 -92q-4 -35 -3.5 -70t-5.5 -69q-4 -25 -23.5 -44.5 t-41.5 7.5q-23 25 -22 61.5t5 67.5q6 84 16.5 166t24.5 166l-86 -13q-20 -4 -45.5 0t-31.5 27zM285 338q41 6 79.5 10t79.5 12q29 4 61 13.5t60 3.5l13 -4l-19 207l-61 653q-53 -180 -99.5 -359.5t-81.5 -363.5q-10 -43 -17 -86t-15 -86zM333 1558.5q-3 10.5 0 21.5t9 22.5 t12 19.5q18 25 36 43t32 36.5t27.5 40t25.5 52.5q23 45 54.5 45t66.5 -37q31 -35 55.5 -78t38.5 -92q4 -20 8 -46.5t-18 -39.5q-23 -10 -39.5 9.5t-24.5 35.5q-18 35 -29.5 73t-41.5 69q-16 -25 -49 -73t-68 -81q-16 -14 -35.5 -30.5t-42.5 -6.5q-14 6 -17 16.5z" />
<glyph unicode="&#xc3;" horiz-adv-x="872" d="M23 254q-8 23 15.5 36t41.5 17q57 12 121 19q29 182 69.5 360t87.5 358q23 86 46.5 170t50.5 170q4 14 11 34t21 34q4 10 13.5 16.5t25.5 1.5l6 -4q10 -4 13 -8q18 -20 22 -53t6 -55q10 -104 18.5 -209t18.5 -209q20 -227 41 -452.5t47 -452.5q10 -100 22.5 -200.5 t29.5 -201.5q2 -14 6 -31.5t4 -36t-4 -35t-19 -26.5q-14 -12 -25.5 -9t-18.5 13.5t-12 24.5t-5 24q-29 190 -50.5 379t-41.5 381q-16 -12 -38 -16t-42 -8q-35 -6 -71 -10.5t-73 -8.5l-90 -12l-16 -117q-4 -45 -9 -90t-9 -92q-4 -35 -3.5 -70t-5.5 -69q-4 -25 -23.5 -44.5 t-41.5 7.5q-23 25 -22 61.5t5 67.5q6 84 16.5 166t24.5 166l-86 -13q-20 -4 -45.5 0t-31.5 27zM285 338q41 6 79.5 10t79.5 12q29 4 61 13.5t60 3.5l13 -4l-19 207l-61 653q-53 -180 -99.5 -359.5t-81.5 -363.5q-10 -43 -17 -86t-15 -86zM316 1620q4 21 10 35q14 35 40.5 77 t63.5 52q33 8 51.5 -18.5t34.5 -49.5q8 -12 22.5 -30.5t32 -31t35 -14.5t33.5 17q12 14 16 34.5t7.5 41t9.5 39t22 30.5q14 12 25.5 8t18.5 -15t11.5 -26.5t4.5 -25.5q-2 -39 -16.5 -79t-41.5 -69q-35 -35 -81 -35.5t-87 25.5q-37 29 -65 66q0 2 -7 14t-10 14q-6 2 -12 -4 t-11 -15t-10 -18.5t-7 -11.5q-8 -14 -15.5 -26.5t-21.5 -20.5q-10 -8 -22.5 -8t-22.5 10q-12 14 -8 35z" />
<glyph unicode="&#xc4;" horiz-adv-x="872" d="M23 254q-8 23 15.5 36t41.5 17q57 12 121 19q29 182 69.5 360t87.5 358q23 86 46.5 170t50.5 170q4 14 11 34t21 34q4 10 13.5 16.5t25.5 1.5l9 -4l10 -8q18 -20 22 -53t6 -55q10 -104 18.5 -209t18.5 -209q20 -227 41 -452.5t47 -452.5q10 -100 22.5 -200.5t29.5 -201.5 q2 -14 6 -31.5t4 -36t-4 -35t-19 -26.5q-14 -12 -25.5 -9t-18.5 13.5t-12 24.5t-5 24q-29 190 -50.5 379t-41.5 381q-16 -12 -38 -16t-42 -8q-35 -6 -71 -10.5t-73 -8.5l-90 -12l-16 -117q-4 -45 -9 -90t-9 -92q-4 -35 -3.5 -70t-5.5 -69q-4 -25 -23.5 -44.5t-41.5 7.5 q-23 25 -22 61.5t5 67.5q6 84 16.5 166t24.5 166l-86 -13q-20 -4 -45.5 0t-31.5 27zM285 338q41 6 79.5 10t79.5 12q29 4 61 13.5t60 3.5l13 -4l-19 207l-61 653q-53 -180 -99.5 -359.5t-81.5 -363.5q-10 -43 -17 -86t-15 -86zM413 1598.5q3 21.5 7 37.5q2 6 9 23.5t16.5 36 t18.5 36t15 23.5q25 20 45 -2q14 -16 15.5 -35.5t-0.5 -40.5q-4 -29 -21.5 -54.5t-38.5 -45.5q-10 -10 -25.5 -16.5t-27.5 4.5q-16 12 -13 33.5zM566.5 1596q2.5 30 14 63t26 60.5t24.5 35.5q25 20 43 -2q23 -25 15.5 -74t-56.5 -110q-10 -10 -24.5 -17.5t-28.5 2.5 q-16 12 -13.5 42z" />
<glyph unicode="&#xc5;" horiz-adv-x="872" d="M23 254q-8 23 15.5 36t41.5 17q57 12 121 19q29 182 69.5 360t87.5 358q23 86 46.5 170t50.5 170q0 2 1 4.5t1 6.5q-27 0 -49 8q-55 16 -79 66.5t-12 103.5q16 59 58.5 105t95.5 75q47 25 101.5 34t103.5 -15q18 -10 33.5 -24.5t13.5 -37.5q0 -14 -8 -22q10 -10 15 -26.5 t5 -29.5q2 -53 -33.5 -99t-74.5 -75q-14 -10 -30.5 -19t-33.5 -18q6 -18 7 -37.5t3 -33.5q10 -104 18.5 -209t18.5 -209q20 -227 41 -452.5t47 -452.5q10 -100 22.5 -200.5t29.5 -201.5q2 -14 6 -31.5t4 -36t-4 -35t-19 -26.5q-14 -12 -25.5 -9t-18.5 13.5t-12 24.5t-5 24 q-29 190 -50.5 379t-41.5 381q-16 -12 -38 -16t-42 -8q-35 -6 -71 -10.5t-73 -8.5l-90 -12l-16 -117q-4 -45 -9 -90t-9 -92q-4 -35 -3.5 -70t-5.5 -69q-4 -25 -23.5 -44.5t-41.5 7.5q-23 25 -22 61.5t5 67.5q6 84 16.5 166t24.5 166l-86 -13q-20 -4 -45.5 0t-31.5 27z M285 338q41 6 79.5 10t79.5 12q29 4 61 13.5t60 3.5l13 -4l-19 207l-61 653q-53 -180 -99.5 -359.5t-81.5 -363.5q-10 -43 -17 -86t-15 -86zM398.5 1561.5q-13.5 -29.5 2.5 -58.5q16 -27 45 -27.5t54 9.5q47 14 92 52t57 89q2 10 4 26.5t11 28.5q-4 2 -7.5 4.5t-7.5 4.5 q-27 18 -58.5 16t-62 -15.5t-57.5 -35t-43 -41.5q-16 -23 -29.5 -52.5z" />
<glyph unicode="&#xc6;" horiz-adv-x="1026" d="M23 254q-8 23 15.5 36t41.5 17q55 12 113 19q63 164 133.5 323.5t148.5 317.5q39 80 79 157.5t83 155.5q10 23 30.5 49.5t51.5 20.5q20 -4 23 -18.5t-1 -31.5q29 27 59.5 50.5t65.5 42.5q16 10 41 13t39 -13q8 -10 6 -20.5t-8 -20t-15 -17.5t-18 -12q-55 -37 -113.5 -85 t-104.5 -105.5t-74.5 -124t-24.5 -140.5q4 -66 45 -110.5t106 -52.5q8 -2 25 -3q8 4 15.5 7.5t15.5 7.5q16 6 40.5 5t35.5 -22q0 -2 1 -3t1 -3q20 -25 -9 -51q-29 -25 -79 -29q-66 -45 -113 -112.5t-78 -143.5q10 -16 -2 -34q-6 -12 -16 -19q-10 -29 -17 -51 q-39 -129 -39 -272q0 -63 10.5 -131t45.5 -121q57 -92 153 -39q47 27 79 69.5t56 89.5q29 51 52.5 104.5t44.5 106.5q16 47 29.5 93.5t29.5 91.5q4 16 16.5 33.5t32.5 15.5q16 -2 22.5 -15.5t10.5 -27.5q4 -25 -3 -50.5t-15 -47.5l-35 -103q-39 -100 -87 -200.5t-124 -178.5 q-35 -35 -82 -60.5t-98 -23.5q-55 2 -96.5 37t-65.5 82q-29 55 -42.5 115.5t-16.5 124t3.5 126t18.5 122.5q4 23 9 43t11 43q-31 -4 -61.5 -7.5t-63.5 -7.5q-29 -4 -55 -8t-55 -8l-55 -154q-14 -41 -27.5 -85t-26.5 -89q-10 -33 -16 -67.5t-21 -67.5q-10 -23 -31.5 -38 t-37.5 15q-16 29 -9 65t17 65q27 88 54.5 172t62.5 170l-60 -9q-20 -4 -45.5 0t-31.5 27zM285 338q41 6 79.5 10t79.5 12q16 4 36 8.5t38 8.5q23 59 55.5 115.5t77.5 107.5l29 31l-16 8q-59 27 -97.5 77t-50.5 113l-4 29q-47 -102 -93 -202.5t-89 -204.5z" />
<glyph unicode="&#xc7;" horiz-adv-x="741" d="M22.5 301q-4.5 215 16.5 424q10 104 27.5 207.5t46.5 206.5q12 39 28.5 87t41 93t57 79t79.5 46q51 14 84 -8.5t54.5 -61.5t33 -85t17.5 -83q4 -35 8 -68.5t8 -68.5l13 47q6 27 16 58.5t35 46.5q18 10 29.5 5t16.5 -17.5t5 -29t-4 -28.5q-33 -115 -58.5 -228.5 t-41.5 -232.5v-108.5t-3 -108.5q-2 -18 -7 -37.5t-17 -32.5q-14 -27 -39 -18q-14 4 -22.5 17.5t-11.5 28.5t-2 31.5t1 29.5q0 47 5 93t12 93q0 106 -2.5 214.5t-12.5 217.5q-4 51 -12 102.5t-27 98.5q-4 14 -13 32.5t-26 22.5q-14 4 -27.5 -5t-23.5 -18q-39 -33 -61.5 -82 t-38.5 -96t-28.5 -97t-22.5 -101q-23 -104 -34 -210t-16 -212q-4 -104 -0.5 -206.5t15.5 -207.5q10 -96 31.5 -193.5t70.5 -181.5q23 -35 55.5 -66.5t77.5 -27.5q23 2 40.5 16.5t31.5 35t24.5 42t16.5 37.5q39 92 55.5 191.5t18.5 197.5v26.5t4 32t13 24.5t26 7 q16 -2 25.5 -15t13.5 -29.5t4 -35v-30.5q-4 -94 -20.5 -188.5t-49.5 -182.5q-12 -35 -31.5 -71.5t-44 -66.5t-56.5 -50.5t-71 -22.5v-10q2 -55 -18.5 -103.5t-48.5 -95.5q-10 -16 -25.5 -34.5t-40.5 -14.5q-12 2 -18 11.5t-6 21.5t3 24.5t7 20.5q6 14 16.5 25.5t18.5 25.5 q6 10 11 22.5t9 26.5q8 23 6 43.5t2 42.5q0 6 2 8q-41 18 -71.5 51t-53 72t-38 82t-27.5 82q-57 205 -61.5 420z" />
<glyph unicode="&#xc8;" horiz-adv-x="620" d="M21.5 -53.5q-3.5 63.5 3 126t18.5 122.5q23 111 67 215t119 190l29 31l-16 8q-59 27 -97.5 77t-50.5 113q-10 63 3.5 126t42 119t69.5 107.5t84 94.5q35 33 72.5 63.5t78.5 53.5q16 10 41 13t39 -13q8 -10 6 -20.5t-8 -20t-15.5 -17.5t-17.5 -12q-55 -37 -113.5 -85 t-104.5 -105.5t-74.5 -124t-24.5 -140.5q4 -66 45 -110.5t107 -52.5q8 -2 24 -3q8 4 15.5 7.5t15.5 7.5q16 6 40.5 5t35.5 -22q0 -2 1 -3t1 -3q20 -25 -8 -51q-29 -25 -80 -29q-43 -31 -79 -71.5t-63.5 -88.5t-48 -99.5t-35.5 -100.5q-39 -129 -39 -272q0 -63 10.5 -131 t45.5 -121q57 -92 153 -39q47 27 79 69.5t57 89.5q29 51 52 104.5t44 106.5q16 47 29.5 93.5t29.5 91.5q4 16 16.5 33.5t32.5 15.5q16 -2 22.5 -15.5t10.5 -27.5q4 -25 -3 -50.5t-15 -47.5l-35 -103q-39 -100 -87 -200.5t-124 -178.5q-35 -35 -82 -60.5t-98 -23.5 q-55 2 -96.5 37t-65.5 82q-29 55 -42 115.5t-16.5 124zM199 1744.5q-4 24.5 16 39.5q23 14 41.5 -5.5t26.5 -35.5q6 -14 9 -29.5t7 -30.5q6 -14 13 -28.5t18 -26.5q12 -20 29.5 -33.5t29.5 -31.5q10 -14 17.5 -38t-13.5 -36q-20 -12 -41.5 1t-36.5 28q-76 76 -106 182 q-6 20 -10 44.5z" />
<glyph unicode="&#xc9;" horiz-adv-x="620" d="M21.5 -53.5q-3.5 63.5 3 126t18.5 122.5q23 111 67 215t119 190l29 31l-16 8q-59 27 -97.5 77t-50.5 113q-10 63 3.5 126t42 119t69.5 107.5t84 94.5q35 33 72.5 63.5t78.5 53.5q16 10 41 13t39 -13q8 -10 6 -20.5t-8 -20t-15.5 -17.5t-17.5 -12q-55 -37 -113.5 -85 t-104.5 -105.5t-74.5 -124t-24.5 -140.5q4 -66 45 -110.5t107 -52.5q8 -2 24 -3q8 4 15.5 7.5t15.5 7.5q16 6 40.5 5t35.5 -22q0 -2 1 -3t1 -3q20 -25 -8 -51q-29 -25 -80 -29q-43 -31 -79 -71.5t-63.5 -88.5t-48 -99.5t-35.5 -100.5q-39 -129 -39 -272q0 -63 10.5 -131 t45.5 -121q57 -92 153 -39q47 27 79 69.5t57 89.5q29 51 52 104.5t44 106.5q16 47 29.5 93.5t29.5 91.5q4 16 16.5 33.5t32.5 15.5q16 -2 22.5 -15.5t10.5 -27.5q4 -25 -3 -50.5t-15 -47.5l-35 -103q-39 -100 -87 -200.5t-124 -178.5q-35 -35 -82 -60.5t-98 -23.5 q-55 2 -96.5 37t-65.5 82q-29 55 -42 115.5t-16.5 124zM212 1489q-3 10 0 21.5t8 22.5t11 19q10 10 21.5 18.5t21.5 18.5q20 23 35 47q10 20 14.5 41t14.5 41q6 16 21.5 33.5t35.5 7.5q23 -8 24 -32.5t-3 -40.5q-12 -55 -42 -96.5t-69 -80.5q-14 -16 -33.5 -31.5t-44.5 -4.5 q-12 6 -15 16z" />
<glyph unicode="&#xca;" horiz-adv-x="620" d="M21.5 -53.5q-3.5 63.5 3 126t18.5 122.5q23 111 67 215t119 190l29 31l-16 8q-59 27 -97.5 77t-50.5 113q-10 63 3.5 126t42 119t69.5 107.5t84 94.5q35 33 72.5 63.5t78.5 53.5q16 10 41 13t39 -13q8 -10 6 -20.5t-8 -20t-15.5 -17.5t-17.5 -12q-55 -37 -113.5 -85 t-104.5 -105.5t-74.5 -124t-24.5 -140.5q4 -66 45 -110.5t107 -52.5q8 -2 24 -3q8 4 15.5 7.5t15.5 7.5q16 6 40.5 5t35.5 -22q0 -2 1 -3t1 -3q20 -25 -8 -51q-29 -25 -80 -29q-43 -31 -79 -71.5t-63.5 -88.5t-48 -99.5t-35.5 -100.5q-39 -129 -39 -272q0 -63 10.5 -131 t45.5 -121q57 -92 153 -39q47 27 79 69.5t57 89.5q29 51 52 104.5t44 106.5q16 47 29.5 93.5t29.5 91.5q4 16 16.5 33.5t32.5 15.5q16 -2 22.5 -15.5t10.5 -27.5q4 -25 -3 -50.5t-15 -47.5l-35 -103q-39 -100 -87 -200.5t-124 -178.5q-35 -35 -82 -60.5t-98 -23.5 q-55 2 -96.5 37t-65.5 82q-29 55 -42 115.5t-16.5 124zM136 1541q3 11 9.5 22.5t12.5 19.5q18 25 35.5 43.5t32 36.5t27.5 39.5t26 52.5q23 45 54.5 45t65.5 -37q31 -35 55.5 -78t39.5 -92q4 -20 8 -46.5t-19 -39.5q-23 -10 -39 9.5t-24 35.5q-18 35 -29.5 73t-42.5 69 q-16 -25 -49 -73t-68 -81q-16 -14 -35.5 -30.5t-41.5 -6.5q-14 6 -17.5 16.5t-0.5 21.5z" />
<glyph unicode="&#xcb;" horiz-adv-x="620" d="M21.5 -53.5q-3.5 63.5 3 126t18.5 122.5q23 111 67 215t119 190l29 31l-16 8q-59 27 -97.5 77t-50.5 113q-10 63 3.5 126t42 119t69.5 107.5t84 94.5q35 33 72.5 63.5t78.5 53.5q16 10 41 13t39 -13q8 -10 6 -20.5t-8 -20t-15.5 -17.5t-17.5 -12q-55 -37 -113.5 -85 t-104.5 -105.5t-74.5 -124t-24.5 -140.5q4 -66 45 -110.5t107 -52.5q8 -2 24 -3q8 4 15.5 7.5t15.5 7.5q16 6 40.5 5t35.5 -22q0 -2 1 -3t1 -3q20 -25 -8 -51q-29 -25 -80 -29q-43 -31 -79 -71.5t-63.5 -88.5t-48 -99.5t-35.5 -100.5q-39 -129 -39 -272q0 -63 10.5 -131 t45.5 -121q57 -92 153 -39q47 27 79 69.5t57 89.5q29 51 52 104.5t44 106.5q16 47 29.5 93.5t29.5 91.5q4 16 16.5 33.5t32.5 15.5q16 -2 22.5 -15.5t10.5 -27.5q4 -25 -3 -50.5t-15 -47.5l-35 -103q-39 -100 -87 -200.5t-124 -178.5q-35 -35 -82 -60.5t-98 -23.5 q-55 2 -96.5 37t-65.5 82q-29 55 -42 115.5t-16.5 124zM169 1547q3 22 7 38q2 6 9.5 23.5t16.5 36t18 36t16 23.5q25 20 45 -2q14 -16 15 -35.5t-1 -40.5q-4 -29 -21.5 -54.5t-37.5 -45.5q-10 -10 -25.5 -16.5t-28.5 3.5q-16 12 -13 34zM323 1545q3 30 14 62.5t25.5 60.5 t24.5 36q25 20 43 -2q23 -25 15.5 -74t-56.5 -110q-10 -10 -24.5 -17.5t-28.5 2.5q-16 12 -13 42z" />
<glyph unicode="&#xcc;" horiz-adv-x="839" d="M20 1078.5q0 13.5 3.5 26.5t7.5 21q10 18 19 37t20 35q35 55 83 102.5t103 81.5q51 35 112.5 57.5t125.5 12.5q66 -12 99.5 -61.5t45.5 -108.5q14 -70 17 -140.5t3 -140.5q4 -274 -12 -542.5t-20 -542.5q0 -61 -1 -121.5t3 -122.5q0 -10 -3 -28.5t-10.5 -32.5 t-18.5 -20.5t-30 10.5q-16 12 -20 33.5t-6 39.5q-2 29 -1 59.5t1 61.5q0 121 6 248q4 137 10 273.5t12 275.5q6 141 10.5 282.5t-6.5 282.5q-2 25 -5 57.5t-10 63.5t-23.5 56.5t-45.5 33.5t-60.5 2t-61 -19.5t-57 -32t-48.5 -34.5q-47 -37 -84 -84t-65 -100 q-8 -16 -25.5 -39t-40.5 -19q-14 2 -20.5 12.5t-6.5 24zM379 1777.5q-4 24.5 16 39.5q23 14 41.5 -5.5t26.5 -35.5q6 -14 9 -29.5t7 -30.5q6 -14 13.5 -28.5t17.5 -26.5q12 -20 29.5 -33.5t29.5 -32.5q10 -14 17.5 -37.5t-13.5 -35.5q-20 -12 -41.5 1t-35.5 27 q-76 76 -107 183q-6 20 -10 44.5z" />
<glyph unicode="&#xcd;" horiz-adv-x="839" d="M20 1078.5q0 13.5 3.5 26.5t7.5 21q10 18 19 37t20 35q35 55 83 102.5t103 81.5q51 35 112.5 57.5t125.5 12.5q66 -12 99.5 -61.5t45.5 -108.5q14 -70 17 -140.5t3 -140.5q4 -274 -12 -542.5t-20 -542.5q0 -61 -1 -121.5t3 -122.5q0 -10 -3 -28.5t-10.5 -32.5 t-18.5 -20.5t-30 10.5q-16 12 -20 33.5t-6 39.5q-2 29 -1 59.5t1 61.5q0 121 6 248q4 137 10 273.5t12 275.5q6 141 10.5 282.5t-6.5 282.5q-2 25 -5 57.5t-10 63.5t-23.5 56.5t-45.5 33.5t-60.5 2t-61 -19.5t-57 -32t-48.5 -34.5q-47 -37 -84 -84t-65 -100 q-8 -16 -25.5 -39t-40.5 -19q-14 2 -20.5 12.5t-6.5 24zM423 1544q-3 10 0 21.5t8 23t11 19.5q10 10 21.5 18t21.5 19q20 23 35 47q10 20 14.5 40.5t14.5 41.5q6 16 21.5 33.5t35.5 7.5q23 -8 24 -33t-3 -41q-12 -55 -42 -96t-69 -80q-14 -16 -33.5 -31.5t-44.5 -5.5 q-12 6 -15 16z" />
<glyph unicode="&#xce;" horiz-adv-x="839" d="M20 1078.5q0 13.5 3.5 26.5t7.5 21q10 18 19 37t20 35q35 55 83 102.5t103 81.5q51 35 112.5 57.5t125.5 12.5q66 -12 99.5 -61.5t45.5 -108.5q14 -70 17 -140.5t3 -140.5q4 -274 -12 -542.5t-20 -542.5q0 -61 -1 -121.5t3 -122.5q0 -10 -3 -28.5t-10.5 -32.5 t-18.5 -20.5t-30 10.5q-16 12 -20 33.5t-6 39.5q-2 29 -1 59.5t1 61.5q0 121 6 248q4 137 10 273.5t12 275.5q6 141 10.5 282.5t-6.5 282.5q-2 25 -5 57.5t-10 63.5t-23.5 56.5t-45.5 33.5t-60.5 2t-61 -19.5t-57 -32t-48.5 -34.5q-47 -37 -84 -84t-65 -100 q-8 -16 -25.5 -39t-40.5 -19q-14 2 -20.5 12.5t-6.5 24zM359 1557.5q3 11.5 10.5 22.5t13.5 17q20 25 38.5 42.5t35 35t31 38t28.5 48.5q23 43 58.5 43t72.5 -35q72 -68 103 -161q4 -18 9 -44t-22 -38q-12 -4 -22 -1t-19.5 10t-15.5 16.5t-10 17.5q-20 35 -32.5 70.5 t-45.5 64.5q-16 -25 -52 -71t-75 -77q-16 -12 -37.5 -27.5t-48.5 -6.5q-14 6 -18.5 15t-1.5 20.5z" />
<glyph unicode="&#xcf;" horiz-adv-x="839" d="M20 1078.5q0 13.5 3.5 26.5t7.5 21q10 18 19 37t20 35q35 55 83 102.5t103 81.5q51 35 112.5 57.5t125.5 12.5q66 -12 99.5 -61.5t45.5 -108.5q14 -70 17 -140.5t3 -140.5q4 -274 -12 -542.5t-20 -542.5q0 -61 -1 -121.5t3 -122.5q0 -10 -3 -28.5t-10.5 -32.5 t-18.5 -20.5t-30 10.5q-16 12 -20 33.5t-6 39.5q-2 29 -1 59.5t1 61.5q0 121 6 248q4 137 10 273.5t12 275.5q6 141 10.5 282.5t-6.5 282.5q-2 25 -5 57.5t-10 63.5t-23.5 56.5t-45.5 33.5t-60.5 2t-61 -19.5t-57 -32t-48.5 -34.5q-47 -37 -84 -84t-65 -100 q-8 -16 -25.5 -39t-40.5 -19q-14 2 -20.5 12.5t-6.5 24zM421 1570q3 22 7 38q2 6 9 23.5t16.5 36t18.5 35.5t15 23q25 20 45 -2q14 -16 15.5 -35.5t-0.5 -39.5q-4 -29 -21.5 -54.5t-38.5 -46.5q-10 -10 -25.5 -16t-27.5 4q-16 12 -13 34zM575 1567.5q3 29.5 14 62.5 t25.5 60.5t24.5 35.5q25 20 43 -2q23 -25 15.5 -73.5t-56.5 -110.5q-10 -10 -24.5 -17t-28.5 3q-16 12 -13 41.5z" />
<glyph unicode="&#xd0;" horiz-adv-x="819" d="M24.5 1045.5q10.5 25.5 22.5 39.5q6 10 13.5 19.5t15.5 19.5q43 53 92 102.5t106 88.5q53 39 120 64.5t132 11.5q72 -16 115 -69.5t66.5 -122.5t32 -144.5t12.5 -132.5q6 -147 -9.5 -295t-48.5 -293q-27 -137 -78 -273q-23 -63 -54.5 -123.5t-76.5 -111.5 q-47 -53 -104 -96t-127 -64q-53 -16 -111 -12q-10 0 -24.5 3t-26.5 10t-19 17.5t-1 24.5q10 23 36.5 27t45.5 4q29 2 53 5t51 13q-10 27 -11 56.5t-3 54.5q-4 47 -7.5 96t-7.5 96q-8 123 -11 245t-3 245l-63 -8q-16 -4 -39 3t-27 27q-4 18 11.5 31.5t31.5 18.5q39 8 86 12 v111.5t2 111.5q2 78 4 155t8 154q-29 -29 -55.5 -60.5t-52.5 -62.5q-6 -8 -15.5 -17t-20.5 -15t-23.5 -8.5t-24.5 4.5q-23 12 -12.5 37.5zM295 637q92 -4 160 -23q16 -4 32.5 -16t14.5 -31q-4 -23 -29 -29.5t-41 -2.5q-63 14 -135 18v-68.5t2 -68.5q4 -139 9 -277.5 t22 -275.5q2 -16 4 -29.5t6 -30.5q76 57 127 138q74 119 112.5 260t61.5 278q23 145 31 295t-19 295q-10 57 -32.5 124t-73.5 101q-29 16 -58.5 17.5t-59.5 -8t-58.5 -25.5t-51.5 -33v-8q-25 -299 -24 -600z" />
<glyph unicode="&#xd1;" horiz-adv-x="700" d="M21.5 125q-1.5 86 1.5 174q0 180 6 359.5t16 359.5q2 47 4 96t8 96q0 6 2 13.5t4 13.5v4q-6 29 -12 64.5t21 58.5q12 12 23 9t19.5 -13t13.5 -23.5t7 -23.5q49 -236 102.5 -469.5t112.5 -466.5q49 -195 105 -387l16 -60q-4 39 -6 77t-6 77q-16 227 -18.5 452.5t8.5 452.5 q4 98 10 195.5t16 195.5q2 14 3 33t5 36t11.5 32.5t23.5 21.5q16 8 26.5 2t15.5 -17t6 -26.5t-1 -25.5q-27 -258 -39 -513t-2 -515q6 -209 25 -418q4 -53 10 -104.5t12 -104.5q6 -41 13.5 -84t11.5 -84q0 -16 -8 -36.5t-25 -22.5q-10 -6 -26 0q-18 8 -30.5 24t-22 36.5 t-15.5 42t-12 38.5q-29 92 -55.5 183t-51.5 183q-55 205 -106 407t-99 406q-6 23 -11 44.5t-9 44.5q-10 -147 -15.5 -296t-5.5 -296q-2 -86 -1 -172t6 -172q4 -84 12 -170q2 -12 5 -28.5t4 -33t-2 -32t-13 -25.5q-14 -12 -26.5 -9t-22 15t-16.5 27.5t-9 25.5q-8 37 -10 77 t-4 79q-4 86 -5.5 172zM113 1632q4 21 10 35q14 35 40.5 77t63.5 52q33 8 51.5 -18.5t34.5 -48.5q8 -12 22.5 -31t32 -31t35 -14t33.5 16q12 14 16.5 34.5t7.5 41t9 39t23 31.5q14 12 25 8t18.5 -15.5t11.5 -27t4 -25.5q-2 -39 -16.5 -79t-40.5 -68q-35 -35 -81 -36t-87 25 q-37 29 -66 66q0 2 -7 14.5t-9 14.5q-6 2 -12.5 -4.5t-11.5 -15.5l-10 -18t-7 -12q-8 -14 -15.5 -26t-21.5 -21q-10 -8 -22.5 -8t-22.5 10q-12 14 -8 35z" />
<glyph unicode="&#xd2;" horiz-adv-x="815" d="M28 479.5q15 202.5 58 399.5q18 88 45 175t70 165q16 29 38.5 61.5t55.5 44.5q16 6 37.5 4t27.5 -22q4 -16 -5 -32t-23 -26q-31 -23 -49.5 -58.5t-34.5 -68.5q-41 -98 -65.5 -199.5t-41.5 -205.5q-33 -209 -37 -422q-2 -104 6.5 -207.5t34.5 -202.5q12 -47 30 -93t50 -81 q27 -29 66 -42t74 9q39 25 61.5 70t38.5 86q18 51 30.5 102.5t22.5 104.5q20 106 29.5 212.5t13.5 213.5q2 102 -1 202.5t-13 202.5q-10 96 -25.5 192.5t-50.5 188.5q-12 31 -29.5 65t-46.5 52q-14 8 -32.5 17.5t-22.5 27.5q-4 20 15.5 30.5t35.5 12.5q37 0 63.5 -23.5 t45.5 -50.5q29 -39 45 -83t28 -89q53 -190 64.5 -390.5t3.5 -397.5q-4 -104 -14.5 -208.5t-30.5 -209.5q-18 -92 -48 -189.5t-95 -168.5q-35 -39 -78 -53.5t-86 -7.5t-82 33t-66 67q-57 84 -78.5 186t-31.5 203q-18 201 -3 403.5zM301 1777.5q-4 24.5 16 39.5 q23 14 41.5 -5.5t26.5 -35.5q6 -14 9 -29.5t7 -30.5q6 -14 13.5 -28.5t17.5 -26.5q12 -20 29.5 -33.5t30.5 -32.5q10 -14 17 -37.5t-13 -35.5t-42 1t-36 27q-76 76 -107 183q-6 20 -10 44.5z" />
<glyph unicode="&#xd3;" horiz-adv-x="815" d="M28 479.5q15 202.5 58 399.5q18 88 45 175t70 165q16 29 38.5 61.5t55.5 44.5q16 6 37.5 4t27.5 -22q4 -16 -5 -32t-23 -26q-31 -23 -49.5 -58.5t-34.5 -68.5q-41 -98 -65.5 -199.5t-41.5 -205.5q-33 -209 -37 -422q-2 -104 6.5 -207.5t34.5 -202.5q12 -47 30 -93t50 -81 q27 -29 66 -42t74 9q39 25 61.5 70t38.5 86q18 51 30.5 102.5t22.5 104.5q20 106 29.5 212.5t13.5 213.5q2 102 -1 202.5t-13 202.5q-10 96 -25.5 192.5t-50.5 188.5q-12 31 -29.5 65t-46.5 52q-14 8 -32.5 17.5t-22.5 27.5q-4 20 15.5 30.5t35.5 12.5q37 0 63.5 -23.5 t45.5 -50.5q29 -39 45 -83t28 -89q53 -190 64.5 -390.5t3.5 -397.5q-4 -104 -14.5 -208.5t-30.5 -209.5q-18 -92 -48 -189.5t-95 -168.5q-35 -39 -78 -53.5t-86 -7.5t-82 33t-66 67q-57 84 -78.5 186t-31.5 203q-18 201 -3 403.5zM310 1565.5q3 11.5 8.5 23t11.5 19.5 q10 10 21 18t22 19q20 23 35 47q10 20 14 40.5t14 41.5q6 16 21.5 33.5t36.5 7.5q23 -8 23.5 -33t-3.5 -41q-12 -55 -42 -96t-69 -80q-14 -16 -33.5 -31.5t-43.5 -5.5q-12 6 -15.5 16t-0.5 21.5z" />
<glyph unicode="&#xd4;" horiz-adv-x="815" d="M28 479.5q15 202.5 58 399.5q18 88 45 175t70 165q16 29 38.5 61.5t55.5 44.5q16 6 37.5 4t27.5 -22q4 -16 -5 -32t-23 -26q-31 -23 -49.5 -58.5t-34.5 -68.5q-41 -98 -65.5 -199.5t-41.5 -205.5q-33 -209 -37 -422q-2 -104 6.5 -207.5t34.5 -202.5q12 -47 30 -93t50 -81 q27 -29 66 -42t74 9q39 25 61.5 70t38.5 86q18 51 30.5 102.5t22.5 104.5q20 106 29.5 212.5t13.5 213.5q2 102 -1 202.5t-13 202.5q-10 96 -25.5 192.5t-50.5 188.5q-12 31 -29.5 65t-46.5 52q-14 8 -32.5 17.5t-22.5 27.5q-4 20 15.5 30.5t35.5 12.5q37 0 63.5 -23.5 t45.5 -50.5q29 -39 45 -83t28 -89q53 -190 64.5 -390.5t3.5 -397.5q-4 -104 -14.5 -208.5t-30.5 -209.5q-18 -92 -48 -189.5t-95 -168.5q-35 -39 -78 -53.5t-86 -7.5t-82 33t-66 67q-57 84 -78.5 186t-31.5 203q-18 201 -3 403.5zM228 1613q3 11 9.5 22.5t12.5 19.5 q18 25 35.5 43t32 36.5t27.5 40t26 52.5q23 45 54.5 45t66.5 -37q31 -35 55 -78t39 -92q4 -20 8 -47t-19 -39q-23 -10 -39 9.5t-24 35.5q-18 35 -29.5 73t-42.5 68q-16 -25 -49 -72.5t-67 -80.5q-16 -14 -36 -30.5t-42 -6.5q-14 6 -17.5 16.5t-0.5 21.5z" />
</font>
</defs>
</svg>
